M48
; DRILL file {KiCad 8.0.1} date 2024-04-22T06:22:47+1200
; FORMAT={-:-/ absolute / metric / decimal}
; #@! TF.CreationDate,2024-04-22T06:22:47+12:00
; #@! TF.GenerationSoftware,Kicad,Pcbnew,8.0.1
; #@! TF.FileFunction,NonPlated,1,2,NPTH
FMAT,2
METRIC
; #@! TA.AperFunction,NonPlated,NPTH,ComponentDrill
T1C0.900
; #@! TA.AperFunction,NonPlated,NPTH,ComponentDrill
T2C1.702
; #@! TA.AperFunction,NonPlated,NPTH,ComponentDrill
T3C3.000
; #@! TA.AperFunction,NonPlated,NPTH,ComponentDrill
T4C3.988
%
G90
G05
T1
X56.992Y-36.62
X59.992Y-36.62
X234.68Y-36.62
X237.68Y-36.62
T2
X33.652Y-69.256
X33.652Y-89.068
X33.652Y-108.88
X43.812Y-69.256
X43.812Y-89.068
X43.812Y-108.88
X53.412Y-49.444
X53.412Y-69.256
X53.412Y-89.068
X63.572Y-49.444
X63.572Y-69.256
X63.572Y-89.068
X73.172Y-43.5
X73.172Y-63.312
X73.172Y-83.124
X83.332Y-43.5
X83.332Y-63.312
X83.332Y-83.124
X83.432Y-117.823
X92.932Y-55.387
X92.932Y-75.199
X92.932Y-95.011
X93.592Y-117.823
X103.092Y-55.387
X103.092Y-75.199
X103.092Y-95.011
X105.904Y-119.998
X112.692Y-59.35
X112.692Y-79.162
X112.692Y-98.974
X115.567Y-123.138
X122.852Y-59.35
X122.852Y-79.162
X122.852Y-98.974
X127.076Y-128.882
X135.296Y-134.854
X159.376Y-134.854
X167.596Y-128.882
X171.82Y-59.35
X171.82Y-79.162
X171.82Y-98.974
X179.105Y-123.138
X181.98Y-59.35
X181.98Y-79.162
X181.98Y-98.974
X188.768Y-119.998
X191.58Y-55.387
X191.58Y-75.199
X191.58Y-95.011
X201.08Y-117.823
X201.74Y-55.387
X201.74Y-75.199
X201.74Y-95.011
X211.24Y-117.823
X211.34Y-43.5
X211.34Y-63.312
X211.34Y-83.124
X221.5Y-43.5
X221.5Y-63.312
X221.5Y-83.124
X231.1Y-49.444
X231.1Y-69.256
X231.1Y-89.068
X241.26Y-49.444
X241.26Y-69.256
X241.26Y-89.068
X250.86Y-69.256
X250.86Y-89.068
X250.86Y-108.88
X261.02Y-69.256
X261.02Y-89.068
X261.02Y-108.88
T3
X34.922Y-66.716
X34.922Y-86.528
X34.922Y-106.34
X41.272Y-64.176
X41.272Y-83.988
X41.272Y-103.8
X54.682Y-46.904
X54.682Y-66.716
X54.682Y-86.528
X61.032Y-44.364
X61.032Y-64.176
X61.032Y-83.988
X74.442Y-40.96
X74.442Y-60.772
X74.442Y-80.584
X80.792Y-38.42
X80.792Y-58.232
X80.792Y-78.044
X84.702Y-115.283
X91.052Y-112.743
X94.202Y-52.847
X94.202Y-72.659
X94.202Y-92.471
X100.552Y-50.307
X100.552Y-70.119
X100.552Y-89.931
X107.897Y-117.975
X113.962Y-56.81
X113.962Y-76.622
X113.962Y-96.434
X114.721Y-117.521
X120.312Y-54.27
X120.312Y-74.082
X120.312Y-93.894
X129.597Y-127.573
X136.227Y-129.251
X158.911Y-132.052
X162.555Y-126.265
X173.09Y-56.81
X173.09Y-76.622
X173.09Y-96.434
X179.44Y-54.27
X179.44Y-74.082
X179.44Y-93.894
X179.528Y-120.329
X184.782Y-115.951
X192.85Y-52.847
X192.85Y-72.659
X192.85Y-92.471
X199.2Y-50.307
X199.2Y-70.119
X199.2Y-89.931
X202.35Y-115.283
X208.7Y-112.743
X212.61Y-40.96
X212.61Y-60.772
X212.61Y-80.584
X218.96Y-38.42
X218.96Y-58.232
X218.96Y-78.044
X232.37Y-46.904
X232.37Y-66.716
X232.37Y-86.528
X238.72Y-44.364
X238.72Y-64.176
X238.72Y-83.988
X252.13Y-66.716
X252.13Y-86.528
X252.13Y-106.34
X258.48Y-64.176
X258.48Y-83.988
X258.48Y-103.8
T4
X38.732Y-69.256
X38.732Y-89.068
X38.732Y-108.88
X58.492Y-49.444
X58.492Y-69.256
X58.492Y-89.068
X78.252Y-43.5
X78.252Y-63.312
X78.252Y-83.124
X88.512Y-117.823
X98.012Y-55.387
X98.012Y-75.199
X98.012Y-95.011
X110.736Y-121.568
X117.772Y-59.35
X117.772Y-79.162
X117.772Y-98.974
X131.186Y-131.868
X163.486Y-131.868
X176.9Y-59.35
X176.9Y-79.162
X176.9Y-98.974
X183.937Y-121.568
X196.66Y-55.387
X196.66Y-75.199
X196.66Y-95.011
X206.16Y-117.823
X216.42Y-43.5
X216.42Y-63.312
X216.42Y-83.124
X236.18Y-49.444
X236.18Y-69.256
X236.18Y-89.068
X255.94Y-69.256
X255.94Y-89.068
X255.94Y-108.88
M30
