M48
; DRILL file {KiCad 8.0.1} date 2024-04-22T06:22:47+1200
; FORMAT={-:-/ absolute / metric / decimal}
; #@! TF.CreationDate,2024-04-22T06:22:47+12:00
; #@! TF.GenerationSoftware,Kicad,Pcbnew,8.0.1
; #@! TF.FileFunction,Plated,1,2,PTH
FMAT,2
METRIC
; #@! TA.AperFunction,Plated,PTH,ViaDrill
T1C0.400
; #@! TA.AperFunction,Plated,PTH,ComponentDrill
T2C1.000
; #@! TA.AperFunction,Plated,PTH,ComponentDrill
T3C1.016
%
G90
G05
T1
X46.5Y-64.0
X46.5Y-84.0
X46.5Y-93.0
X49.0Y-47.0
X50.0Y-50.5
X50.0Y-80.5
X50.0Y-102.5
X66.0Y-44.5
X66.0Y-64.0
X66.0Y-77.5
X69.5Y-95.0
X85.0Y-41.0
X86.5Y-58.0
X86.5Y-78.5
X86.5Y-102.5
X106.0Y-51.0
X106.0Y-70.5
X106.0Y-90.5
X106.0Y-109.5
X176.5Y-111.0
X185.0Y-57.0
X185.0Y-74.0
X185.0Y-93.5
X204.5Y-50.5
X204.5Y-69.5
X204.5Y-89.5
X204.5Y-98.0
X224.5Y-39.5
X224.5Y-58.5
X224.5Y-78.0
X224.5Y-101.5
X239.0Y-104.5
X242.0Y-95.0
X242.5Y-81.0
X243.0Y-48.0
X244.0Y-44.5
X244.0Y-64.0
X244.5Y-80.5
X244.725Y-56.0
X245.5Y-51.5
X252.0Y-50.0
X254.5Y-57.0
T2
X31.222Y-37.349
X31.222Y-39.889
X31.222Y-42.429
X31.222Y-44.969
X31.222Y-47.509
X31.222Y-50.049
X31.222Y-52.589
X46.462Y-37.349
X46.462Y-39.889
X46.462Y-42.429
X46.462Y-44.969
X46.462Y-47.509
X46.462Y-50.049
X46.462Y-52.589
X248.21Y-37.349
X248.21Y-39.889
X248.21Y-42.429
X248.21Y-44.969
X248.21Y-47.509
X248.21Y-50.049
X248.21Y-52.589
X263.45Y-37.349
X263.45Y-39.889
X263.45Y-42.429
X263.45Y-44.969
X263.45Y-47.509
X263.45Y-50.049
X263.45Y-52.589
T3
X34.397Y-42.747
X34.397Y-44.652
X37.572Y-36.397
X37.572Y-38.937
X40.112Y-36.397
X40.112Y-38.937
X77.252Y-97.03
X79.252Y-97.03
X215.42Y-97.03
X217.42Y-97.03
X251.385Y-42.747
X251.385Y-44.652
X254.56Y-36.397
X254.56Y-38.937
X257.1Y-36.397
X257.1Y-38.937
M30
