%TF.GenerationSoftware,KiCad,Pcbnew,8.0.1*%
%TF.CreationDate,2024-04-22T06:21:47+12:00*%
%TF.ProjectId,main routed,6d61696e-2072-46f7-9574-65642e6b6963,v1.0.0*%
%TF.SameCoordinates,Original*%
%TF.FileFunction,Profile,NP*%
%FSLAX46Y46*%
G04 Gerber Fmt 4.6, Leading zero omitted, Abs format (unit mm)*
G04 Created by KiCad (PCBNEW 8.0.1) date 2024-04-22 06:21:47*
%MOMM*%
%LPD*%
G01*
G04 APERTURE LIST*
%TA.AperFunction,Profile*%
%ADD10C,0.150000*%
%TD*%
%TA.AperFunction,Profile*%
%ADD11C,0.120000*%
%TD*%
G04 APERTURE END LIST*
D10*
X166632000Y-93967600D02*
G75*
G02*
X165432000Y-93967600I-600000J0D01*
G01*
X165432000Y-93967600D02*
G75*
G02*
X166632000Y-93967600I600000J0D01*
G01*
X177475521Y-134131880D02*
X161315642Y-145689166D01*
X29352257Y-118785600D02*
X77132257Y-118785600D01*
X129240257Y-95967600D02*
G75*
G02*
X128040257Y-95967600I-600000J0D01*
G01*
X128040257Y-95967600D02*
G75*
G02*
X129240257Y-95967600I600000J0D01*
G01*
X128156663Y-108926382D02*
G75*
G02*
X128152256Y-108832610I995537J93782D01*
G01*
X206040000Y-44481200D02*
G75*
G02*
X205040000Y-45481200I-1000000J0D01*
G01*
X186280000Y-48443600D02*
G75*
G02*
X185280000Y-49443600I-1000000J0D01*
G01*
X216540000Y-119785600D02*
G75*
G02*
X217540000Y-118785600I1000000J0D01*
G01*
X88632257Y-44481200D02*
X88632257Y-34594000D01*
X29352257Y-118785600D02*
G75*
G02*
X28352300Y-117785600I43J1000000D01*
G01*
X107392257Y-45481200D02*
X89632257Y-45481200D01*
X129240257Y-68249600D02*
G75*
G02*
X128040257Y-68249600I-600000J0D01*
G01*
X128040257Y-68249600D02*
G75*
G02*
X129240257Y-68249600I600000J0D01*
G01*
X89232257Y-104917200D02*
G75*
G02*
X87032257Y-104917200I-1100000J0D01*
G01*
X87032257Y-104917200D02*
G75*
G02*
X89232257Y-104917200I1100000J0D01*
G01*
X87632257Y-33594000D02*
G75*
G02*
X88632300Y-34594000I43J-1000000D01*
G01*
X166632000Y-66249600D02*
G75*
G02*
X165432000Y-66249600I-600000J0D01*
G01*
X165432000Y-66249600D02*
G75*
G02*
X166632000Y-66249600I600000J0D01*
G01*
X247160000Y-59349600D02*
G75*
G02*
X244960000Y-59349600I-1100000J0D01*
G01*
X244960000Y-59349600D02*
G75*
G02*
X247160000Y-59349600I1100000J0D01*
G01*
X97819542Y-127729200D02*
X97802618Y-127781287D01*
X108392257Y-48443600D02*
X108392257Y-46481200D01*
X206040000Y-34594000D02*
X206040000Y-44481200D01*
X129240257Y-64249600D02*
G75*
G02*
X128040257Y-64249600I-600000J0D01*
G01*
X128040257Y-64249600D02*
G75*
G02*
X129240257Y-64249600I600000J0D01*
G01*
X165291166Y-118311800D02*
X150074949Y-129367029D01*
X177748226Y-133994211D02*
X196869639Y-127781287D01*
X166520000Y-63349600D02*
X166520000Y-50443600D01*
X185280000Y-49443600D02*
X167520000Y-49443600D01*
X128152257Y-63349600D02*
X128152257Y-50443600D01*
X216540000Y-126729200D02*
G75*
G02*
X215540000Y-127729200I-1000000J0D01*
G01*
X266320000Y-117785600D02*
X266320000Y-34594000D01*
X109392257Y-49443600D02*
G75*
G02*
X108392300Y-48443600I43J1000000D01*
G01*
X128152257Y-69255600D02*
X166520000Y-69255600D01*
X78132257Y-119785600D02*
X78132257Y-126729200D01*
X173850397Y-116264890D02*
G75*
G02*
X171650397Y-116264890I-1100000J0D01*
G01*
X171650397Y-116264890D02*
G75*
G02*
X173850397Y-116264890I1100000J0D01*
G01*
X166520000Y-63349600D02*
X128152257Y-63349600D01*
X29352257Y-33594000D02*
X87632257Y-33594000D01*
X117380974Y-134142681D02*
G75*
G02*
X117659738Y-134284726I-309074J-951119D01*
G01*
X128152257Y-98973600D02*
X166520000Y-98973600D01*
X129240257Y-93967600D02*
G75*
G02*
X128040257Y-93967600I-600000J0D01*
G01*
X128040257Y-93967600D02*
G75*
G02*
X129240257Y-93967600I600000J0D01*
G01*
X129240257Y-66249600D02*
G75*
G02*
X128040257Y-66249600I-600000J0D01*
G01*
X128040257Y-66249600D02*
G75*
G02*
X129240257Y-66249600I600000J0D01*
G01*
X97802618Y-127781287D02*
X117380974Y-134142681D01*
X49712257Y-59349600D02*
G75*
G02*
X47512257Y-59349600I-1100000J0D01*
G01*
X47512257Y-59349600D02*
G75*
G02*
X49712257Y-59349600I1100000J0D01*
G01*
X149853717Y-130763831D02*
X160911133Y-145983059D01*
X186280000Y-46481200D02*
G75*
G02*
X187280000Y-45481200I1000000J0D01*
G01*
X165698974Y-117596555D02*
G75*
G02*
X165291168Y-118311803I-995574J93755D01*
G01*
X127152257Y-49443600D02*
G75*
G02*
X128152300Y-50443600I43J-1000000D01*
G01*
X77132257Y-118785600D02*
G75*
G02*
X78132300Y-119785600I43J-1000000D01*
G01*
X186280000Y-46481200D02*
X186280000Y-48443600D01*
X49712257Y-98973600D02*
G75*
G02*
X47512257Y-98973600I-1100000J0D01*
G01*
X47512257Y-98973600D02*
G75*
G02*
X49712257Y-98973600I1100000J0D01*
G01*
X144597309Y-129367029D02*
X129381091Y-118311800D01*
X166632000Y-64249600D02*
G75*
G02*
X165432000Y-64249600I-600000J0D01*
G01*
X165432000Y-64249600D02*
G75*
G02*
X166632000Y-64249600I600000J0D01*
G01*
X117659742Y-134284720D02*
X132952107Y-145395274D01*
X217540000Y-118785600D02*
X265320000Y-118785600D01*
X166520000Y-108832610D02*
X166520000Y-98973600D01*
X144597309Y-129367030D02*
G75*
G02*
X144818484Y-130763790I-587809J-808970D01*
G01*
X166520000Y-93067600D02*
X166520000Y-69255600D01*
X166520000Y-50443600D02*
G75*
G02*
X167520000Y-49443600I1000000J0D01*
G01*
X79132257Y-127729200D02*
G75*
G02*
X78132300Y-126729200I43J1000000D01*
G01*
X166632000Y-95967600D02*
G75*
G02*
X165432000Y-95967600I-600000J0D01*
G01*
X165432000Y-95967600D02*
G75*
G02*
X166632000Y-95967600I600000J0D01*
G01*
X177475521Y-134131880D02*
G75*
G02*
X177748223Y-133994201I581779J-813420D01*
G01*
X266320000Y-117785600D02*
G75*
G02*
X265320000Y-118785600I-1000000J0D01*
G01*
X160911133Y-145983059D02*
X161315642Y-145689166D01*
X123021860Y-116264890D02*
G75*
G02*
X120821860Y-116264890I-1100000J0D01*
G01*
X120821860Y-116264890D02*
G75*
G02*
X123021860Y-116264890I1100000J0D01*
G01*
X149853717Y-130763831D02*
G75*
G02*
X150074916Y-129366983I808983J587831D01*
G01*
X28352257Y-117785600D02*
X28352257Y-34594000D01*
X28352257Y-34594000D02*
G75*
G02*
X29352257Y-33593957I1000043J0D01*
G01*
X79132257Y-127729200D02*
X97819542Y-127729200D01*
X187880000Y-65293200D02*
G75*
G02*
X185680000Y-65293200I-1100000J0D01*
G01*
X185680000Y-65293200D02*
G75*
G02*
X187880000Y-65293200I1100000J0D01*
G01*
X166632000Y-97967600D02*
G75*
G02*
X165432000Y-97967600I-600000J0D01*
G01*
X165432000Y-97967600D02*
G75*
G02*
X166632000Y-97967600I600000J0D01*
G01*
X107392257Y-45481200D02*
G75*
G02*
X108392300Y-46481200I43J-1000000D01*
G01*
X128152257Y-108832610D02*
X128152257Y-98973600D01*
X129240257Y-97967600D02*
G75*
G02*
X128040257Y-97967600I-600000J0D01*
G01*
X128040257Y-97967600D02*
G75*
G02*
X129240257Y-97967600I600000J0D01*
G01*
X166520000Y-93067600D02*
X128152257Y-93067600D01*
X216540000Y-126729200D02*
X216540000Y-119785600D01*
X207040000Y-33594000D02*
X265320000Y-33594000D01*
X127152257Y-49443600D02*
X109392257Y-49443600D01*
X134348910Y-145174043D02*
G75*
G02*
X132952107Y-145395273I-809010J587743D01*
G01*
X205040000Y-45481200D02*
X187280000Y-45481200D01*
X265320000Y-33594000D02*
G75*
G02*
X266320000Y-34594000I0J-1000000D01*
G01*
X247160000Y-98973600D02*
G75*
G02*
X244960000Y-98973600I-1100000J0D01*
G01*
X244960000Y-98973600D02*
G75*
G02*
X247160000Y-98973600I1100000J0D01*
G01*
X128152257Y-93067600D02*
X128152257Y-69255600D01*
X166520000Y-108832610D02*
G75*
G02*
X166515593Y-108926382I-1000000J10D01*
G01*
X166632000Y-68249600D02*
G75*
G02*
X165432000Y-68249600I-600000J0D01*
G01*
X165432000Y-68249600D02*
G75*
G02*
X166632000Y-68249600I600000J0D01*
G01*
X207640000Y-104917200D02*
G75*
G02*
X205440000Y-104917200I-1100000J0D01*
G01*
X205440000Y-104917200D02*
G75*
G02*
X207640000Y-104917200I1100000J0D01*
G01*
X108992257Y-65293200D02*
G75*
G02*
X106792257Y-65293200I-1100000J0D01*
G01*
X106792257Y-65293200D02*
G75*
G02*
X108992257Y-65293200I1100000J0D01*
G01*
X89632257Y-45481200D02*
G75*
G02*
X88632300Y-44481200I43J1000000D01*
G01*
X196869639Y-127781287D02*
X196852715Y-127729200D01*
X206040000Y-34594000D02*
G75*
G02*
X207040000Y-33594000I1000000J0D01*
G01*
X134348910Y-145174042D02*
X144818541Y-130763831D01*
X165698975Y-117596555D02*
X166515594Y-108926382D01*
X129381091Y-118311799D02*
G75*
G02*
X128973306Y-117596553I587809J808999D01*
G01*
X196852715Y-127729200D02*
X215540000Y-127729200D01*
X128973283Y-117596555D02*
X128156663Y-108926382D01*
D11*
%TO.C,xiao-ble2*%
X251131000Y-44219800D02*
X251131000Y-43178400D01*
X251816800Y-42492600D02*
X253417000Y-42492600D01*
X253417000Y-44905600D02*
X251816800Y-44905600D01*
X253798000Y-42873600D02*
X253798000Y-44524600D01*
X254306000Y-38504800D02*
X254306000Y-36828400D01*
X254991800Y-36142600D02*
X256668200Y-36142600D01*
X254991800Y-39190600D02*
X256668200Y-39190600D01*
X257354000Y-38504800D02*
X257354000Y-36828400D01*
X251131000Y-44219800D02*
G75*
G02*
X251816864Y-44905489I247800J-438001D01*
G01*
X251816800Y-42492600D02*
G75*
G02*
X251131111Y-43178464I-438001J-247800D01*
G01*
X253417000Y-42492600D02*
G75*
G02*
X253798000Y-42873600I1J-380999D01*
G01*
X253798000Y-44524600D02*
G75*
G02*
X253417000Y-44905600I-380999J-1D01*
G01*
X254306000Y-38504800D02*
G75*
G02*
X254991864Y-39190489I247800J-438001D01*
G01*
X254991800Y-36142600D02*
G75*
G02*
X254306111Y-36828464I-438001J-247800D01*
G01*
X256668200Y-39190600D02*
G75*
G02*
X257353889Y-38504737I438000J247800D01*
G01*
X257354000Y-36828400D02*
G75*
G02*
X256668271Y-36142474I-247700J438100D01*
G01*
%TO.C,xiao-ble1*%
X34143257Y-44219800D02*
X34143257Y-43178400D01*
X34829057Y-42492600D02*
X36429257Y-42492600D01*
X36429257Y-44905600D02*
X34829057Y-44905600D01*
X36810257Y-42873600D02*
X36810257Y-44524600D01*
X37318257Y-38504800D02*
X37318257Y-36828400D01*
X38004057Y-36142600D02*
X39680457Y-36142600D01*
X38004057Y-39190600D02*
X39680457Y-39190600D01*
X40366257Y-38504800D02*
X40366257Y-36828400D01*
X34143257Y-44219800D02*
G75*
G02*
X34829121Y-44905489I247800J-438001D01*
G01*
X34829057Y-42492600D02*
G75*
G02*
X34143368Y-43178464I-438001J-247800D01*
G01*
X36429257Y-42492600D02*
G75*
G02*
X36810257Y-42873600I1J-380999D01*
G01*
X36810257Y-44524600D02*
G75*
G02*
X36429257Y-44905600I-380999J-1D01*
G01*
X37318257Y-38504800D02*
G75*
G02*
X38004121Y-39190489I247800J-438001D01*
G01*
X38004057Y-36142600D02*
G75*
G02*
X37318368Y-36828464I-438001J-247800D01*
G01*
X39680457Y-39190600D02*
G75*
G02*
X40366146Y-38504737I438000J247800D01*
G01*
X40366257Y-36828400D02*
G75*
G02*
X39680528Y-36142474I-247700J438100D01*
G01*
%TD*%
M02*
