%TF.GenerationSoftware,KiCad,Pcbnew,8.0.1*%
%TF.CreationDate,2024-04-22T06:22:56+12:00*%
%TF.ProjectId,main routed,6d61696e-2072-46f7-9574-65642e6b6963,v1.0.0*%
%TF.SameCoordinates,Original*%
%TF.FileFunction,Drillmap*%
%TF.FilePolarity,Positive*%
%FSLAX45Y45*%
G04 Gerber Fmt 4.5, Leading zero omitted, Abs format (unit mm)*
G04 Created by KiCad (PCBNEW 8.0.1) date 2024-04-22 06:22:56*
%MOMM*%
%LPD*%
G01*
G04 APERTURE LIST*
%ADD10C,0.150000*%
%ADD11C,0.120000*%
%ADD12C,0.200000*%
%ADD13C,0.100000*%
%ADD14C,0.170180*%
%ADD15C,0.300000*%
%ADD16C,0.398780*%
G04 APERTURE END LIST*
D10*
X16663200Y-9396760D02*
G75*
G02*
X16543200Y-9396760I-60000J0D01*
G01*
X16543200Y-9396760D02*
G75*
G02*
X16663200Y-9396760I60000J0D01*
G01*
X17747552Y-13413188D02*
X16131564Y-14568917D01*
X2935226Y-11878560D02*
X7713226Y-11878560D01*
X12924026Y-9596760D02*
G75*
G02*
X12804026Y-9596760I-60000J0D01*
G01*
X12804026Y-9596760D02*
G75*
G02*
X12924026Y-9596760I60000J0D01*
G01*
X12815666Y-10892638D02*
G75*
G02*
X12815226Y-10883261I99554J9378D01*
G01*
X20604000Y-4448120D02*
G75*
G02*
X20504000Y-4548120I-100000J0D01*
G01*
X18628000Y-4844360D02*
G75*
G02*
X18528000Y-4944360I-100000J0D01*
G01*
X21654000Y-11978560D02*
G75*
G02*
X21754000Y-11878560I100000J0D01*
G01*
X8863226Y-4448120D02*
X8863226Y-3459400D01*
X2935226Y-11878560D02*
G75*
G02*
X2835230Y-11778560I4J100000D01*
G01*
X10739226Y-4548120D02*
X8963226Y-4548120D01*
X12924026Y-6824960D02*
G75*
G02*
X12804026Y-6824960I-60000J0D01*
G01*
X12804026Y-6824960D02*
G75*
G02*
X12924026Y-6824960I60000J0D01*
G01*
X8923226Y-10491720D02*
G75*
G02*
X8703226Y-10491720I-110000J0D01*
G01*
X8703226Y-10491720D02*
G75*
G02*
X8923226Y-10491720I110000J0D01*
G01*
X8763226Y-3359400D02*
G75*
G02*
X8863230Y-3459400I4J-100000D01*
G01*
X16663200Y-6624960D02*
G75*
G02*
X16543200Y-6624960I-60000J0D01*
G01*
X16543200Y-6624960D02*
G75*
G02*
X16663200Y-6624960I60000J0D01*
G01*
X24716000Y-5934960D02*
G75*
G02*
X24496000Y-5934960I-110000J0D01*
G01*
X24496000Y-5934960D02*
G75*
G02*
X24716000Y-5934960I110000J0D01*
G01*
X9781954Y-12772920D02*
X9780262Y-12778129D01*
X10839226Y-4844360D02*
X10839226Y-4648120D01*
X20604000Y-3459400D02*
X20604000Y-4448120D01*
X12924026Y-6424960D02*
G75*
G02*
X12804026Y-6424960I-60000J0D01*
G01*
X12804026Y-6424960D02*
G75*
G02*
X12924026Y-6424960I60000J0D01*
G01*
X16529117Y-11831180D02*
X15007495Y-12936703D01*
X17774823Y-13399421D02*
X19686964Y-12778129D01*
X16652000Y-6334960D02*
X16652000Y-5044360D01*
X18528000Y-4944360D02*
X16752000Y-4944360D01*
X12815226Y-6334960D02*
X12815226Y-5044360D01*
X21654000Y-12672920D02*
G75*
G02*
X21554000Y-12772920I-100000J0D01*
G01*
X26632000Y-11778560D02*
X26632000Y-3459400D01*
X10939226Y-4944360D02*
G75*
G02*
X10839230Y-4844360I4J100000D01*
G01*
X12815226Y-6925560D02*
X16652000Y-6925560D01*
X7813226Y-11978560D02*
X7813226Y-12672920D01*
X17385040Y-11626489D02*
G75*
G02*
X17165040Y-11626489I-110000J0D01*
G01*
X17165040Y-11626489D02*
G75*
G02*
X17385040Y-11626489I110000J0D01*
G01*
X16652000Y-6334960D02*
X12815226Y-6334960D01*
X2935226Y-3359400D02*
X8763226Y-3359400D01*
X11738097Y-13414268D02*
G75*
G02*
X11765974Y-13428473I-30907J-95112D01*
G01*
X12815226Y-9897360D02*
X16652000Y-9897360D01*
X12924026Y-9396760D02*
G75*
G02*
X12804026Y-9396760I-60000J0D01*
G01*
X12804026Y-9396760D02*
G75*
G02*
X12924026Y-9396760I60000J0D01*
G01*
X12924026Y-6624960D02*
G75*
G02*
X12804026Y-6624960I-60000J0D01*
G01*
X12804026Y-6624960D02*
G75*
G02*
X12924026Y-6624960I60000J0D01*
G01*
X9780262Y-12778129D02*
X11738097Y-13414268D01*
X4971226Y-5934960D02*
G75*
G02*
X4751226Y-5934960I-110000J0D01*
G01*
X4751226Y-5934960D02*
G75*
G02*
X4971226Y-5934960I110000J0D01*
G01*
X14985372Y-13076383D02*
X16091113Y-14598306D01*
X18628000Y-4648120D02*
G75*
G02*
X18728000Y-4548120I100000J0D01*
G01*
X16569897Y-11759655D02*
G75*
G02*
X16529117Y-11831180I-99557J9376D01*
G01*
X12715226Y-4944360D02*
G75*
G02*
X12815230Y-5044360I4J-100000D01*
G01*
X7713226Y-11878560D02*
G75*
G02*
X7813230Y-11978560I4J-100000D01*
G01*
X18628000Y-4648120D02*
X18628000Y-4844360D01*
X4971226Y-9897360D02*
G75*
G02*
X4751226Y-9897360I-110000J0D01*
G01*
X4751226Y-9897360D02*
G75*
G02*
X4971226Y-9897360I110000J0D01*
G01*
X14459731Y-12936703D02*
X12938109Y-11831180D01*
X16663200Y-6424960D02*
G75*
G02*
X16543200Y-6424960I-60000J0D01*
G01*
X16543200Y-6424960D02*
G75*
G02*
X16663200Y-6424960I60000J0D01*
G01*
X11765974Y-13428472D02*
X13295211Y-14539527D01*
X21754000Y-11878560D02*
X26532000Y-11878560D01*
X16652000Y-10883261D02*
X16652000Y-9897360D01*
X14459731Y-12936703D02*
G75*
G02*
X14481848Y-13076379I-58781J-80897D01*
G01*
X16652000Y-9306760D02*
X16652000Y-6925560D01*
X16652000Y-5044360D02*
G75*
G02*
X16752000Y-4944360I100000J0D01*
G01*
X7913226Y-12772920D02*
G75*
G02*
X7813230Y-12672920I4J100000D01*
G01*
X16663200Y-9596760D02*
G75*
G02*
X16543200Y-9596760I-60000J0D01*
G01*
X16543200Y-9596760D02*
G75*
G02*
X16663200Y-9596760I60000J0D01*
G01*
X17747552Y-13413188D02*
G75*
G02*
X17774822Y-13399420I58178J-81342D01*
G01*
X26632000Y-11778560D02*
G75*
G02*
X26532000Y-11878560I-100000J0D01*
G01*
X16091113Y-14598306D02*
X16131564Y-14568917D01*
X12302186Y-11626489D02*
G75*
G02*
X12082186Y-11626489I-110000J0D01*
G01*
X12082186Y-11626489D02*
G75*
G02*
X12302186Y-11626489I110000J0D01*
G01*
X14985372Y-13076383D02*
G75*
G02*
X15007492Y-12936698I80898J58783D01*
G01*
X2835226Y-11778560D02*
X2835226Y-3459400D01*
X2835226Y-3459400D02*
G75*
G02*
X2935226Y-3359396I100004J0D01*
G01*
X7913226Y-12772920D02*
X9781954Y-12772920D01*
X18788000Y-6529320D02*
G75*
G02*
X18568000Y-6529320I-110000J0D01*
G01*
X18568000Y-6529320D02*
G75*
G02*
X18788000Y-6529320I110000J0D01*
G01*
X16663200Y-9796760D02*
G75*
G02*
X16543200Y-9796760I-60000J0D01*
G01*
X16543200Y-9796760D02*
G75*
G02*
X16663200Y-9796760I60000J0D01*
G01*
X10739226Y-4548120D02*
G75*
G02*
X10839230Y-4648120I4J-100000D01*
G01*
X12815226Y-10883261D02*
X12815226Y-9897360D01*
X12924026Y-9796760D02*
G75*
G02*
X12804026Y-9796760I-60000J0D01*
G01*
X12804026Y-9796760D02*
G75*
G02*
X12924026Y-9796760I60000J0D01*
G01*
X16652000Y-9306760D02*
X12815226Y-9306760D01*
X21654000Y-12672920D02*
X21654000Y-11978560D01*
X20704000Y-3359400D02*
X26532000Y-3359400D01*
X12715226Y-4944360D02*
X10939226Y-4944360D01*
X13434891Y-14517404D02*
G75*
G02*
X13295211Y-14539527I-80901J58774D01*
G01*
X20504000Y-4548120D02*
X18728000Y-4548120D01*
X26532000Y-3359400D02*
G75*
G02*
X26632000Y-3459400I0J-100000D01*
G01*
X24716000Y-9897360D02*
G75*
G02*
X24496000Y-9897360I-110000J0D01*
G01*
X24496000Y-9897360D02*
G75*
G02*
X24716000Y-9897360I110000J0D01*
G01*
X12815226Y-9306760D02*
X12815226Y-6925560D01*
X16652000Y-10883261D02*
G75*
G02*
X16651559Y-10892638I-100000J1D01*
G01*
X16663200Y-6824960D02*
G75*
G02*
X16543200Y-6824960I-60000J0D01*
G01*
X16543200Y-6824960D02*
G75*
G02*
X16663200Y-6824960I60000J0D01*
G01*
X20764000Y-10491720D02*
G75*
G02*
X20544000Y-10491720I-110000J0D01*
G01*
X20544000Y-10491720D02*
G75*
G02*
X20764000Y-10491720I110000J0D01*
G01*
X10899226Y-6529320D02*
G75*
G02*
X10679226Y-6529320I-110000J0D01*
G01*
X10679226Y-6529320D02*
G75*
G02*
X10899226Y-6529320I110000J0D01*
G01*
X8963226Y-4548120D02*
G75*
G02*
X8863230Y-4448120I4J100000D01*
G01*
X19686964Y-12778129D02*
X19685272Y-12772920D01*
X20604000Y-3459400D02*
G75*
G02*
X20704000Y-3359400I100000J0D01*
G01*
X13434891Y-14517404D02*
X14481854Y-13076383D01*
X16569897Y-11759655D02*
X16651559Y-10892638D01*
X12938109Y-11831180D02*
G75*
G02*
X12897331Y-11759655I58781J80900D01*
G01*
X19685272Y-12772920D02*
X21554000Y-12772920D01*
X12897328Y-11759655D02*
X12815666Y-10892638D01*
D11*
X25113100Y-4421980D02*
X25113100Y-4317840D01*
X25181680Y-4249260D02*
X25341700Y-4249260D01*
X25341700Y-4490560D02*
X25181680Y-4490560D01*
X25379800Y-4287360D02*
X25379800Y-4452460D01*
X25430600Y-3850480D02*
X25430600Y-3682840D01*
X25499180Y-3614260D02*
X25666820Y-3614260D01*
X25499180Y-3919060D02*
X25666820Y-3919060D01*
X25735400Y-3850480D02*
X25735400Y-3682840D01*
X25113100Y-4421980D02*
G75*
G02*
X25181686Y-4490549I24780J-43800D01*
G01*
X25181680Y-4249260D02*
G75*
G02*
X25113111Y-4317846I-43800J-24780D01*
G01*
X25341700Y-4249260D02*
G75*
G02*
X25379800Y-4287360I0J-38100D01*
G01*
X25379800Y-4452460D02*
G75*
G02*
X25341700Y-4490560I-38100J0D01*
G01*
X25430600Y-3850480D02*
G75*
G02*
X25499186Y-3919049I24780J-43800D01*
G01*
X25499180Y-3614260D02*
G75*
G02*
X25430611Y-3682846I-43800J-24780D01*
G01*
X25666820Y-3919060D02*
G75*
G02*
X25735389Y-3850474I43800J24780D01*
G01*
X25735400Y-3682840D02*
G75*
G02*
X25666827Y-3614247I-24770J43810D01*
G01*
X3414326Y-4421980D02*
X3414326Y-4317840D01*
X3482906Y-4249260D02*
X3642926Y-4249260D01*
X3642926Y-4490560D02*
X3482906Y-4490560D01*
X3681026Y-4287360D02*
X3681026Y-4452460D01*
X3731826Y-3850480D02*
X3731826Y-3682840D01*
X3800406Y-3614260D02*
X3968046Y-3614260D01*
X3800406Y-3919060D02*
X3968046Y-3919060D01*
X4036626Y-3850480D02*
X4036626Y-3682840D01*
X3414326Y-4421980D02*
G75*
G02*
X3482912Y-4490549I24780J-43800D01*
G01*
X3482906Y-4249260D02*
G75*
G02*
X3414337Y-4317846I-43800J-24780D01*
G01*
X3642926Y-4249260D02*
G75*
G02*
X3681026Y-4287360I0J-38100D01*
G01*
X3681026Y-4452460D02*
G75*
G02*
X3642926Y-4490560I-38100J0D01*
G01*
X3731826Y-3850480D02*
G75*
G02*
X3800412Y-3919049I24780J-43800D01*
G01*
X3800406Y-3614260D02*
G75*
G02*
X3731837Y-3682846I-43800J-24780D01*
G01*
X3968046Y-3919060D02*
G75*
G02*
X4036615Y-3850474I43800J24780D01*
G01*
X4036626Y-3682840D02*
G75*
G02*
X3968053Y-3614247I-24770J43810D01*
G01*
D12*
D13*
X5654226Y-3617000D02*
X5744226Y-3707000D01*
X5744226Y-3617000D02*
X5654226Y-3707000D01*
X5954226Y-3617000D02*
X6044226Y-3707000D01*
X6044226Y-3617000D02*
X5954226Y-3707000D01*
X23423000Y-3617000D02*
X23513000Y-3707000D01*
X23513000Y-3617000D02*
X23423000Y-3707000D01*
X23723000Y-3617000D02*
X23813000Y-3707000D01*
X23813000Y-3617000D02*
X23723000Y-3707000D01*
D14*
X3450316Y-6925560D02*
G75*
G02*
X3280136Y-6925560I-85090J0D01*
G01*
X3280136Y-6925560D02*
G75*
G02*
X3450316Y-6925560I85090J0D01*
G01*
X3450316Y-8906760D02*
G75*
G02*
X3280136Y-8906760I-85090J0D01*
G01*
X3280136Y-8906760D02*
G75*
G02*
X3450316Y-8906760I85090J0D01*
G01*
X3450316Y-10887960D02*
G75*
G02*
X3280136Y-10887960I-85090J0D01*
G01*
X3280136Y-10887960D02*
G75*
G02*
X3450316Y-10887960I85090J0D01*
G01*
X4466316Y-6925560D02*
G75*
G02*
X4296136Y-6925560I-85090J0D01*
G01*
X4296136Y-6925560D02*
G75*
G02*
X4466316Y-6925560I85090J0D01*
G01*
X4466316Y-8906760D02*
G75*
G02*
X4296136Y-8906760I-85090J0D01*
G01*
X4296136Y-8906760D02*
G75*
G02*
X4466316Y-8906760I85090J0D01*
G01*
X4466316Y-10887960D02*
G75*
G02*
X4296136Y-10887960I-85090J0D01*
G01*
X4296136Y-10887960D02*
G75*
G02*
X4466316Y-10887960I85090J0D01*
G01*
X5426316Y-4944360D02*
G75*
G02*
X5256136Y-4944360I-85090J0D01*
G01*
X5256136Y-4944360D02*
G75*
G02*
X5426316Y-4944360I85090J0D01*
G01*
X5426316Y-6925560D02*
G75*
G02*
X5256136Y-6925560I-85090J0D01*
G01*
X5256136Y-6925560D02*
G75*
G02*
X5426316Y-6925560I85090J0D01*
G01*
X5426316Y-8906760D02*
G75*
G02*
X5256136Y-8906760I-85090J0D01*
G01*
X5256136Y-8906760D02*
G75*
G02*
X5426316Y-8906760I85090J0D01*
G01*
X6442316Y-4944360D02*
G75*
G02*
X6272136Y-4944360I-85090J0D01*
G01*
X6272136Y-4944360D02*
G75*
G02*
X6442316Y-4944360I85090J0D01*
G01*
X6442316Y-6925560D02*
G75*
G02*
X6272136Y-6925560I-85090J0D01*
G01*
X6272136Y-6925560D02*
G75*
G02*
X6442316Y-6925560I85090J0D01*
G01*
X6442316Y-8906760D02*
G75*
G02*
X6272136Y-8906760I-85090J0D01*
G01*
X6272136Y-8906760D02*
G75*
G02*
X6442316Y-8906760I85090J0D01*
G01*
X7402316Y-4350000D02*
G75*
G02*
X7232136Y-4350000I-85090J0D01*
G01*
X7232136Y-4350000D02*
G75*
G02*
X7402316Y-4350000I85090J0D01*
G01*
X7402316Y-6331200D02*
G75*
G02*
X7232136Y-6331200I-85090J0D01*
G01*
X7232136Y-6331200D02*
G75*
G02*
X7402316Y-6331200I85090J0D01*
G01*
X7402316Y-8312400D02*
G75*
G02*
X7232136Y-8312400I-85090J0D01*
G01*
X7232136Y-8312400D02*
G75*
G02*
X7402316Y-8312400I85090J0D01*
G01*
X8418316Y-4350000D02*
G75*
G02*
X8248136Y-4350000I-85090J0D01*
G01*
X8248136Y-4350000D02*
G75*
G02*
X8418316Y-4350000I85090J0D01*
G01*
X8418316Y-6331200D02*
G75*
G02*
X8248136Y-6331200I-85090J0D01*
G01*
X8248136Y-6331200D02*
G75*
G02*
X8418316Y-6331200I85090J0D01*
G01*
X8418316Y-8312400D02*
G75*
G02*
X8248136Y-8312400I-85090J0D01*
G01*
X8248136Y-8312400D02*
G75*
G02*
X8418316Y-8312400I85090J0D01*
G01*
X8428316Y-11782320D02*
G75*
G02*
X8258136Y-11782320I-85090J0D01*
G01*
X8258136Y-11782320D02*
G75*
G02*
X8428316Y-11782320I85090J0D01*
G01*
X9378316Y-5538720D02*
G75*
G02*
X9208136Y-5538720I-85090J0D01*
G01*
X9208136Y-5538720D02*
G75*
G02*
X9378316Y-5538720I85090J0D01*
G01*
X9378316Y-7519920D02*
G75*
G02*
X9208136Y-7519920I-85090J0D01*
G01*
X9208136Y-7519920D02*
G75*
G02*
X9378316Y-7519920I85090J0D01*
G01*
X9378316Y-9501120D02*
G75*
G02*
X9208136Y-9501120I-85090J0D01*
G01*
X9208136Y-9501120D02*
G75*
G02*
X9378316Y-9501120I85090J0D01*
G01*
X9444316Y-11782320D02*
G75*
G02*
X9274136Y-11782320I-85090J0D01*
G01*
X9274136Y-11782320D02*
G75*
G02*
X9444316Y-11782320I85090J0D01*
G01*
X10394316Y-5538720D02*
G75*
G02*
X10224136Y-5538720I-85090J0D01*
G01*
X10224136Y-5538720D02*
G75*
G02*
X10394316Y-5538720I85090J0D01*
G01*
X10394316Y-7519920D02*
G75*
G02*
X10224136Y-7519920I-85090J0D01*
G01*
X10224136Y-7519920D02*
G75*
G02*
X10394316Y-7519920I85090J0D01*
G01*
X10394316Y-9501120D02*
G75*
G02*
X10224136Y-9501120I-85090J0D01*
G01*
X10224136Y-9501120D02*
G75*
G02*
X10394316Y-9501120I85090J0D01*
G01*
X10675524Y-11999791D02*
G75*
G02*
X10505344Y-11999791I-85090J0D01*
G01*
X10505344Y-11999791D02*
G75*
G02*
X10675524Y-11999791I85090J0D01*
G01*
X11354316Y-5934960D02*
G75*
G02*
X11184136Y-5934960I-85090J0D01*
G01*
X11184136Y-5934960D02*
G75*
G02*
X11354316Y-5934960I85090J0D01*
G01*
X11354316Y-7916160D02*
G75*
G02*
X11184136Y-7916160I-85090J0D01*
G01*
X11184136Y-7916160D02*
G75*
G02*
X11354316Y-7916160I85090J0D01*
G01*
X11354316Y-9897360D02*
G75*
G02*
X11184136Y-9897360I-85090J0D01*
G01*
X11184136Y-9897360D02*
G75*
G02*
X11354316Y-9897360I85090J0D01*
G01*
X11641797Y-12313752D02*
G75*
G02*
X11471617Y-12313752I-85090J0D01*
G01*
X11471617Y-12313752D02*
G75*
G02*
X11641797Y-12313752I85090J0D01*
G01*
X12370316Y-5934960D02*
G75*
G02*
X12200136Y-5934960I-85090J0D01*
G01*
X12200136Y-5934960D02*
G75*
G02*
X12370316Y-5934960I85090J0D01*
G01*
X12370316Y-7916160D02*
G75*
G02*
X12200136Y-7916160I-85090J0D01*
G01*
X12200136Y-7916160D02*
G75*
G02*
X12370316Y-7916160I85090J0D01*
G01*
X12370316Y-9897360D02*
G75*
G02*
X12200136Y-9897360I-85090J0D01*
G01*
X12200136Y-9897360D02*
G75*
G02*
X12370316Y-9897360I85090J0D01*
G01*
X12792722Y-12888178D02*
G75*
G02*
X12622542Y-12888178I-85090J0D01*
G01*
X12622542Y-12888178D02*
G75*
G02*
X12792722Y-12888178I85090J0D01*
G01*
X13614683Y-13485367D02*
G75*
G02*
X13444503Y-13485367I-85090J0D01*
G01*
X13444503Y-13485367D02*
G75*
G02*
X13614683Y-13485367I85090J0D01*
G01*
X16022722Y-13485367D02*
G75*
G02*
X15852542Y-13485367I-85090J0D01*
G01*
X15852542Y-13485367D02*
G75*
G02*
X16022722Y-13485367I85090J0D01*
G01*
X16844684Y-12888178D02*
G75*
G02*
X16674503Y-12888178I-85090J0D01*
G01*
X16674503Y-12888178D02*
G75*
G02*
X16844684Y-12888178I85090J0D01*
G01*
X17267090Y-5934960D02*
G75*
G02*
X17096910Y-5934960I-85090J0D01*
G01*
X17096910Y-5934960D02*
G75*
G02*
X17267090Y-5934960I85090J0D01*
G01*
X17267090Y-7916160D02*
G75*
G02*
X17096910Y-7916160I-85090J0D01*
G01*
X17096910Y-7916160D02*
G75*
G02*
X17267090Y-7916160I85090J0D01*
G01*
X17267090Y-9897360D02*
G75*
G02*
X17096910Y-9897360I-85090J0D01*
G01*
X17096910Y-9897360D02*
G75*
G02*
X17267090Y-9897360I85090J0D01*
G01*
X17995608Y-12313752D02*
G75*
G02*
X17825428Y-12313752I-85090J0D01*
G01*
X17825428Y-12313752D02*
G75*
G02*
X17995608Y-12313752I85090J0D01*
G01*
X18283090Y-5934960D02*
G75*
G02*
X18112910Y-5934960I-85090J0D01*
G01*
X18112910Y-5934960D02*
G75*
G02*
X18283090Y-5934960I85090J0D01*
G01*
X18283090Y-7916160D02*
G75*
G02*
X18112910Y-7916160I-85090J0D01*
G01*
X18112910Y-7916160D02*
G75*
G02*
X18283090Y-7916160I85090J0D01*
G01*
X18283090Y-9897360D02*
G75*
G02*
X18112910Y-9897360I-85090J0D01*
G01*
X18112910Y-9897360D02*
G75*
G02*
X18283090Y-9897360I85090J0D01*
G01*
X18961882Y-11999791D02*
G75*
G02*
X18791702Y-11999791I-85090J0D01*
G01*
X18791702Y-11999791D02*
G75*
G02*
X18961882Y-11999791I85090J0D01*
G01*
X19243090Y-5538720D02*
G75*
G02*
X19072910Y-5538720I-85090J0D01*
G01*
X19072910Y-5538720D02*
G75*
G02*
X19243090Y-5538720I85090J0D01*
G01*
X19243090Y-7519920D02*
G75*
G02*
X19072910Y-7519920I-85090J0D01*
G01*
X19072910Y-7519920D02*
G75*
G02*
X19243090Y-7519920I85090J0D01*
G01*
X19243090Y-9501120D02*
G75*
G02*
X19072910Y-9501120I-85090J0D01*
G01*
X19072910Y-9501120D02*
G75*
G02*
X19243090Y-9501120I85090J0D01*
G01*
X20193090Y-11782320D02*
G75*
G02*
X20022910Y-11782320I-85090J0D01*
G01*
X20022910Y-11782320D02*
G75*
G02*
X20193090Y-11782320I85090J0D01*
G01*
X20259090Y-5538720D02*
G75*
G02*
X20088910Y-5538720I-85090J0D01*
G01*
X20088910Y-5538720D02*
G75*
G02*
X20259090Y-5538720I85090J0D01*
G01*
X20259090Y-7519920D02*
G75*
G02*
X20088910Y-7519920I-85090J0D01*
G01*
X20088910Y-7519920D02*
G75*
G02*
X20259090Y-7519920I85090J0D01*
G01*
X20259090Y-9501120D02*
G75*
G02*
X20088910Y-9501120I-85090J0D01*
G01*
X20088910Y-9501120D02*
G75*
G02*
X20259090Y-9501120I85090J0D01*
G01*
X21209090Y-11782320D02*
G75*
G02*
X21038910Y-11782320I-85090J0D01*
G01*
X21038910Y-11782320D02*
G75*
G02*
X21209090Y-11782320I85090J0D01*
G01*
X21219090Y-4350000D02*
G75*
G02*
X21048910Y-4350000I-85090J0D01*
G01*
X21048910Y-4350000D02*
G75*
G02*
X21219090Y-4350000I85090J0D01*
G01*
X21219090Y-6331200D02*
G75*
G02*
X21048910Y-6331200I-85090J0D01*
G01*
X21048910Y-6331200D02*
G75*
G02*
X21219090Y-6331200I85090J0D01*
G01*
X21219090Y-8312400D02*
G75*
G02*
X21048910Y-8312400I-85090J0D01*
G01*
X21048910Y-8312400D02*
G75*
G02*
X21219090Y-8312400I85090J0D01*
G01*
X22235090Y-4350000D02*
G75*
G02*
X22064910Y-4350000I-85090J0D01*
G01*
X22064910Y-4350000D02*
G75*
G02*
X22235090Y-4350000I85090J0D01*
G01*
X22235090Y-6331200D02*
G75*
G02*
X22064910Y-6331200I-85090J0D01*
G01*
X22064910Y-6331200D02*
G75*
G02*
X22235090Y-6331200I85090J0D01*
G01*
X22235090Y-8312400D02*
G75*
G02*
X22064910Y-8312400I-85090J0D01*
G01*
X22064910Y-8312400D02*
G75*
G02*
X22235090Y-8312400I85090J0D01*
G01*
X23195090Y-4944360D02*
G75*
G02*
X23024910Y-4944360I-85090J0D01*
G01*
X23024910Y-4944360D02*
G75*
G02*
X23195090Y-4944360I85090J0D01*
G01*
X23195090Y-6925560D02*
G75*
G02*
X23024910Y-6925560I-85090J0D01*
G01*
X23024910Y-6925560D02*
G75*
G02*
X23195090Y-6925560I85090J0D01*
G01*
X23195090Y-8906760D02*
G75*
G02*
X23024910Y-8906760I-85090J0D01*
G01*
X23024910Y-8906760D02*
G75*
G02*
X23195090Y-8906760I85090J0D01*
G01*
X24211090Y-4944360D02*
G75*
G02*
X24040910Y-4944360I-85090J0D01*
G01*
X24040910Y-4944360D02*
G75*
G02*
X24211090Y-4944360I85090J0D01*
G01*
X24211090Y-6925560D02*
G75*
G02*
X24040910Y-6925560I-85090J0D01*
G01*
X24040910Y-6925560D02*
G75*
G02*
X24211090Y-6925560I85090J0D01*
G01*
X24211090Y-8906760D02*
G75*
G02*
X24040910Y-8906760I-85090J0D01*
G01*
X24040910Y-8906760D02*
G75*
G02*
X24211090Y-8906760I85090J0D01*
G01*
X25171090Y-6925560D02*
G75*
G02*
X25000910Y-6925560I-85090J0D01*
G01*
X25000910Y-6925560D02*
G75*
G02*
X25171090Y-6925560I85090J0D01*
G01*
X25171090Y-8906760D02*
G75*
G02*
X25000910Y-8906760I-85090J0D01*
G01*
X25000910Y-8906760D02*
G75*
G02*
X25171090Y-8906760I85090J0D01*
G01*
X25171090Y-10887960D02*
G75*
G02*
X25000910Y-10887960I-85090J0D01*
G01*
X25000910Y-10887960D02*
G75*
G02*
X25171090Y-10887960I85090J0D01*
G01*
X26187090Y-6925560D02*
G75*
G02*
X26016910Y-6925560I-85090J0D01*
G01*
X26016910Y-6925560D02*
G75*
G02*
X26187090Y-6925560I85090J0D01*
G01*
X26187090Y-8906760D02*
G75*
G02*
X26016910Y-8906760I-85090J0D01*
G01*
X26016910Y-8906760D02*
G75*
G02*
X26187090Y-8906760I85090J0D01*
G01*
X26187090Y-10887960D02*
G75*
G02*
X26016910Y-10887960I-85090J0D01*
G01*
X26016910Y-10887960D02*
G75*
G02*
X26187090Y-10887960I85090J0D01*
G01*
D15*
X3492226Y-6521560D02*
X3492226Y-6821560D01*
X3342226Y-6671560D02*
X3642226Y-6671560D01*
X3492226Y-8502760D02*
X3492226Y-8802760D01*
X3342226Y-8652760D02*
X3642226Y-8652760D01*
X3492226Y-10483960D02*
X3492226Y-10783960D01*
X3342226Y-10633960D02*
X3642226Y-10633960D01*
X4127226Y-6267560D02*
X4127226Y-6567560D01*
X3977226Y-6417560D02*
X4277226Y-6417560D01*
X4127226Y-8248760D02*
X4127226Y-8548760D01*
X3977226Y-8398760D02*
X4277226Y-8398760D01*
X4127226Y-10229960D02*
X4127226Y-10529960D01*
X3977226Y-10379960D02*
X4277226Y-10379960D01*
X5468226Y-4540360D02*
X5468226Y-4840360D01*
X5318226Y-4690360D02*
X5618226Y-4690360D01*
X5468226Y-6521560D02*
X5468226Y-6821560D01*
X5318226Y-6671560D02*
X5618226Y-6671560D01*
X5468226Y-8502760D02*
X5468226Y-8802760D01*
X5318226Y-8652760D02*
X5618226Y-8652760D01*
X6103226Y-4286360D02*
X6103226Y-4586360D01*
X5953226Y-4436360D02*
X6253226Y-4436360D01*
X6103226Y-6267560D02*
X6103226Y-6567560D01*
X5953226Y-6417560D02*
X6253226Y-6417560D01*
X6103226Y-8248760D02*
X6103226Y-8548760D01*
X5953226Y-8398760D02*
X6253226Y-8398760D01*
X7444226Y-3946000D02*
X7444226Y-4246000D01*
X7294226Y-4096000D02*
X7594226Y-4096000D01*
X7444226Y-5927200D02*
X7444226Y-6227200D01*
X7294226Y-6077200D02*
X7594226Y-6077200D01*
X7444226Y-7908400D02*
X7444226Y-8208400D01*
X7294226Y-8058400D02*
X7594226Y-8058400D01*
X8079226Y-3692000D02*
X8079226Y-3992000D01*
X7929226Y-3842000D02*
X8229226Y-3842000D01*
X8079226Y-5673200D02*
X8079226Y-5973200D01*
X7929226Y-5823200D02*
X8229226Y-5823200D01*
X8079226Y-7654400D02*
X8079226Y-7954400D01*
X7929226Y-7804400D02*
X8229226Y-7804400D01*
X8470226Y-11378320D02*
X8470226Y-11678320D01*
X8320226Y-11528320D02*
X8620226Y-11528320D01*
X9105226Y-11124320D02*
X9105226Y-11424320D01*
X8955226Y-11274320D02*
X9255226Y-11274320D01*
X9420226Y-5134720D02*
X9420226Y-5434720D01*
X9270226Y-5284720D02*
X9570226Y-5284720D01*
X9420226Y-7115920D02*
X9420226Y-7415920D01*
X9270226Y-7265920D02*
X9570226Y-7265920D01*
X9420226Y-9097120D02*
X9420226Y-9397120D01*
X9270226Y-9247120D02*
X9570226Y-9247120D01*
X10055226Y-4880720D02*
X10055226Y-5180720D01*
X9905226Y-5030720D02*
X10205226Y-5030720D01*
X10055226Y-6861920D02*
X10055226Y-7161920D01*
X9905226Y-7011920D02*
X10205226Y-7011920D01*
X10055226Y-8843120D02*
X10055226Y-9143120D01*
X9905226Y-8993120D02*
X10205226Y-8993120D01*
X10789709Y-11647468D02*
X10789709Y-11947468D01*
X10639709Y-11797468D02*
X10939709Y-11797468D01*
X11396226Y-5530960D02*
X11396226Y-5830960D01*
X11246226Y-5680960D02*
X11546226Y-5680960D01*
X11396226Y-7512160D02*
X11396226Y-7812160D01*
X11246226Y-7662160D02*
X11546226Y-7662160D01*
X11396226Y-9493360D02*
X11396226Y-9793360D01*
X11246226Y-9643360D02*
X11546226Y-9643360D01*
X11472120Y-11602125D02*
X11472120Y-11902125D01*
X11322120Y-11752125D02*
X11622120Y-11752125D01*
X12031226Y-5276960D02*
X12031226Y-5576960D01*
X11881226Y-5426960D02*
X12181226Y-5426960D01*
X12031226Y-7258160D02*
X12031226Y-7558160D01*
X11881226Y-7408160D02*
X12181226Y-7408160D01*
X12031226Y-9239360D02*
X12031226Y-9539360D01*
X11881226Y-9389360D02*
X12181226Y-9389360D01*
X12959675Y-12607336D02*
X12959675Y-12907336D01*
X12809675Y-12757336D02*
X13109675Y-12757336D01*
X13622698Y-12775089D02*
X13622698Y-13075089D01*
X13472698Y-12925089D02*
X13772698Y-12925089D01*
X15891080Y-13055228D02*
X15891080Y-13355228D01*
X15741080Y-13205228D02*
X16041080Y-13205228D01*
X16255508Y-12476494D02*
X16255508Y-12776494D01*
X16105508Y-12626494D02*
X16405508Y-12626494D01*
X17309000Y-5530960D02*
X17309000Y-5830960D01*
X17159000Y-5680960D02*
X17459000Y-5680960D01*
X17309000Y-7512160D02*
X17309000Y-7812160D01*
X17159000Y-7662160D02*
X17459000Y-7662160D01*
X17309000Y-9493360D02*
X17309000Y-9793360D01*
X17159000Y-9643360D02*
X17459000Y-9643360D01*
X17944000Y-5276960D02*
X17944000Y-5576960D01*
X17794000Y-5426960D02*
X18094000Y-5426960D01*
X17944000Y-7258160D02*
X17944000Y-7558160D01*
X17794000Y-7408160D02*
X18094000Y-7408160D01*
X17944000Y-9239360D02*
X17944000Y-9539360D01*
X17794000Y-9389360D02*
X18094000Y-9389360D01*
X17952812Y-11882939D02*
X17952812Y-12182939D01*
X17802812Y-12032939D02*
X18102812Y-12032939D01*
X18478243Y-11445145D02*
X18478243Y-11745145D01*
X18328243Y-11595145D02*
X18628243Y-11595145D01*
X19285000Y-5134720D02*
X19285000Y-5434720D01*
X19135000Y-5284720D02*
X19435000Y-5284720D01*
X19285000Y-7115920D02*
X19285000Y-7415920D01*
X19135000Y-7265920D02*
X19435000Y-7265920D01*
X19285000Y-9097120D02*
X19285000Y-9397120D01*
X19135000Y-9247120D02*
X19435000Y-9247120D01*
X19920000Y-4880720D02*
X19920000Y-5180720D01*
X19770000Y-5030720D02*
X20070000Y-5030720D01*
X19920000Y-6861920D02*
X19920000Y-7161920D01*
X19770000Y-7011920D02*
X20070000Y-7011920D01*
X19920000Y-8843120D02*
X19920000Y-9143120D01*
X19770000Y-8993120D02*
X20070000Y-8993120D01*
X20235000Y-11378320D02*
X20235000Y-11678320D01*
X20085000Y-11528320D02*
X20385000Y-11528320D01*
X20870000Y-11124320D02*
X20870000Y-11424320D01*
X20720000Y-11274320D02*
X21020000Y-11274320D01*
X21261000Y-3946000D02*
X21261000Y-4246000D01*
X21111000Y-4096000D02*
X21411000Y-4096000D01*
X21261000Y-5927200D02*
X21261000Y-6227200D01*
X21111000Y-6077200D02*
X21411000Y-6077200D01*
X21261000Y-7908400D02*
X21261000Y-8208400D01*
X21111000Y-8058400D02*
X21411000Y-8058400D01*
X21896000Y-3692000D02*
X21896000Y-3992000D01*
X21746000Y-3842000D02*
X22046000Y-3842000D01*
X21896000Y-5673200D02*
X21896000Y-5973200D01*
X21746000Y-5823200D02*
X22046000Y-5823200D01*
X21896000Y-7654400D02*
X21896000Y-7954400D01*
X21746000Y-7804400D02*
X22046000Y-7804400D01*
X23237000Y-4540360D02*
X23237000Y-4840360D01*
X23087000Y-4690360D02*
X23387000Y-4690360D01*
X23237000Y-6521560D02*
X23237000Y-6821560D01*
X23087000Y-6671560D02*
X23387000Y-6671560D01*
X23237000Y-8502760D02*
X23237000Y-8802760D01*
X23087000Y-8652760D02*
X23387000Y-8652760D01*
X23872000Y-4286360D02*
X23872000Y-4586360D01*
X23722000Y-4436360D02*
X24022000Y-4436360D01*
X23872000Y-6267560D02*
X23872000Y-6567560D01*
X23722000Y-6417560D02*
X24022000Y-6417560D01*
X23872000Y-8248760D02*
X23872000Y-8548760D01*
X23722000Y-8398760D02*
X24022000Y-8398760D01*
X25213000Y-6521560D02*
X25213000Y-6821560D01*
X25063000Y-6671560D02*
X25363000Y-6671560D01*
X25213000Y-8502760D02*
X25213000Y-8802760D01*
X25063000Y-8652760D02*
X25363000Y-8652760D01*
X25213000Y-10483960D02*
X25213000Y-10783960D01*
X25063000Y-10633960D02*
X25363000Y-10633960D01*
X25848000Y-6267560D02*
X25848000Y-6567560D01*
X25698000Y-6417560D02*
X25998000Y-6417560D01*
X25848000Y-8248760D02*
X25848000Y-8548760D01*
X25698000Y-8398760D02*
X25998000Y-8398760D01*
X25848000Y-10229960D02*
X25848000Y-10529960D01*
X25698000Y-10379960D02*
X25998000Y-10379960D01*
D16*
X4014217Y-7066551D02*
X4014217Y-6784569D01*
X3732234Y-6784569D01*
X3732234Y-7066551D01*
X4014217Y-7066551D01*
X4014217Y-9047751D02*
X4014217Y-8765769D01*
X3732234Y-8765769D01*
X3732234Y-9047751D01*
X4014217Y-9047751D01*
X4014217Y-11028951D02*
X4014217Y-10746969D01*
X3732234Y-10746969D01*
X3732234Y-11028951D01*
X4014217Y-11028951D01*
X5990217Y-5085351D02*
X5990217Y-4803369D01*
X5708234Y-4803369D01*
X5708234Y-5085351D01*
X5990217Y-5085351D01*
X5990217Y-7066551D02*
X5990217Y-6784569D01*
X5708234Y-6784569D01*
X5708234Y-7066551D01*
X5990217Y-7066551D01*
X5990217Y-9047751D02*
X5990217Y-8765769D01*
X5708234Y-8765769D01*
X5708234Y-9047751D01*
X5990217Y-9047751D01*
X7966217Y-4490991D02*
X7966217Y-4209009D01*
X7684234Y-4209009D01*
X7684234Y-4490991D01*
X7966217Y-4490991D01*
X7966217Y-6472191D02*
X7966217Y-6190209D01*
X7684234Y-6190209D01*
X7684234Y-6472191D01*
X7966217Y-6472191D01*
X7966217Y-8453391D02*
X7966217Y-8171409D01*
X7684234Y-8171409D01*
X7684234Y-8453391D01*
X7966217Y-8453391D01*
X8992217Y-11923311D02*
X8992217Y-11641329D01*
X8710234Y-11641329D01*
X8710234Y-11923311D01*
X8992217Y-11923311D01*
X9942217Y-5679711D02*
X9942217Y-5397729D01*
X9660234Y-5397729D01*
X9660234Y-5679711D01*
X9942217Y-5679711D01*
X9942217Y-7660911D02*
X9942217Y-7378929D01*
X9660234Y-7378929D01*
X9660234Y-7660911D01*
X9942217Y-7660911D01*
X9942217Y-9642111D02*
X9942217Y-9360129D01*
X9660234Y-9360129D01*
X9660234Y-9642111D01*
X9942217Y-9642111D01*
X11214562Y-12297763D02*
X11214562Y-12015780D01*
X10932579Y-12015780D01*
X10932579Y-12297763D01*
X11214562Y-12297763D01*
X11918217Y-6075951D02*
X11918217Y-5793969D01*
X11636234Y-5793969D01*
X11636234Y-6075951D01*
X11918217Y-6075951D01*
X11918217Y-8057151D02*
X11918217Y-7775169D01*
X11636234Y-7775169D01*
X11636234Y-8057151D01*
X11918217Y-8057151D01*
X11918217Y-10038351D02*
X11918217Y-9756369D01*
X11636234Y-9756369D01*
X11636234Y-10038351D01*
X11918217Y-10038351D01*
X13259604Y-13327764D02*
X13259604Y-13045781D01*
X12977621Y-13045781D01*
X12977621Y-13327764D01*
X13259604Y-13327764D01*
X16489604Y-13327764D02*
X16489604Y-13045781D01*
X16207621Y-13045781D01*
X16207621Y-13327764D01*
X16489604Y-13327764D01*
X17830991Y-6075951D02*
X17830991Y-5793969D01*
X17549009Y-5793969D01*
X17549009Y-6075951D01*
X17830991Y-6075951D01*
X17830991Y-8057151D02*
X17830991Y-7775169D01*
X17549009Y-7775169D01*
X17549009Y-8057151D01*
X17830991Y-8057151D01*
X17830991Y-10038351D02*
X17830991Y-9756369D01*
X17549009Y-9756369D01*
X17549009Y-10038351D01*
X17830991Y-10038351D01*
X18534646Y-12297763D02*
X18534646Y-12015780D01*
X18252664Y-12015780D01*
X18252664Y-12297763D01*
X18534646Y-12297763D01*
X19806991Y-5679711D02*
X19806991Y-5397729D01*
X19525009Y-5397729D01*
X19525009Y-5679711D01*
X19806991Y-5679711D01*
X19806991Y-7660911D02*
X19806991Y-7378929D01*
X19525009Y-7378929D01*
X19525009Y-7660911D01*
X19806991Y-7660911D01*
X19806991Y-9642111D02*
X19806991Y-9360129D01*
X19525009Y-9360129D01*
X19525009Y-9642111D01*
X19806991Y-9642111D01*
X20756991Y-11923311D02*
X20756991Y-11641329D01*
X20475009Y-11641329D01*
X20475009Y-11923311D01*
X20756991Y-11923311D01*
X21782991Y-4490991D02*
X21782991Y-4209009D01*
X21501009Y-4209009D01*
X21501009Y-4490991D01*
X21782991Y-4490991D01*
X21782991Y-6472191D02*
X21782991Y-6190209D01*
X21501009Y-6190209D01*
X21501009Y-6472191D01*
X21782991Y-6472191D01*
X21782991Y-8453391D02*
X21782991Y-8171409D01*
X21501009Y-8171409D01*
X21501009Y-8453391D01*
X21782991Y-8453391D01*
X23758991Y-5085351D02*
X23758991Y-4803369D01*
X23477009Y-4803369D01*
X23477009Y-5085351D01*
X23758991Y-5085351D01*
X23758991Y-7066551D02*
X23758991Y-6784569D01*
X23477009Y-6784569D01*
X23477009Y-7066551D01*
X23758991Y-7066551D01*
X23758991Y-9047751D02*
X23758991Y-8765769D01*
X23477009Y-8765769D01*
X23477009Y-9047751D01*
X23758991Y-9047751D01*
X25734991Y-7066551D02*
X25734991Y-6784569D01*
X25453009Y-6784569D01*
X25453009Y-7066551D01*
X25734991Y-7066551D01*
X25734991Y-9047751D02*
X25734991Y-8765769D01*
X25453009Y-8765769D01*
X25453009Y-9047751D01*
X25734991Y-9047751D01*
X25734991Y-11028951D02*
X25734991Y-10746969D01*
X25453009Y-10746969D01*
X25453009Y-11028951D01*
X25734991Y-11028951D01*
D12*
X3088502Y-14917290D02*
X3088502Y-14717290D01*
X3088502Y-14717290D02*
X3136121Y-14717290D01*
X3136121Y-14717290D02*
X3164693Y-14726813D01*
X3164693Y-14726813D02*
X3183741Y-14745861D01*
X3183741Y-14745861D02*
X3193264Y-14764909D01*
X3193264Y-14764909D02*
X3202788Y-14803004D01*
X3202788Y-14803004D02*
X3202788Y-14831575D01*
X3202788Y-14831575D02*
X3193264Y-14869671D01*
X3193264Y-14869671D02*
X3183741Y-14888718D01*
X3183741Y-14888718D02*
X3164693Y-14907766D01*
X3164693Y-14907766D02*
X3136121Y-14917290D01*
X3136121Y-14917290D02*
X3088502Y-14917290D01*
X3288502Y-14917290D02*
X3288502Y-14783956D01*
X3288502Y-14822052D02*
X3298026Y-14803004D01*
X3298026Y-14803004D02*
X3307550Y-14793480D01*
X3307550Y-14793480D02*
X3326598Y-14783956D01*
X3326598Y-14783956D02*
X3345645Y-14783956D01*
X3412312Y-14917290D02*
X3412312Y-14783956D01*
X3412312Y-14717290D02*
X3402788Y-14726813D01*
X3402788Y-14726813D02*
X3412312Y-14736337D01*
X3412312Y-14736337D02*
X3421836Y-14726813D01*
X3421836Y-14726813D02*
X3412312Y-14717290D01*
X3412312Y-14717290D02*
X3412312Y-14736337D01*
X3536121Y-14917290D02*
X3517074Y-14907766D01*
X3517074Y-14907766D02*
X3507550Y-14888718D01*
X3507550Y-14888718D02*
X3507550Y-14717290D01*
X3640883Y-14917290D02*
X3621836Y-14907766D01*
X3621836Y-14907766D02*
X3612312Y-14888718D01*
X3612312Y-14888718D02*
X3612312Y-14717290D01*
X3869455Y-14917290D02*
X3869455Y-14717290D01*
X3869455Y-14717290D02*
X3936122Y-14860147D01*
X3936122Y-14860147D02*
X4002788Y-14717290D01*
X4002788Y-14717290D02*
X4002788Y-14917290D01*
X4183741Y-14917290D02*
X4183741Y-14812528D01*
X4183741Y-14812528D02*
X4174217Y-14793480D01*
X4174217Y-14793480D02*
X4155169Y-14783956D01*
X4155169Y-14783956D02*
X4117074Y-14783956D01*
X4117074Y-14783956D02*
X4098026Y-14793480D01*
X4183741Y-14907766D02*
X4164693Y-14917290D01*
X4164693Y-14917290D02*
X4117074Y-14917290D01*
X4117074Y-14917290D02*
X4098026Y-14907766D01*
X4098026Y-14907766D02*
X4088502Y-14888718D01*
X4088502Y-14888718D02*
X4088502Y-14869671D01*
X4088502Y-14869671D02*
X4098026Y-14850623D01*
X4098026Y-14850623D02*
X4117074Y-14841099D01*
X4117074Y-14841099D02*
X4164693Y-14841099D01*
X4164693Y-14841099D02*
X4183741Y-14831575D01*
X4278979Y-14783956D02*
X4278979Y-14983956D01*
X4278979Y-14793480D02*
X4298026Y-14783956D01*
X4298026Y-14783956D02*
X4336122Y-14783956D01*
X4336122Y-14783956D02*
X4355169Y-14793480D01*
X4355169Y-14793480D02*
X4364693Y-14803004D01*
X4364693Y-14803004D02*
X4374217Y-14822052D01*
X4374217Y-14822052D02*
X4374217Y-14879194D01*
X4374217Y-14879194D02*
X4364693Y-14898242D01*
X4364693Y-14898242D02*
X4355169Y-14907766D01*
X4355169Y-14907766D02*
X4336122Y-14917290D01*
X4336122Y-14917290D02*
X4298026Y-14917290D01*
X4298026Y-14917290D02*
X4278979Y-14907766D01*
X4459931Y-14898242D02*
X4469455Y-14907766D01*
X4469455Y-14907766D02*
X4459931Y-14917290D01*
X4459931Y-14917290D02*
X4450407Y-14907766D01*
X4450407Y-14907766D02*
X4459931Y-14898242D01*
X4459931Y-14898242D02*
X4459931Y-14917290D01*
X4459931Y-14793480D02*
X4469455Y-14803004D01*
X4469455Y-14803004D02*
X4459931Y-14812528D01*
X4459931Y-14812528D02*
X4450407Y-14803004D01*
X4450407Y-14803004D02*
X4459931Y-14793480D01*
X4459931Y-14793480D02*
X4459931Y-14812528D01*
D13*
X2737726Y-15200806D02*
X2827726Y-15290806D01*
X2827726Y-15200806D02*
X2737726Y-15290806D01*
D12*
X3126598Y-15137290D02*
X3145645Y-15137290D01*
X3145645Y-15137290D02*
X3164693Y-15146813D01*
X3164693Y-15146813D02*
X3174217Y-15156337D01*
X3174217Y-15156337D02*
X3183741Y-15175385D01*
X3183741Y-15175385D02*
X3193264Y-15213480D01*
X3193264Y-15213480D02*
X3193264Y-15261099D01*
X3193264Y-15261099D02*
X3183741Y-15299194D01*
X3183741Y-15299194D02*
X3174217Y-15318242D01*
X3174217Y-15318242D02*
X3164693Y-15327766D01*
X3164693Y-15327766D02*
X3145645Y-15337290D01*
X3145645Y-15337290D02*
X3126598Y-15337290D01*
X3126598Y-15337290D02*
X3107550Y-15327766D01*
X3107550Y-15327766D02*
X3098026Y-15318242D01*
X3098026Y-15318242D02*
X3088502Y-15299194D01*
X3088502Y-15299194D02*
X3078979Y-15261099D01*
X3078979Y-15261099D02*
X3078979Y-15213480D01*
X3078979Y-15213480D02*
X3088502Y-15175385D01*
X3088502Y-15175385D02*
X3098026Y-15156337D01*
X3098026Y-15156337D02*
X3107550Y-15146813D01*
X3107550Y-15146813D02*
X3126598Y-15137290D01*
X3278979Y-15318242D02*
X3288502Y-15327766D01*
X3288502Y-15327766D02*
X3278979Y-15337290D01*
X3278979Y-15337290D02*
X3269455Y-15327766D01*
X3269455Y-15327766D02*
X3278979Y-15318242D01*
X3278979Y-15318242D02*
X3278979Y-15337290D01*
X3383741Y-15337290D02*
X3421836Y-15337290D01*
X3421836Y-15337290D02*
X3440883Y-15327766D01*
X3440883Y-15327766D02*
X3450407Y-15318242D01*
X3450407Y-15318242D02*
X3469455Y-15289671D01*
X3469455Y-15289671D02*
X3478979Y-15251575D01*
X3478979Y-15251575D02*
X3478979Y-15175385D01*
X3478979Y-15175385D02*
X3469455Y-15156337D01*
X3469455Y-15156337D02*
X3459931Y-15146813D01*
X3459931Y-15146813D02*
X3440883Y-15137290D01*
X3440883Y-15137290D02*
X3402788Y-15137290D01*
X3402788Y-15137290D02*
X3383741Y-15146813D01*
X3383741Y-15146813D02*
X3374217Y-15156337D01*
X3374217Y-15156337D02*
X3364693Y-15175385D01*
X3364693Y-15175385D02*
X3364693Y-15223004D01*
X3364693Y-15223004D02*
X3374217Y-15242052D01*
X3374217Y-15242052D02*
X3383741Y-15251575D01*
X3383741Y-15251575D02*
X3402788Y-15261099D01*
X3402788Y-15261099D02*
X3440883Y-15261099D01*
X3440883Y-15261099D02*
X3459931Y-15251575D01*
X3459931Y-15251575D02*
X3469455Y-15242052D01*
X3469455Y-15242052D02*
X3478979Y-15223004D01*
X3602788Y-15137290D02*
X3621836Y-15137290D01*
X3621836Y-15137290D02*
X3640883Y-15146813D01*
X3640883Y-15146813D02*
X3650407Y-15156337D01*
X3650407Y-15156337D02*
X3659931Y-15175385D01*
X3659931Y-15175385D02*
X3669455Y-15213480D01*
X3669455Y-15213480D02*
X3669455Y-15261099D01*
X3669455Y-15261099D02*
X3659931Y-15299194D01*
X3659931Y-15299194D02*
X3650407Y-15318242D01*
X3650407Y-15318242D02*
X3640883Y-15327766D01*
X3640883Y-15327766D02*
X3621836Y-15337290D01*
X3621836Y-15337290D02*
X3602788Y-15337290D01*
X3602788Y-15337290D02*
X3583741Y-15327766D01*
X3583741Y-15327766D02*
X3574217Y-15318242D01*
X3574217Y-15318242D02*
X3564693Y-15299194D01*
X3564693Y-15299194D02*
X3555169Y-15261099D01*
X3555169Y-15261099D02*
X3555169Y-15213480D01*
X3555169Y-15213480D02*
X3564693Y-15175385D01*
X3564693Y-15175385D02*
X3574217Y-15156337D01*
X3574217Y-15156337D02*
X3583741Y-15146813D01*
X3583741Y-15146813D02*
X3602788Y-15137290D01*
X3793264Y-15137290D02*
X3812312Y-15137290D01*
X3812312Y-15137290D02*
X3831360Y-15146813D01*
X3831360Y-15146813D02*
X3840883Y-15156337D01*
X3840883Y-15156337D02*
X3850407Y-15175385D01*
X3850407Y-15175385D02*
X3859931Y-15213480D01*
X3859931Y-15213480D02*
X3859931Y-15261099D01*
X3859931Y-15261099D02*
X3850407Y-15299194D01*
X3850407Y-15299194D02*
X3840883Y-15318242D01*
X3840883Y-15318242D02*
X3831360Y-15327766D01*
X3831360Y-15327766D02*
X3812312Y-15337290D01*
X3812312Y-15337290D02*
X3793264Y-15337290D01*
X3793264Y-15337290D02*
X3774217Y-15327766D01*
X3774217Y-15327766D02*
X3764693Y-15318242D01*
X3764693Y-15318242D02*
X3755169Y-15299194D01*
X3755169Y-15299194D02*
X3745645Y-15261099D01*
X3745645Y-15261099D02*
X3745645Y-15213480D01*
X3745645Y-15213480D02*
X3755169Y-15175385D01*
X3755169Y-15175385D02*
X3764693Y-15156337D01*
X3764693Y-15156337D02*
X3774217Y-15146813D01*
X3774217Y-15146813D02*
X3793264Y-15137290D01*
X3945645Y-15337290D02*
X3945645Y-15203956D01*
X3945645Y-15223004D02*
X3955169Y-15213480D01*
X3955169Y-15213480D02*
X3974217Y-15203956D01*
X3974217Y-15203956D02*
X4002788Y-15203956D01*
X4002788Y-15203956D02*
X4021836Y-15213480D01*
X4021836Y-15213480D02*
X4031360Y-15232528D01*
X4031360Y-15232528D02*
X4031360Y-15337290D01*
X4031360Y-15232528D02*
X4040883Y-15213480D01*
X4040883Y-15213480D02*
X4059931Y-15203956D01*
X4059931Y-15203956D02*
X4088502Y-15203956D01*
X4088502Y-15203956D02*
X4107550Y-15213480D01*
X4107550Y-15213480D02*
X4117074Y-15232528D01*
X4117074Y-15232528D02*
X4117074Y-15337290D01*
X4212312Y-15337290D02*
X4212312Y-15203956D01*
X4212312Y-15223004D02*
X4221836Y-15213480D01*
X4221836Y-15213480D02*
X4240884Y-15203956D01*
X4240884Y-15203956D02*
X4269455Y-15203956D01*
X4269455Y-15203956D02*
X4288503Y-15213480D01*
X4288503Y-15213480D02*
X4298026Y-15232528D01*
X4298026Y-15232528D02*
X4298026Y-15337290D01*
X4298026Y-15232528D02*
X4307550Y-15213480D01*
X4307550Y-15213480D02*
X4326598Y-15203956D01*
X4326598Y-15203956D02*
X4355169Y-15203956D01*
X4355169Y-15203956D02*
X4374217Y-15213480D01*
X4374217Y-15213480D02*
X4383741Y-15232528D01*
X4383741Y-15232528D02*
X4383741Y-15337290D01*
X4774217Y-15127766D02*
X4602788Y-15384909D01*
X5031360Y-15137290D02*
X5050408Y-15137290D01*
X5050408Y-15137290D02*
X5069455Y-15146813D01*
X5069455Y-15146813D02*
X5078979Y-15156337D01*
X5078979Y-15156337D02*
X5088503Y-15175385D01*
X5088503Y-15175385D02*
X5098027Y-15213480D01*
X5098027Y-15213480D02*
X5098027Y-15261099D01*
X5098027Y-15261099D02*
X5088503Y-15299194D01*
X5088503Y-15299194D02*
X5078979Y-15318242D01*
X5078979Y-15318242D02*
X5069455Y-15327766D01*
X5069455Y-15327766D02*
X5050408Y-15337290D01*
X5050408Y-15337290D02*
X5031360Y-15337290D01*
X5031360Y-15337290D02*
X5012312Y-15327766D01*
X5012312Y-15327766D02*
X5002788Y-15318242D01*
X5002788Y-15318242D02*
X4993265Y-15299194D01*
X4993265Y-15299194D02*
X4983741Y-15261099D01*
X4983741Y-15261099D02*
X4983741Y-15213480D01*
X4983741Y-15213480D02*
X4993265Y-15175385D01*
X4993265Y-15175385D02*
X5002788Y-15156337D01*
X5002788Y-15156337D02*
X5012312Y-15146813D01*
X5012312Y-15146813D02*
X5031360Y-15137290D01*
X5183741Y-15318242D02*
X5193265Y-15327766D01*
X5193265Y-15327766D02*
X5183741Y-15337290D01*
X5183741Y-15337290D02*
X5174217Y-15327766D01*
X5174217Y-15327766D02*
X5183741Y-15318242D01*
X5183741Y-15318242D02*
X5183741Y-15337290D01*
X5317074Y-15137290D02*
X5336122Y-15137290D01*
X5336122Y-15137290D02*
X5355169Y-15146813D01*
X5355169Y-15146813D02*
X5364693Y-15156337D01*
X5364693Y-15156337D02*
X5374217Y-15175385D01*
X5374217Y-15175385D02*
X5383741Y-15213480D01*
X5383741Y-15213480D02*
X5383741Y-15261099D01*
X5383741Y-15261099D02*
X5374217Y-15299194D01*
X5374217Y-15299194D02*
X5364693Y-15318242D01*
X5364693Y-15318242D02*
X5355169Y-15327766D01*
X5355169Y-15327766D02*
X5336122Y-15337290D01*
X5336122Y-15337290D02*
X5317074Y-15337290D01*
X5317074Y-15337290D02*
X5298027Y-15327766D01*
X5298027Y-15327766D02*
X5288503Y-15318242D01*
X5288503Y-15318242D02*
X5278979Y-15299194D01*
X5278979Y-15299194D02*
X5269455Y-15261099D01*
X5269455Y-15261099D02*
X5269455Y-15213480D01*
X5269455Y-15213480D02*
X5278979Y-15175385D01*
X5278979Y-15175385D02*
X5288503Y-15156337D01*
X5288503Y-15156337D02*
X5298027Y-15146813D01*
X5298027Y-15146813D02*
X5317074Y-15137290D01*
X5450408Y-15137290D02*
X5574217Y-15137290D01*
X5574217Y-15137290D02*
X5507550Y-15213480D01*
X5507550Y-15213480D02*
X5536122Y-15213480D01*
X5536122Y-15213480D02*
X5555169Y-15223004D01*
X5555169Y-15223004D02*
X5564693Y-15232528D01*
X5564693Y-15232528D02*
X5574217Y-15251575D01*
X5574217Y-15251575D02*
X5574217Y-15299194D01*
X5574217Y-15299194D02*
X5564693Y-15318242D01*
X5564693Y-15318242D02*
X5555169Y-15327766D01*
X5555169Y-15327766D02*
X5536122Y-15337290D01*
X5536122Y-15337290D02*
X5478979Y-15337290D01*
X5478979Y-15337290D02*
X5459931Y-15327766D01*
X5459931Y-15327766D02*
X5450408Y-15318242D01*
X5755169Y-15137290D02*
X5659931Y-15137290D01*
X5659931Y-15137290D02*
X5650407Y-15232528D01*
X5650407Y-15232528D02*
X5659931Y-15223004D01*
X5659931Y-15223004D02*
X5678979Y-15213480D01*
X5678979Y-15213480D02*
X5726598Y-15213480D01*
X5726598Y-15213480D02*
X5745646Y-15223004D01*
X5745646Y-15223004D02*
X5755169Y-15232528D01*
X5755169Y-15232528D02*
X5764693Y-15251575D01*
X5764693Y-15251575D02*
X5764693Y-15299194D01*
X5764693Y-15299194D02*
X5755169Y-15318242D01*
X5755169Y-15318242D02*
X5745646Y-15327766D01*
X5745646Y-15327766D02*
X5726598Y-15337290D01*
X5726598Y-15337290D02*
X5678979Y-15337290D01*
X5678979Y-15337290D02*
X5659931Y-15327766D01*
X5659931Y-15327766D02*
X5650407Y-15318242D01*
X5936122Y-15203956D02*
X5936122Y-15337290D01*
X5888503Y-15127766D02*
X5840884Y-15270623D01*
X5840884Y-15270623D02*
X5964693Y-15270623D01*
X6031360Y-15137290D02*
X6031360Y-15175385D01*
X6107550Y-15137290D02*
X6107550Y-15175385D01*
X6402789Y-15413480D02*
X6393265Y-15403956D01*
X6393265Y-15403956D02*
X6374217Y-15375385D01*
X6374217Y-15375385D02*
X6364693Y-15356337D01*
X6364693Y-15356337D02*
X6355169Y-15327766D01*
X6355169Y-15327766D02*
X6345646Y-15280147D01*
X6345646Y-15280147D02*
X6345646Y-15242052D01*
X6345646Y-15242052D02*
X6355169Y-15194432D01*
X6355169Y-15194432D02*
X6364693Y-15165861D01*
X6364693Y-15165861D02*
X6374217Y-15146813D01*
X6374217Y-15146813D02*
X6393265Y-15118242D01*
X6393265Y-15118242D02*
X6402789Y-15108718D01*
X6564693Y-15203956D02*
X6564693Y-15337290D01*
X6517074Y-15127766D02*
X6469455Y-15270623D01*
X6469455Y-15270623D02*
X6593265Y-15270623D01*
X6821836Y-15337290D02*
X6821836Y-15137290D01*
X6907550Y-15337290D02*
X6907550Y-15232528D01*
X6907550Y-15232528D02*
X6898027Y-15213480D01*
X6898027Y-15213480D02*
X6878979Y-15203956D01*
X6878979Y-15203956D02*
X6850408Y-15203956D01*
X6850408Y-15203956D02*
X6831360Y-15213480D01*
X6831360Y-15213480D02*
X6821836Y-15223004D01*
X7031360Y-15337290D02*
X7012312Y-15327766D01*
X7012312Y-15327766D02*
X7002789Y-15318242D01*
X7002789Y-15318242D02*
X6993265Y-15299194D01*
X6993265Y-15299194D02*
X6993265Y-15242052D01*
X6993265Y-15242052D02*
X7002789Y-15223004D01*
X7002789Y-15223004D02*
X7012312Y-15213480D01*
X7012312Y-15213480D02*
X7031360Y-15203956D01*
X7031360Y-15203956D02*
X7059931Y-15203956D01*
X7059931Y-15203956D02*
X7078979Y-15213480D01*
X7078979Y-15213480D02*
X7088503Y-15223004D01*
X7088503Y-15223004D02*
X7098027Y-15242052D01*
X7098027Y-15242052D02*
X7098027Y-15299194D01*
X7098027Y-15299194D02*
X7088503Y-15318242D01*
X7088503Y-15318242D02*
X7078979Y-15327766D01*
X7078979Y-15327766D02*
X7059931Y-15337290D01*
X7059931Y-15337290D02*
X7031360Y-15337290D01*
X7212312Y-15337290D02*
X7193265Y-15327766D01*
X7193265Y-15327766D02*
X7183741Y-15308718D01*
X7183741Y-15308718D02*
X7183741Y-15137290D01*
X7364693Y-15327766D02*
X7345646Y-15337290D01*
X7345646Y-15337290D02*
X7307550Y-15337290D01*
X7307550Y-15337290D02*
X7288503Y-15327766D01*
X7288503Y-15327766D02*
X7278979Y-15308718D01*
X7278979Y-15308718D02*
X7278979Y-15232528D01*
X7278979Y-15232528D02*
X7288503Y-15213480D01*
X7288503Y-15213480D02*
X7307550Y-15203956D01*
X7307550Y-15203956D02*
X7345646Y-15203956D01*
X7345646Y-15203956D02*
X7364693Y-15213480D01*
X7364693Y-15213480D02*
X7374217Y-15232528D01*
X7374217Y-15232528D02*
X7374217Y-15251575D01*
X7374217Y-15251575D02*
X7278979Y-15270623D01*
X7450408Y-15327766D02*
X7469455Y-15337290D01*
X7469455Y-15337290D02*
X7507550Y-15337290D01*
X7507550Y-15337290D02*
X7526598Y-15327766D01*
X7526598Y-15327766D02*
X7536122Y-15308718D01*
X7536122Y-15308718D02*
X7536122Y-15299194D01*
X7536122Y-15299194D02*
X7526598Y-15280147D01*
X7526598Y-15280147D02*
X7507550Y-15270623D01*
X7507550Y-15270623D02*
X7478979Y-15270623D01*
X7478979Y-15270623D02*
X7459931Y-15261099D01*
X7459931Y-15261099D02*
X7450408Y-15242052D01*
X7450408Y-15242052D02*
X7450408Y-15232528D01*
X7450408Y-15232528D02*
X7459931Y-15213480D01*
X7459931Y-15213480D02*
X7478979Y-15203956D01*
X7478979Y-15203956D02*
X7507550Y-15203956D01*
X7507550Y-15203956D02*
X7526598Y-15213480D01*
X7602789Y-15413480D02*
X7612312Y-15403956D01*
X7612312Y-15403956D02*
X7631360Y-15375385D01*
X7631360Y-15375385D02*
X7640884Y-15356337D01*
X7640884Y-15356337D02*
X7650408Y-15327766D01*
X7650408Y-15327766D02*
X7659931Y-15280147D01*
X7659931Y-15280147D02*
X7659931Y-15242052D01*
X7659931Y-15242052D02*
X7650408Y-15194432D01*
X7650408Y-15194432D02*
X7640884Y-15165861D01*
X7640884Y-15165861D02*
X7631360Y-15146813D01*
X7631360Y-15146813D02*
X7612312Y-15118242D01*
X7612312Y-15118242D02*
X7602789Y-15108718D01*
X7964693Y-15413480D02*
X7955170Y-15403956D01*
X7955170Y-15403956D02*
X7936122Y-15375385D01*
X7936122Y-15375385D02*
X7926598Y-15356337D01*
X7926598Y-15356337D02*
X7917074Y-15327766D01*
X7917074Y-15327766D02*
X7907551Y-15280147D01*
X7907551Y-15280147D02*
X7907551Y-15242052D01*
X7907551Y-15242052D02*
X7917074Y-15194432D01*
X7917074Y-15194432D02*
X7926598Y-15165861D01*
X7926598Y-15165861D02*
X7936122Y-15146813D01*
X7936122Y-15146813D02*
X7955170Y-15118242D01*
X7955170Y-15118242D02*
X7964693Y-15108718D01*
X8040884Y-15203956D02*
X8040884Y-15337290D01*
X8040884Y-15223004D02*
X8050408Y-15213480D01*
X8050408Y-15213480D02*
X8069455Y-15203956D01*
X8069455Y-15203956D02*
X8098027Y-15203956D01*
X8098027Y-15203956D02*
X8117074Y-15213480D01*
X8117074Y-15213480D02*
X8126598Y-15232528D01*
X8126598Y-15232528D02*
X8126598Y-15337290D01*
X8250408Y-15337290D02*
X8231360Y-15327766D01*
X8231360Y-15327766D02*
X8221836Y-15318242D01*
X8221836Y-15318242D02*
X8212312Y-15299194D01*
X8212312Y-15299194D02*
X8212312Y-15242052D01*
X8212312Y-15242052D02*
X8221836Y-15223004D01*
X8221836Y-15223004D02*
X8231360Y-15213480D01*
X8231360Y-15213480D02*
X8250408Y-15203956D01*
X8250408Y-15203956D02*
X8278979Y-15203956D01*
X8278979Y-15203956D02*
X8298027Y-15213480D01*
X8298027Y-15213480D02*
X8307551Y-15223004D01*
X8307551Y-15223004D02*
X8317074Y-15242052D01*
X8317074Y-15242052D02*
X8317074Y-15299194D01*
X8317074Y-15299194D02*
X8307551Y-15318242D01*
X8307551Y-15318242D02*
X8298027Y-15327766D01*
X8298027Y-15327766D02*
X8278979Y-15337290D01*
X8278979Y-15337290D02*
X8250408Y-15337290D01*
X8374217Y-15203956D02*
X8450408Y-15203956D01*
X8402789Y-15137290D02*
X8402789Y-15308718D01*
X8402789Y-15308718D02*
X8412313Y-15327766D01*
X8412313Y-15327766D02*
X8431360Y-15337290D01*
X8431360Y-15337290D02*
X8450408Y-15337290D01*
X8669455Y-15203956D02*
X8669455Y-15403956D01*
X8669455Y-15213480D02*
X8688503Y-15203956D01*
X8688503Y-15203956D02*
X8726598Y-15203956D01*
X8726598Y-15203956D02*
X8745646Y-15213480D01*
X8745646Y-15213480D02*
X8755170Y-15223004D01*
X8755170Y-15223004D02*
X8764694Y-15242052D01*
X8764694Y-15242052D02*
X8764694Y-15299194D01*
X8764694Y-15299194D02*
X8755170Y-15318242D01*
X8755170Y-15318242D02*
X8745646Y-15327766D01*
X8745646Y-15327766D02*
X8726598Y-15337290D01*
X8726598Y-15337290D02*
X8688503Y-15337290D01*
X8688503Y-15337290D02*
X8669455Y-15327766D01*
X8878979Y-15337290D02*
X8859932Y-15327766D01*
X8859932Y-15327766D02*
X8850408Y-15308718D01*
X8850408Y-15308718D02*
X8850408Y-15137290D01*
X9040884Y-15337290D02*
X9040884Y-15232528D01*
X9040884Y-15232528D02*
X9031360Y-15213480D01*
X9031360Y-15213480D02*
X9012313Y-15203956D01*
X9012313Y-15203956D02*
X8974217Y-15203956D01*
X8974217Y-15203956D02*
X8955170Y-15213480D01*
X9040884Y-15327766D02*
X9021836Y-15337290D01*
X9021836Y-15337290D02*
X8974217Y-15337290D01*
X8974217Y-15337290D02*
X8955170Y-15327766D01*
X8955170Y-15327766D02*
X8945646Y-15308718D01*
X8945646Y-15308718D02*
X8945646Y-15289671D01*
X8945646Y-15289671D02*
X8955170Y-15270623D01*
X8955170Y-15270623D02*
X8974217Y-15261099D01*
X8974217Y-15261099D02*
X9021836Y-15261099D01*
X9021836Y-15261099D02*
X9040884Y-15251575D01*
X9107551Y-15203956D02*
X9183741Y-15203956D01*
X9136122Y-15137290D02*
X9136122Y-15308718D01*
X9136122Y-15308718D02*
X9145646Y-15327766D01*
X9145646Y-15327766D02*
X9164694Y-15337290D01*
X9164694Y-15337290D02*
X9183741Y-15337290D01*
X9326598Y-15327766D02*
X9307551Y-15337290D01*
X9307551Y-15337290D02*
X9269455Y-15337290D01*
X9269455Y-15337290D02*
X9250408Y-15327766D01*
X9250408Y-15327766D02*
X9240884Y-15308718D01*
X9240884Y-15308718D02*
X9240884Y-15232528D01*
X9240884Y-15232528D02*
X9250408Y-15213480D01*
X9250408Y-15213480D02*
X9269455Y-15203956D01*
X9269455Y-15203956D02*
X9307551Y-15203956D01*
X9307551Y-15203956D02*
X9326598Y-15213480D01*
X9326598Y-15213480D02*
X9336122Y-15232528D01*
X9336122Y-15232528D02*
X9336122Y-15251575D01*
X9336122Y-15251575D02*
X9240884Y-15270623D01*
X9507551Y-15337290D02*
X9507551Y-15137290D01*
X9507551Y-15327766D02*
X9488503Y-15337290D01*
X9488503Y-15337290D02*
X9450408Y-15337290D01*
X9450408Y-15337290D02*
X9431360Y-15327766D01*
X9431360Y-15327766D02*
X9421836Y-15318242D01*
X9421836Y-15318242D02*
X9412313Y-15299194D01*
X9412313Y-15299194D02*
X9412313Y-15242052D01*
X9412313Y-15242052D02*
X9421836Y-15223004D01*
X9421836Y-15223004D02*
X9431360Y-15213480D01*
X9431360Y-15213480D02*
X9450408Y-15203956D01*
X9450408Y-15203956D02*
X9488503Y-15203956D01*
X9488503Y-15203956D02*
X9507551Y-15213480D01*
X9583741Y-15413480D02*
X9593265Y-15403956D01*
X9593265Y-15403956D02*
X9612313Y-15375385D01*
X9612313Y-15375385D02*
X9621836Y-15356337D01*
X9621836Y-15356337D02*
X9631360Y-15327766D01*
X9631360Y-15327766D02*
X9640884Y-15280147D01*
X9640884Y-15280147D02*
X9640884Y-15242052D01*
X9640884Y-15242052D02*
X9631360Y-15194432D01*
X9631360Y-15194432D02*
X9621836Y-15165861D01*
X9621836Y-15165861D02*
X9612313Y-15146813D01*
X9612313Y-15146813D02*
X9593265Y-15118242D01*
X9593265Y-15118242D02*
X9583741Y-15108718D01*
D14*
X2827726Y-15509806D02*
G75*
G02*
X2657546Y-15509806I-85090J0D01*
G01*
X2657546Y-15509806D02*
G75*
G02*
X2827726Y-15509806I85090J0D01*
G01*
D12*
X3193264Y-15601290D02*
X3078979Y-15601290D01*
X3136121Y-15601290D02*
X3136121Y-15401290D01*
X3136121Y-15401290D02*
X3117074Y-15429861D01*
X3117074Y-15429861D02*
X3098026Y-15448909D01*
X3098026Y-15448909D02*
X3078979Y-15458432D01*
X3278979Y-15582242D02*
X3288502Y-15591766D01*
X3288502Y-15591766D02*
X3278979Y-15601290D01*
X3278979Y-15601290D02*
X3269455Y-15591766D01*
X3269455Y-15591766D02*
X3278979Y-15582242D01*
X3278979Y-15582242D02*
X3278979Y-15601290D01*
X3355169Y-15401290D02*
X3488502Y-15401290D01*
X3488502Y-15401290D02*
X3402788Y-15601290D01*
X3602788Y-15401290D02*
X3621836Y-15401290D01*
X3621836Y-15401290D02*
X3640883Y-15410813D01*
X3640883Y-15410813D02*
X3650407Y-15420337D01*
X3650407Y-15420337D02*
X3659931Y-15439385D01*
X3659931Y-15439385D02*
X3669455Y-15477480D01*
X3669455Y-15477480D02*
X3669455Y-15525099D01*
X3669455Y-15525099D02*
X3659931Y-15563194D01*
X3659931Y-15563194D02*
X3650407Y-15582242D01*
X3650407Y-15582242D02*
X3640883Y-15591766D01*
X3640883Y-15591766D02*
X3621836Y-15601290D01*
X3621836Y-15601290D02*
X3602788Y-15601290D01*
X3602788Y-15601290D02*
X3583741Y-15591766D01*
X3583741Y-15591766D02*
X3574217Y-15582242D01*
X3574217Y-15582242D02*
X3564693Y-15563194D01*
X3564693Y-15563194D02*
X3555169Y-15525099D01*
X3555169Y-15525099D02*
X3555169Y-15477480D01*
X3555169Y-15477480D02*
X3564693Y-15439385D01*
X3564693Y-15439385D02*
X3574217Y-15420337D01*
X3574217Y-15420337D02*
X3583741Y-15410813D01*
X3583741Y-15410813D02*
X3602788Y-15401290D01*
X3745645Y-15420337D02*
X3755169Y-15410813D01*
X3755169Y-15410813D02*
X3774217Y-15401290D01*
X3774217Y-15401290D02*
X3821836Y-15401290D01*
X3821836Y-15401290D02*
X3840883Y-15410813D01*
X3840883Y-15410813D02*
X3850407Y-15420337D01*
X3850407Y-15420337D02*
X3859931Y-15439385D01*
X3859931Y-15439385D02*
X3859931Y-15458432D01*
X3859931Y-15458432D02*
X3850407Y-15487004D01*
X3850407Y-15487004D02*
X3736122Y-15601290D01*
X3736122Y-15601290D02*
X3859931Y-15601290D01*
X3945645Y-15601290D02*
X3945645Y-15467956D01*
X3945645Y-15487004D02*
X3955169Y-15477480D01*
X3955169Y-15477480D02*
X3974217Y-15467956D01*
X3974217Y-15467956D02*
X4002788Y-15467956D01*
X4002788Y-15467956D02*
X4021836Y-15477480D01*
X4021836Y-15477480D02*
X4031360Y-15496528D01*
X4031360Y-15496528D02*
X4031360Y-15601290D01*
X4031360Y-15496528D02*
X4040883Y-15477480D01*
X4040883Y-15477480D02*
X4059931Y-15467956D01*
X4059931Y-15467956D02*
X4088502Y-15467956D01*
X4088502Y-15467956D02*
X4107550Y-15477480D01*
X4107550Y-15477480D02*
X4117074Y-15496528D01*
X4117074Y-15496528D02*
X4117074Y-15601290D01*
X4212312Y-15601290D02*
X4212312Y-15467956D01*
X4212312Y-15487004D02*
X4221836Y-15477480D01*
X4221836Y-15477480D02*
X4240884Y-15467956D01*
X4240884Y-15467956D02*
X4269455Y-15467956D01*
X4269455Y-15467956D02*
X4288503Y-15477480D01*
X4288503Y-15477480D02*
X4298026Y-15496528D01*
X4298026Y-15496528D02*
X4298026Y-15601290D01*
X4298026Y-15496528D02*
X4307550Y-15477480D01*
X4307550Y-15477480D02*
X4326598Y-15467956D01*
X4326598Y-15467956D02*
X4355169Y-15467956D01*
X4355169Y-15467956D02*
X4374217Y-15477480D01*
X4374217Y-15477480D02*
X4383741Y-15496528D01*
X4383741Y-15496528D02*
X4383741Y-15601290D01*
X4774217Y-15391766D02*
X4602788Y-15648909D01*
X5031360Y-15401290D02*
X5050408Y-15401290D01*
X5050408Y-15401290D02*
X5069455Y-15410813D01*
X5069455Y-15410813D02*
X5078979Y-15420337D01*
X5078979Y-15420337D02*
X5088503Y-15439385D01*
X5088503Y-15439385D02*
X5098027Y-15477480D01*
X5098027Y-15477480D02*
X5098027Y-15525099D01*
X5098027Y-15525099D02*
X5088503Y-15563194D01*
X5088503Y-15563194D02*
X5078979Y-15582242D01*
X5078979Y-15582242D02*
X5069455Y-15591766D01*
X5069455Y-15591766D02*
X5050408Y-15601290D01*
X5050408Y-15601290D02*
X5031360Y-15601290D01*
X5031360Y-15601290D02*
X5012312Y-15591766D01*
X5012312Y-15591766D02*
X5002788Y-15582242D01*
X5002788Y-15582242D02*
X4993265Y-15563194D01*
X4993265Y-15563194D02*
X4983741Y-15525099D01*
X4983741Y-15525099D02*
X4983741Y-15477480D01*
X4983741Y-15477480D02*
X4993265Y-15439385D01*
X4993265Y-15439385D02*
X5002788Y-15420337D01*
X5002788Y-15420337D02*
X5012312Y-15410813D01*
X5012312Y-15410813D02*
X5031360Y-15401290D01*
X5183741Y-15582242D02*
X5193265Y-15591766D01*
X5193265Y-15591766D02*
X5183741Y-15601290D01*
X5183741Y-15601290D02*
X5174217Y-15591766D01*
X5174217Y-15591766D02*
X5183741Y-15582242D01*
X5183741Y-15582242D02*
X5183741Y-15601290D01*
X5317074Y-15401290D02*
X5336122Y-15401290D01*
X5336122Y-15401290D02*
X5355169Y-15410813D01*
X5355169Y-15410813D02*
X5364693Y-15420337D01*
X5364693Y-15420337D02*
X5374217Y-15439385D01*
X5374217Y-15439385D02*
X5383741Y-15477480D01*
X5383741Y-15477480D02*
X5383741Y-15525099D01*
X5383741Y-15525099D02*
X5374217Y-15563194D01*
X5374217Y-15563194D02*
X5364693Y-15582242D01*
X5364693Y-15582242D02*
X5355169Y-15591766D01*
X5355169Y-15591766D02*
X5336122Y-15601290D01*
X5336122Y-15601290D02*
X5317074Y-15601290D01*
X5317074Y-15601290D02*
X5298027Y-15591766D01*
X5298027Y-15591766D02*
X5288503Y-15582242D01*
X5288503Y-15582242D02*
X5278979Y-15563194D01*
X5278979Y-15563194D02*
X5269455Y-15525099D01*
X5269455Y-15525099D02*
X5269455Y-15477480D01*
X5269455Y-15477480D02*
X5278979Y-15439385D01*
X5278979Y-15439385D02*
X5288503Y-15420337D01*
X5288503Y-15420337D02*
X5298027Y-15410813D01*
X5298027Y-15410813D02*
X5317074Y-15401290D01*
X5555169Y-15401290D02*
X5517074Y-15401290D01*
X5517074Y-15401290D02*
X5498027Y-15410813D01*
X5498027Y-15410813D02*
X5488503Y-15420337D01*
X5488503Y-15420337D02*
X5469455Y-15448909D01*
X5469455Y-15448909D02*
X5459931Y-15487004D01*
X5459931Y-15487004D02*
X5459931Y-15563194D01*
X5459931Y-15563194D02*
X5469455Y-15582242D01*
X5469455Y-15582242D02*
X5478979Y-15591766D01*
X5478979Y-15591766D02*
X5498027Y-15601290D01*
X5498027Y-15601290D02*
X5536122Y-15601290D01*
X5536122Y-15601290D02*
X5555169Y-15591766D01*
X5555169Y-15591766D02*
X5564693Y-15582242D01*
X5564693Y-15582242D02*
X5574217Y-15563194D01*
X5574217Y-15563194D02*
X5574217Y-15515575D01*
X5574217Y-15515575D02*
X5564693Y-15496528D01*
X5564693Y-15496528D02*
X5555169Y-15487004D01*
X5555169Y-15487004D02*
X5536122Y-15477480D01*
X5536122Y-15477480D02*
X5498027Y-15477480D01*
X5498027Y-15477480D02*
X5478979Y-15487004D01*
X5478979Y-15487004D02*
X5469455Y-15496528D01*
X5469455Y-15496528D02*
X5459931Y-15515575D01*
X5640884Y-15401290D02*
X5774217Y-15401290D01*
X5774217Y-15401290D02*
X5688503Y-15601290D01*
X5888503Y-15401290D02*
X5907550Y-15401290D01*
X5907550Y-15401290D02*
X5926598Y-15410813D01*
X5926598Y-15410813D02*
X5936122Y-15420337D01*
X5936122Y-15420337D02*
X5945646Y-15439385D01*
X5945646Y-15439385D02*
X5955169Y-15477480D01*
X5955169Y-15477480D02*
X5955169Y-15525099D01*
X5955169Y-15525099D02*
X5945646Y-15563194D01*
X5945646Y-15563194D02*
X5936122Y-15582242D01*
X5936122Y-15582242D02*
X5926598Y-15591766D01*
X5926598Y-15591766D02*
X5907550Y-15601290D01*
X5907550Y-15601290D02*
X5888503Y-15601290D01*
X5888503Y-15601290D02*
X5869455Y-15591766D01*
X5869455Y-15591766D02*
X5859931Y-15582242D01*
X5859931Y-15582242D02*
X5850407Y-15563194D01*
X5850407Y-15563194D02*
X5840884Y-15525099D01*
X5840884Y-15525099D02*
X5840884Y-15477480D01*
X5840884Y-15477480D02*
X5850407Y-15439385D01*
X5850407Y-15439385D02*
X5859931Y-15420337D01*
X5859931Y-15420337D02*
X5869455Y-15410813D01*
X5869455Y-15410813D02*
X5888503Y-15401290D01*
X6031360Y-15401290D02*
X6031360Y-15439385D01*
X6107550Y-15401290D02*
X6107550Y-15439385D01*
X6402789Y-15677480D02*
X6393265Y-15667956D01*
X6393265Y-15667956D02*
X6374217Y-15639385D01*
X6374217Y-15639385D02*
X6364693Y-15620337D01*
X6364693Y-15620337D02*
X6355169Y-15591766D01*
X6355169Y-15591766D02*
X6345646Y-15544147D01*
X6345646Y-15544147D02*
X6345646Y-15506052D01*
X6345646Y-15506052D02*
X6355169Y-15458432D01*
X6355169Y-15458432D02*
X6364693Y-15429861D01*
X6364693Y-15429861D02*
X6374217Y-15410813D01*
X6374217Y-15410813D02*
X6393265Y-15382242D01*
X6393265Y-15382242D02*
X6402789Y-15372718D01*
X6459931Y-15401290D02*
X6593265Y-15401290D01*
X6593265Y-15401290D02*
X6507550Y-15601290D01*
X6659931Y-15420337D02*
X6669455Y-15410813D01*
X6669455Y-15410813D02*
X6688503Y-15401290D01*
X6688503Y-15401290D02*
X6736122Y-15401290D01*
X6736122Y-15401290D02*
X6755169Y-15410813D01*
X6755169Y-15410813D02*
X6764693Y-15420337D01*
X6764693Y-15420337D02*
X6774217Y-15439385D01*
X6774217Y-15439385D02*
X6774217Y-15458432D01*
X6774217Y-15458432D02*
X6764693Y-15487004D01*
X6764693Y-15487004D02*
X6650408Y-15601290D01*
X6650408Y-15601290D02*
X6774217Y-15601290D01*
X7012312Y-15601290D02*
X7012312Y-15401290D01*
X7098027Y-15601290D02*
X7098027Y-15496528D01*
X7098027Y-15496528D02*
X7088503Y-15477480D01*
X7088503Y-15477480D02*
X7069455Y-15467956D01*
X7069455Y-15467956D02*
X7040884Y-15467956D01*
X7040884Y-15467956D02*
X7021836Y-15477480D01*
X7021836Y-15477480D02*
X7012312Y-15487004D01*
X7221836Y-15601290D02*
X7202789Y-15591766D01*
X7202789Y-15591766D02*
X7193265Y-15582242D01*
X7193265Y-15582242D02*
X7183741Y-15563194D01*
X7183741Y-15563194D02*
X7183741Y-15506052D01*
X7183741Y-15506052D02*
X7193265Y-15487004D01*
X7193265Y-15487004D02*
X7202789Y-15477480D01*
X7202789Y-15477480D02*
X7221836Y-15467956D01*
X7221836Y-15467956D02*
X7250408Y-15467956D01*
X7250408Y-15467956D02*
X7269455Y-15477480D01*
X7269455Y-15477480D02*
X7278979Y-15487004D01*
X7278979Y-15487004D02*
X7288503Y-15506052D01*
X7288503Y-15506052D02*
X7288503Y-15563194D01*
X7288503Y-15563194D02*
X7278979Y-15582242D01*
X7278979Y-15582242D02*
X7269455Y-15591766D01*
X7269455Y-15591766D02*
X7250408Y-15601290D01*
X7250408Y-15601290D02*
X7221836Y-15601290D01*
X7402789Y-15601290D02*
X7383741Y-15591766D01*
X7383741Y-15591766D02*
X7374217Y-15572718D01*
X7374217Y-15572718D02*
X7374217Y-15401290D01*
X7555170Y-15591766D02*
X7536122Y-15601290D01*
X7536122Y-15601290D02*
X7498027Y-15601290D01*
X7498027Y-15601290D02*
X7478979Y-15591766D01*
X7478979Y-15591766D02*
X7469455Y-15572718D01*
X7469455Y-15572718D02*
X7469455Y-15496528D01*
X7469455Y-15496528D02*
X7478979Y-15477480D01*
X7478979Y-15477480D02*
X7498027Y-15467956D01*
X7498027Y-15467956D02*
X7536122Y-15467956D01*
X7536122Y-15467956D02*
X7555170Y-15477480D01*
X7555170Y-15477480D02*
X7564693Y-15496528D01*
X7564693Y-15496528D02*
X7564693Y-15515575D01*
X7564693Y-15515575D02*
X7469455Y-15534623D01*
X7640884Y-15591766D02*
X7659931Y-15601290D01*
X7659931Y-15601290D02*
X7698027Y-15601290D01*
X7698027Y-15601290D02*
X7717074Y-15591766D01*
X7717074Y-15591766D02*
X7726598Y-15572718D01*
X7726598Y-15572718D02*
X7726598Y-15563194D01*
X7726598Y-15563194D02*
X7717074Y-15544147D01*
X7717074Y-15544147D02*
X7698027Y-15534623D01*
X7698027Y-15534623D02*
X7669455Y-15534623D01*
X7669455Y-15534623D02*
X7650408Y-15525099D01*
X7650408Y-15525099D02*
X7640884Y-15506052D01*
X7640884Y-15506052D02*
X7640884Y-15496528D01*
X7640884Y-15496528D02*
X7650408Y-15477480D01*
X7650408Y-15477480D02*
X7669455Y-15467956D01*
X7669455Y-15467956D02*
X7698027Y-15467956D01*
X7698027Y-15467956D02*
X7717074Y-15477480D01*
X7793265Y-15677480D02*
X7802789Y-15667956D01*
X7802789Y-15667956D02*
X7821836Y-15639385D01*
X7821836Y-15639385D02*
X7831360Y-15620337D01*
X7831360Y-15620337D02*
X7840884Y-15591766D01*
X7840884Y-15591766D02*
X7850408Y-15544147D01*
X7850408Y-15544147D02*
X7850408Y-15506052D01*
X7850408Y-15506052D02*
X7840884Y-15458432D01*
X7840884Y-15458432D02*
X7831360Y-15429861D01*
X7831360Y-15429861D02*
X7821836Y-15410813D01*
X7821836Y-15410813D02*
X7802789Y-15382242D01*
X7802789Y-15382242D02*
X7793265Y-15372718D01*
X8155170Y-15677480D02*
X8145646Y-15667956D01*
X8145646Y-15667956D02*
X8126598Y-15639385D01*
X8126598Y-15639385D02*
X8117074Y-15620337D01*
X8117074Y-15620337D02*
X8107551Y-15591766D01*
X8107551Y-15591766D02*
X8098027Y-15544147D01*
X8098027Y-15544147D02*
X8098027Y-15506052D01*
X8098027Y-15506052D02*
X8107551Y-15458432D01*
X8107551Y-15458432D02*
X8117074Y-15429861D01*
X8117074Y-15429861D02*
X8126598Y-15410813D01*
X8126598Y-15410813D02*
X8145646Y-15382242D01*
X8145646Y-15382242D02*
X8155170Y-15372718D01*
X8231360Y-15467956D02*
X8231360Y-15601290D01*
X8231360Y-15487004D02*
X8240884Y-15477480D01*
X8240884Y-15477480D02*
X8259931Y-15467956D01*
X8259931Y-15467956D02*
X8288503Y-15467956D01*
X8288503Y-15467956D02*
X8307551Y-15477480D01*
X8307551Y-15477480D02*
X8317074Y-15496528D01*
X8317074Y-15496528D02*
X8317074Y-15601290D01*
X8440884Y-15601290D02*
X8421836Y-15591766D01*
X8421836Y-15591766D02*
X8412313Y-15582242D01*
X8412313Y-15582242D02*
X8402789Y-15563194D01*
X8402789Y-15563194D02*
X8402789Y-15506052D01*
X8402789Y-15506052D02*
X8412313Y-15487004D01*
X8412313Y-15487004D02*
X8421836Y-15477480D01*
X8421836Y-15477480D02*
X8440884Y-15467956D01*
X8440884Y-15467956D02*
X8469455Y-15467956D01*
X8469455Y-15467956D02*
X8488503Y-15477480D01*
X8488503Y-15477480D02*
X8498027Y-15487004D01*
X8498027Y-15487004D02*
X8507551Y-15506052D01*
X8507551Y-15506052D02*
X8507551Y-15563194D01*
X8507551Y-15563194D02*
X8498027Y-15582242D01*
X8498027Y-15582242D02*
X8488503Y-15591766D01*
X8488503Y-15591766D02*
X8469455Y-15601290D01*
X8469455Y-15601290D02*
X8440884Y-15601290D01*
X8564694Y-15467956D02*
X8640884Y-15467956D01*
X8593265Y-15401290D02*
X8593265Y-15572718D01*
X8593265Y-15572718D02*
X8602789Y-15591766D01*
X8602789Y-15591766D02*
X8621836Y-15601290D01*
X8621836Y-15601290D02*
X8640884Y-15601290D01*
X8859932Y-15467956D02*
X8859932Y-15667956D01*
X8859932Y-15477480D02*
X8878979Y-15467956D01*
X8878979Y-15467956D02*
X8917075Y-15467956D01*
X8917075Y-15467956D02*
X8936122Y-15477480D01*
X8936122Y-15477480D02*
X8945646Y-15487004D01*
X8945646Y-15487004D02*
X8955170Y-15506052D01*
X8955170Y-15506052D02*
X8955170Y-15563194D01*
X8955170Y-15563194D02*
X8945646Y-15582242D01*
X8945646Y-15582242D02*
X8936122Y-15591766D01*
X8936122Y-15591766D02*
X8917075Y-15601290D01*
X8917075Y-15601290D02*
X8878979Y-15601290D01*
X8878979Y-15601290D02*
X8859932Y-15591766D01*
X9069455Y-15601290D02*
X9050408Y-15591766D01*
X9050408Y-15591766D02*
X9040884Y-15572718D01*
X9040884Y-15572718D02*
X9040884Y-15401290D01*
X9231360Y-15601290D02*
X9231360Y-15496528D01*
X9231360Y-15496528D02*
X9221836Y-15477480D01*
X9221836Y-15477480D02*
X9202789Y-15467956D01*
X9202789Y-15467956D02*
X9164694Y-15467956D01*
X9164694Y-15467956D02*
X9145646Y-15477480D01*
X9231360Y-15591766D02*
X9212313Y-15601290D01*
X9212313Y-15601290D02*
X9164694Y-15601290D01*
X9164694Y-15601290D02*
X9145646Y-15591766D01*
X9145646Y-15591766D02*
X9136122Y-15572718D01*
X9136122Y-15572718D02*
X9136122Y-15553671D01*
X9136122Y-15553671D02*
X9145646Y-15534623D01*
X9145646Y-15534623D02*
X9164694Y-15525099D01*
X9164694Y-15525099D02*
X9212313Y-15525099D01*
X9212313Y-15525099D02*
X9231360Y-15515575D01*
X9298027Y-15467956D02*
X9374217Y-15467956D01*
X9326598Y-15401290D02*
X9326598Y-15572718D01*
X9326598Y-15572718D02*
X9336122Y-15591766D01*
X9336122Y-15591766D02*
X9355170Y-15601290D01*
X9355170Y-15601290D02*
X9374217Y-15601290D01*
X9517075Y-15591766D02*
X9498027Y-15601290D01*
X9498027Y-15601290D02*
X9459932Y-15601290D01*
X9459932Y-15601290D02*
X9440884Y-15591766D01*
X9440884Y-15591766D02*
X9431360Y-15572718D01*
X9431360Y-15572718D02*
X9431360Y-15496528D01*
X9431360Y-15496528D02*
X9440884Y-15477480D01*
X9440884Y-15477480D02*
X9459932Y-15467956D01*
X9459932Y-15467956D02*
X9498027Y-15467956D01*
X9498027Y-15467956D02*
X9517075Y-15477480D01*
X9517075Y-15477480D02*
X9526598Y-15496528D01*
X9526598Y-15496528D02*
X9526598Y-15515575D01*
X9526598Y-15515575D02*
X9431360Y-15534623D01*
X9698027Y-15601290D02*
X9698027Y-15401290D01*
X9698027Y-15591766D02*
X9678979Y-15601290D01*
X9678979Y-15601290D02*
X9640884Y-15601290D01*
X9640884Y-15601290D02*
X9621836Y-15591766D01*
X9621836Y-15591766D02*
X9612313Y-15582242D01*
X9612313Y-15582242D02*
X9602789Y-15563194D01*
X9602789Y-15563194D02*
X9602789Y-15506052D01*
X9602789Y-15506052D02*
X9612313Y-15487004D01*
X9612313Y-15487004D02*
X9621836Y-15477480D01*
X9621836Y-15477480D02*
X9640884Y-15467956D01*
X9640884Y-15467956D02*
X9678979Y-15467956D01*
X9678979Y-15467956D02*
X9698027Y-15477480D01*
X9774217Y-15677480D02*
X9783741Y-15667956D01*
X9783741Y-15667956D02*
X9802789Y-15639385D01*
X9802789Y-15639385D02*
X9812313Y-15620337D01*
X9812313Y-15620337D02*
X9821836Y-15591766D01*
X9821836Y-15591766D02*
X9831360Y-15544147D01*
X9831360Y-15544147D02*
X9831360Y-15506052D01*
X9831360Y-15506052D02*
X9821836Y-15458432D01*
X9821836Y-15458432D02*
X9812313Y-15429861D01*
X9812313Y-15429861D02*
X9802789Y-15410813D01*
X9802789Y-15410813D02*
X9783741Y-15382242D01*
X9783741Y-15382242D02*
X9774217Y-15372718D01*
X2727726Y-15699986D02*
X2727726Y-15899986D01*
X2627726Y-15799986D02*
X2827726Y-15799986D01*
X3069455Y-15691470D02*
X3193264Y-15691470D01*
X3193264Y-15691470D02*
X3126598Y-15767660D01*
X3126598Y-15767660D02*
X3155169Y-15767660D01*
X3155169Y-15767660D02*
X3174217Y-15777184D01*
X3174217Y-15777184D02*
X3183741Y-15786708D01*
X3183741Y-15786708D02*
X3193264Y-15805755D01*
X3193264Y-15805755D02*
X3193264Y-15853374D01*
X3193264Y-15853374D02*
X3183741Y-15872422D01*
X3183741Y-15872422D02*
X3174217Y-15881946D01*
X3174217Y-15881946D02*
X3155169Y-15891470D01*
X3155169Y-15891470D02*
X3098026Y-15891470D01*
X3098026Y-15891470D02*
X3078979Y-15881946D01*
X3078979Y-15881946D02*
X3069455Y-15872422D01*
X3278979Y-15872422D02*
X3288502Y-15881946D01*
X3288502Y-15881946D02*
X3278979Y-15891470D01*
X3278979Y-15891470D02*
X3269455Y-15881946D01*
X3269455Y-15881946D02*
X3278979Y-15872422D01*
X3278979Y-15872422D02*
X3278979Y-15891470D01*
X3412312Y-15691470D02*
X3431360Y-15691470D01*
X3431360Y-15691470D02*
X3450407Y-15700993D01*
X3450407Y-15700993D02*
X3459931Y-15710517D01*
X3459931Y-15710517D02*
X3469455Y-15729565D01*
X3469455Y-15729565D02*
X3478979Y-15767660D01*
X3478979Y-15767660D02*
X3478979Y-15815279D01*
X3478979Y-15815279D02*
X3469455Y-15853374D01*
X3469455Y-15853374D02*
X3459931Y-15872422D01*
X3459931Y-15872422D02*
X3450407Y-15881946D01*
X3450407Y-15881946D02*
X3431360Y-15891470D01*
X3431360Y-15891470D02*
X3412312Y-15891470D01*
X3412312Y-15891470D02*
X3393264Y-15881946D01*
X3393264Y-15881946D02*
X3383741Y-15872422D01*
X3383741Y-15872422D02*
X3374217Y-15853374D01*
X3374217Y-15853374D02*
X3364693Y-15815279D01*
X3364693Y-15815279D02*
X3364693Y-15767660D01*
X3364693Y-15767660D02*
X3374217Y-15729565D01*
X3374217Y-15729565D02*
X3383741Y-15710517D01*
X3383741Y-15710517D02*
X3393264Y-15700993D01*
X3393264Y-15700993D02*
X3412312Y-15691470D01*
X3602788Y-15691470D02*
X3621836Y-15691470D01*
X3621836Y-15691470D02*
X3640883Y-15700993D01*
X3640883Y-15700993D02*
X3650407Y-15710517D01*
X3650407Y-15710517D02*
X3659931Y-15729565D01*
X3659931Y-15729565D02*
X3669455Y-15767660D01*
X3669455Y-15767660D02*
X3669455Y-15815279D01*
X3669455Y-15815279D02*
X3659931Y-15853374D01*
X3659931Y-15853374D02*
X3650407Y-15872422D01*
X3650407Y-15872422D02*
X3640883Y-15881946D01*
X3640883Y-15881946D02*
X3621836Y-15891470D01*
X3621836Y-15891470D02*
X3602788Y-15891470D01*
X3602788Y-15891470D02*
X3583741Y-15881946D01*
X3583741Y-15881946D02*
X3574217Y-15872422D01*
X3574217Y-15872422D02*
X3564693Y-15853374D01*
X3564693Y-15853374D02*
X3555169Y-15815279D01*
X3555169Y-15815279D02*
X3555169Y-15767660D01*
X3555169Y-15767660D02*
X3564693Y-15729565D01*
X3564693Y-15729565D02*
X3574217Y-15710517D01*
X3574217Y-15710517D02*
X3583741Y-15700993D01*
X3583741Y-15700993D02*
X3602788Y-15691470D01*
X3793264Y-15691470D02*
X3812312Y-15691470D01*
X3812312Y-15691470D02*
X3831360Y-15700993D01*
X3831360Y-15700993D02*
X3840883Y-15710517D01*
X3840883Y-15710517D02*
X3850407Y-15729565D01*
X3850407Y-15729565D02*
X3859931Y-15767660D01*
X3859931Y-15767660D02*
X3859931Y-15815279D01*
X3859931Y-15815279D02*
X3850407Y-15853374D01*
X3850407Y-15853374D02*
X3840883Y-15872422D01*
X3840883Y-15872422D02*
X3831360Y-15881946D01*
X3831360Y-15881946D02*
X3812312Y-15891470D01*
X3812312Y-15891470D02*
X3793264Y-15891470D01*
X3793264Y-15891470D02*
X3774217Y-15881946D01*
X3774217Y-15881946D02*
X3764693Y-15872422D01*
X3764693Y-15872422D02*
X3755169Y-15853374D01*
X3755169Y-15853374D02*
X3745645Y-15815279D01*
X3745645Y-15815279D02*
X3745645Y-15767660D01*
X3745645Y-15767660D02*
X3755169Y-15729565D01*
X3755169Y-15729565D02*
X3764693Y-15710517D01*
X3764693Y-15710517D02*
X3774217Y-15700993D01*
X3774217Y-15700993D02*
X3793264Y-15691470D01*
X3945645Y-15891470D02*
X3945645Y-15758136D01*
X3945645Y-15777184D02*
X3955169Y-15767660D01*
X3955169Y-15767660D02*
X3974217Y-15758136D01*
X3974217Y-15758136D02*
X4002788Y-15758136D01*
X4002788Y-15758136D02*
X4021836Y-15767660D01*
X4021836Y-15767660D02*
X4031360Y-15786708D01*
X4031360Y-15786708D02*
X4031360Y-15891470D01*
X4031360Y-15786708D02*
X4040883Y-15767660D01*
X4040883Y-15767660D02*
X4059931Y-15758136D01*
X4059931Y-15758136D02*
X4088502Y-15758136D01*
X4088502Y-15758136D02*
X4107550Y-15767660D01*
X4107550Y-15767660D02*
X4117074Y-15786708D01*
X4117074Y-15786708D02*
X4117074Y-15891470D01*
X4212312Y-15891470D02*
X4212312Y-15758136D01*
X4212312Y-15777184D02*
X4221836Y-15767660D01*
X4221836Y-15767660D02*
X4240884Y-15758136D01*
X4240884Y-15758136D02*
X4269455Y-15758136D01*
X4269455Y-15758136D02*
X4288503Y-15767660D01*
X4288503Y-15767660D02*
X4298026Y-15786708D01*
X4298026Y-15786708D02*
X4298026Y-15891470D01*
X4298026Y-15786708D02*
X4307550Y-15767660D01*
X4307550Y-15767660D02*
X4326598Y-15758136D01*
X4326598Y-15758136D02*
X4355169Y-15758136D01*
X4355169Y-15758136D02*
X4374217Y-15767660D01*
X4374217Y-15767660D02*
X4383741Y-15786708D01*
X4383741Y-15786708D02*
X4383741Y-15891470D01*
X4774217Y-15681946D02*
X4602788Y-15939089D01*
X5031360Y-15691470D02*
X5050408Y-15691470D01*
X5050408Y-15691470D02*
X5069455Y-15700993D01*
X5069455Y-15700993D02*
X5078979Y-15710517D01*
X5078979Y-15710517D02*
X5088503Y-15729565D01*
X5088503Y-15729565D02*
X5098027Y-15767660D01*
X5098027Y-15767660D02*
X5098027Y-15815279D01*
X5098027Y-15815279D02*
X5088503Y-15853374D01*
X5088503Y-15853374D02*
X5078979Y-15872422D01*
X5078979Y-15872422D02*
X5069455Y-15881946D01*
X5069455Y-15881946D02*
X5050408Y-15891470D01*
X5050408Y-15891470D02*
X5031360Y-15891470D01*
X5031360Y-15891470D02*
X5012312Y-15881946D01*
X5012312Y-15881946D02*
X5002788Y-15872422D01*
X5002788Y-15872422D02*
X4993265Y-15853374D01*
X4993265Y-15853374D02*
X4983741Y-15815279D01*
X4983741Y-15815279D02*
X4983741Y-15767660D01*
X4983741Y-15767660D02*
X4993265Y-15729565D01*
X4993265Y-15729565D02*
X5002788Y-15710517D01*
X5002788Y-15710517D02*
X5012312Y-15700993D01*
X5012312Y-15700993D02*
X5031360Y-15691470D01*
X5183741Y-15872422D02*
X5193265Y-15881946D01*
X5193265Y-15881946D02*
X5183741Y-15891470D01*
X5183741Y-15891470D02*
X5174217Y-15881946D01*
X5174217Y-15881946D02*
X5183741Y-15872422D01*
X5183741Y-15872422D02*
X5183741Y-15891470D01*
X5383741Y-15891470D02*
X5269455Y-15891470D01*
X5326598Y-15891470D02*
X5326598Y-15691470D01*
X5326598Y-15691470D02*
X5307550Y-15720041D01*
X5307550Y-15720041D02*
X5288503Y-15739089D01*
X5288503Y-15739089D02*
X5269455Y-15748612D01*
X5574217Y-15891470D02*
X5459931Y-15891470D01*
X5517074Y-15891470D02*
X5517074Y-15691470D01*
X5517074Y-15691470D02*
X5498027Y-15720041D01*
X5498027Y-15720041D02*
X5478979Y-15739089D01*
X5478979Y-15739089D02*
X5459931Y-15748612D01*
X5688503Y-15777184D02*
X5669455Y-15767660D01*
X5669455Y-15767660D02*
X5659931Y-15758136D01*
X5659931Y-15758136D02*
X5650407Y-15739089D01*
X5650407Y-15739089D02*
X5650407Y-15729565D01*
X5650407Y-15729565D02*
X5659931Y-15710517D01*
X5659931Y-15710517D02*
X5669455Y-15700993D01*
X5669455Y-15700993D02*
X5688503Y-15691470D01*
X5688503Y-15691470D02*
X5726598Y-15691470D01*
X5726598Y-15691470D02*
X5745646Y-15700993D01*
X5745646Y-15700993D02*
X5755169Y-15710517D01*
X5755169Y-15710517D02*
X5764693Y-15729565D01*
X5764693Y-15729565D02*
X5764693Y-15739089D01*
X5764693Y-15739089D02*
X5755169Y-15758136D01*
X5755169Y-15758136D02*
X5745646Y-15767660D01*
X5745646Y-15767660D02*
X5726598Y-15777184D01*
X5726598Y-15777184D02*
X5688503Y-15777184D01*
X5688503Y-15777184D02*
X5669455Y-15786708D01*
X5669455Y-15786708D02*
X5659931Y-15796232D01*
X5659931Y-15796232D02*
X5650407Y-15815279D01*
X5650407Y-15815279D02*
X5650407Y-15853374D01*
X5650407Y-15853374D02*
X5659931Y-15872422D01*
X5659931Y-15872422D02*
X5669455Y-15881946D01*
X5669455Y-15881946D02*
X5688503Y-15891470D01*
X5688503Y-15891470D02*
X5726598Y-15891470D01*
X5726598Y-15891470D02*
X5745646Y-15881946D01*
X5745646Y-15881946D02*
X5755169Y-15872422D01*
X5755169Y-15872422D02*
X5764693Y-15853374D01*
X5764693Y-15853374D02*
X5764693Y-15815279D01*
X5764693Y-15815279D02*
X5755169Y-15796232D01*
X5755169Y-15796232D02*
X5745646Y-15786708D01*
X5745646Y-15786708D02*
X5726598Y-15777184D01*
X5955169Y-15891470D02*
X5840884Y-15891470D01*
X5898026Y-15891470D02*
X5898026Y-15691470D01*
X5898026Y-15691470D02*
X5878979Y-15720041D01*
X5878979Y-15720041D02*
X5859931Y-15739089D01*
X5859931Y-15739089D02*
X5840884Y-15748612D01*
X6031360Y-15691470D02*
X6031360Y-15729565D01*
X6107550Y-15691470D02*
X6107550Y-15729565D01*
X6402789Y-15967660D02*
X6393265Y-15958136D01*
X6393265Y-15958136D02*
X6374217Y-15929565D01*
X6374217Y-15929565D02*
X6364693Y-15910517D01*
X6364693Y-15910517D02*
X6355169Y-15881946D01*
X6355169Y-15881946D02*
X6345646Y-15834327D01*
X6345646Y-15834327D02*
X6345646Y-15796232D01*
X6345646Y-15796232D02*
X6355169Y-15748612D01*
X6355169Y-15748612D02*
X6364693Y-15720041D01*
X6364693Y-15720041D02*
X6374217Y-15700993D01*
X6374217Y-15700993D02*
X6393265Y-15672422D01*
X6393265Y-15672422D02*
X6402789Y-15662898D01*
X6459931Y-15691470D02*
X6593265Y-15691470D01*
X6593265Y-15691470D02*
X6507550Y-15891470D01*
X6659931Y-15710517D02*
X6669455Y-15700993D01*
X6669455Y-15700993D02*
X6688503Y-15691470D01*
X6688503Y-15691470D02*
X6736122Y-15691470D01*
X6736122Y-15691470D02*
X6755169Y-15700993D01*
X6755169Y-15700993D02*
X6764693Y-15710517D01*
X6764693Y-15710517D02*
X6774217Y-15729565D01*
X6774217Y-15729565D02*
X6774217Y-15748612D01*
X6774217Y-15748612D02*
X6764693Y-15777184D01*
X6764693Y-15777184D02*
X6650408Y-15891470D01*
X6650408Y-15891470D02*
X6774217Y-15891470D01*
X7012312Y-15891470D02*
X7012312Y-15691470D01*
X7098027Y-15891470D02*
X7098027Y-15786708D01*
X7098027Y-15786708D02*
X7088503Y-15767660D01*
X7088503Y-15767660D02*
X7069455Y-15758136D01*
X7069455Y-15758136D02*
X7040884Y-15758136D01*
X7040884Y-15758136D02*
X7021836Y-15767660D01*
X7021836Y-15767660D02*
X7012312Y-15777184D01*
X7221836Y-15891470D02*
X7202789Y-15881946D01*
X7202789Y-15881946D02*
X7193265Y-15872422D01*
X7193265Y-15872422D02*
X7183741Y-15853374D01*
X7183741Y-15853374D02*
X7183741Y-15796232D01*
X7183741Y-15796232D02*
X7193265Y-15777184D01*
X7193265Y-15777184D02*
X7202789Y-15767660D01*
X7202789Y-15767660D02*
X7221836Y-15758136D01*
X7221836Y-15758136D02*
X7250408Y-15758136D01*
X7250408Y-15758136D02*
X7269455Y-15767660D01*
X7269455Y-15767660D02*
X7278979Y-15777184D01*
X7278979Y-15777184D02*
X7288503Y-15796232D01*
X7288503Y-15796232D02*
X7288503Y-15853374D01*
X7288503Y-15853374D02*
X7278979Y-15872422D01*
X7278979Y-15872422D02*
X7269455Y-15881946D01*
X7269455Y-15881946D02*
X7250408Y-15891470D01*
X7250408Y-15891470D02*
X7221836Y-15891470D01*
X7402789Y-15891470D02*
X7383741Y-15881946D01*
X7383741Y-15881946D02*
X7374217Y-15862898D01*
X7374217Y-15862898D02*
X7374217Y-15691470D01*
X7555170Y-15881946D02*
X7536122Y-15891470D01*
X7536122Y-15891470D02*
X7498027Y-15891470D01*
X7498027Y-15891470D02*
X7478979Y-15881946D01*
X7478979Y-15881946D02*
X7469455Y-15862898D01*
X7469455Y-15862898D02*
X7469455Y-15786708D01*
X7469455Y-15786708D02*
X7478979Y-15767660D01*
X7478979Y-15767660D02*
X7498027Y-15758136D01*
X7498027Y-15758136D02*
X7536122Y-15758136D01*
X7536122Y-15758136D02*
X7555170Y-15767660D01*
X7555170Y-15767660D02*
X7564693Y-15786708D01*
X7564693Y-15786708D02*
X7564693Y-15805755D01*
X7564693Y-15805755D02*
X7469455Y-15824803D01*
X7640884Y-15881946D02*
X7659931Y-15891470D01*
X7659931Y-15891470D02*
X7698027Y-15891470D01*
X7698027Y-15891470D02*
X7717074Y-15881946D01*
X7717074Y-15881946D02*
X7726598Y-15862898D01*
X7726598Y-15862898D02*
X7726598Y-15853374D01*
X7726598Y-15853374D02*
X7717074Y-15834327D01*
X7717074Y-15834327D02*
X7698027Y-15824803D01*
X7698027Y-15824803D02*
X7669455Y-15824803D01*
X7669455Y-15824803D02*
X7650408Y-15815279D01*
X7650408Y-15815279D02*
X7640884Y-15796232D01*
X7640884Y-15796232D02*
X7640884Y-15786708D01*
X7640884Y-15786708D02*
X7650408Y-15767660D01*
X7650408Y-15767660D02*
X7669455Y-15758136D01*
X7669455Y-15758136D02*
X7698027Y-15758136D01*
X7698027Y-15758136D02*
X7717074Y-15767660D01*
X7793265Y-15967660D02*
X7802789Y-15958136D01*
X7802789Y-15958136D02*
X7821836Y-15929565D01*
X7821836Y-15929565D02*
X7831360Y-15910517D01*
X7831360Y-15910517D02*
X7840884Y-15881946D01*
X7840884Y-15881946D02*
X7850408Y-15834327D01*
X7850408Y-15834327D02*
X7850408Y-15796232D01*
X7850408Y-15796232D02*
X7840884Y-15748612D01*
X7840884Y-15748612D02*
X7831360Y-15720041D01*
X7831360Y-15720041D02*
X7821836Y-15700993D01*
X7821836Y-15700993D02*
X7802789Y-15672422D01*
X7802789Y-15672422D02*
X7793265Y-15662898D01*
X8155170Y-15967660D02*
X8145646Y-15958136D01*
X8145646Y-15958136D02*
X8126598Y-15929565D01*
X8126598Y-15929565D02*
X8117074Y-15910517D01*
X8117074Y-15910517D02*
X8107551Y-15881946D01*
X8107551Y-15881946D02*
X8098027Y-15834327D01*
X8098027Y-15834327D02*
X8098027Y-15796232D01*
X8098027Y-15796232D02*
X8107551Y-15748612D01*
X8107551Y-15748612D02*
X8117074Y-15720041D01*
X8117074Y-15720041D02*
X8126598Y-15700993D01*
X8126598Y-15700993D02*
X8145646Y-15672422D01*
X8145646Y-15672422D02*
X8155170Y-15662898D01*
X8231360Y-15758136D02*
X8231360Y-15891470D01*
X8231360Y-15777184D02*
X8240884Y-15767660D01*
X8240884Y-15767660D02*
X8259931Y-15758136D01*
X8259931Y-15758136D02*
X8288503Y-15758136D01*
X8288503Y-15758136D02*
X8307551Y-15767660D01*
X8307551Y-15767660D02*
X8317074Y-15786708D01*
X8317074Y-15786708D02*
X8317074Y-15891470D01*
X8440884Y-15891470D02*
X8421836Y-15881946D01*
X8421836Y-15881946D02*
X8412313Y-15872422D01*
X8412313Y-15872422D02*
X8402789Y-15853374D01*
X8402789Y-15853374D02*
X8402789Y-15796232D01*
X8402789Y-15796232D02*
X8412313Y-15777184D01*
X8412313Y-15777184D02*
X8421836Y-15767660D01*
X8421836Y-15767660D02*
X8440884Y-15758136D01*
X8440884Y-15758136D02*
X8469455Y-15758136D01*
X8469455Y-15758136D02*
X8488503Y-15767660D01*
X8488503Y-15767660D02*
X8498027Y-15777184D01*
X8498027Y-15777184D02*
X8507551Y-15796232D01*
X8507551Y-15796232D02*
X8507551Y-15853374D01*
X8507551Y-15853374D02*
X8498027Y-15872422D01*
X8498027Y-15872422D02*
X8488503Y-15881946D01*
X8488503Y-15881946D02*
X8469455Y-15891470D01*
X8469455Y-15891470D02*
X8440884Y-15891470D01*
X8564694Y-15758136D02*
X8640884Y-15758136D01*
X8593265Y-15691470D02*
X8593265Y-15862898D01*
X8593265Y-15862898D02*
X8602789Y-15881946D01*
X8602789Y-15881946D02*
X8621836Y-15891470D01*
X8621836Y-15891470D02*
X8640884Y-15891470D01*
X8859932Y-15758136D02*
X8859932Y-15958136D01*
X8859932Y-15767660D02*
X8878979Y-15758136D01*
X8878979Y-15758136D02*
X8917075Y-15758136D01*
X8917075Y-15758136D02*
X8936122Y-15767660D01*
X8936122Y-15767660D02*
X8945646Y-15777184D01*
X8945646Y-15777184D02*
X8955170Y-15796232D01*
X8955170Y-15796232D02*
X8955170Y-15853374D01*
X8955170Y-15853374D02*
X8945646Y-15872422D01*
X8945646Y-15872422D02*
X8936122Y-15881946D01*
X8936122Y-15881946D02*
X8917075Y-15891470D01*
X8917075Y-15891470D02*
X8878979Y-15891470D01*
X8878979Y-15891470D02*
X8859932Y-15881946D01*
X9069455Y-15891470D02*
X9050408Y-15881946D01*
X9050408Y-15881946D02*
X9040884Y-15862898D01*
X9040884Y-15862898D02*
X9040884Y-15691470D01*
X9231360Y-15891470D02*
X9231360Y-15786708D01*
X9231360Y-15786708D02*
X9221836Y-15767660D01*
X9221836Y-15767660D02*
X9202789Y-15758136D01*
X9202789Y-15758136D02*
X9164694Y-15758136D01*
X9164694Y-15758136D02*
X9145646Y-15767660D01*
X9231360Y-15881946D02*
X9212313Y-15891470D01*
X9212313Y-15891470D02*
X9164694Y-15891470D01*
X9164694Y-15891470D02*
X9145646Y-15881946D01*
X9145646Y-15881946D02*
X9136122Y-15862898D01*
X9136122Y-15862898D02*
X9136122Y-15843851D01*
X9136122Y-15843851D02*
X9145646Y-15824803D01*
X9145646Y-15824803D02*
X9164694Y-15815279D01*
X9164694Y-15815279D02*
X9212313Y-15815279D01*
X9212313Y-15815279D02*
X9231360Y-15805755D01*
X9298027Y-15758136D02*
X9374217Y-15758136D01*
X9326598Y-15691470D02*
X9326598Y-15862898D01*
X9326598Y-15862898D02*
X9336122Y-15881946D01*
X9336122Y-15881946D02*
X9355170Y-15891470D01*
X9355170Y-15891470D02*
X9374217Y-15891470D01*
X9517075Y-15881946D02*
X9498027Y-15891470D01*
X9498027Y-15891470D02*
X9459932Y-15891470D01*
X9459932Y-15891470D02*
X9440884Y-15881946D01*
X9440884Y-15881946D02*
X9431360Y-15862898D01*
X9431360Y-15862898D02*
X9431360Y-15786708D01*
X9431360Y-15786708D02*
X9440884Y-15767660D01*
X9440884Y-15767660D02*
X9459932Y-15758136D01*
X9459932Y-15758136D02*
X9498027Y-15758136D01*
X9498027Y-15758136D02*
X9517075Y-15767660D01*
X9517075Y-15767660D02*
X9526598Y-15786708D01*
X9526598Y-15786708D02*
X9526598Y-15805755D01*
X9526598Y-15805755D02*
X9431360Y-15824803D01*
X9698027Y-15891470D02*
X9698027Y-15691470D01*
X9698027Y-15881946D02*
X9678979Y-15891470D01*
X9678979Y-15891470D02*
X9640884Y-15891470D01*
X9640884Y-15891470D02*
X9621836Y-15881946D01*
X9621836Y-15881946D02*
X9612313Y-15872422D01*
X9612313Y-15872422D02*
X9602789Y-15853374D01*
X9602789Y-15853374D02*
X9602789Y-15796232D01*
X9602789Y-15796232D02*
X9612313Y-15777184D01*
X9612313Y-15777184D02*
X9621836Y-15767660D01*
X9621836Y-15767660D02*
X9640884Y-15758136D01*
X9640884Y-15758136D02*
X9678979Y-15758136D01*
X9678979Y-15758136D02*
X9698027Y-15767660D01*
X9774217Y-15967660D02*
X9783741Y-15958136D01*
X9783741Y-15958136D02*
X9802789Y-15929565D01*
X9802789Y-15929565D02*
X9812313Y-15910517D01*
X9812313Y-15910517D02*
X9821836Y-15881946D01*
X9821836Y-15881946D02*
X9831360Y-15834327D01*
X9831360Y-15834327D02*
X9831360Y-15796232D01*
X9831360Y-15796232D02*
X9821836Y-15748612D01*
X9821836Y-15748612D02*
X9812313Y-15720041D01*
X9812313Y-15720041D02*
X9802789Y-15700993D01*
X9802789Y-15700993D02*
X9783741Y-15672422D01*
X9783741Y-15672422D02*
X9774217Y-15662898D01*
X2798437Y-16190697D02*
X2798437Y-16049274D01*
X2657014Y-16049274D01*
X2657014Y-16190697D01*
X2798437Y-16190697D01*
X3069455Y-16011470D02*
X3193264Y-16011470D01*
X3193264Y-16011470D02*
X3126598Y-16087660D01*
X3126598Y-16087660D02*
X3155169Y-16087660D01*
X3155169Y-16087660D02*
X3174217Y-16097184D01*
X3174217Y-16097184D02*
X3183741Y-16106708D01*
X3183741Y-16106708D02*
X3193264Y-16125755D01*
X3193264Y-16125755D02*
X3193264Y-16173374D01*
X3193264Y-16173374D02*
X3183741Y-16192422D01*
X3183741Y-16192422D02*
X3174217Y-16201946D01*
X3174217Y-16201946D02*
X3155169Y-16211470D01*
X3155169Y-16211470D02*
X3098026Y-16211470D01*
X3098026Y-16211470D02*
X3078979Y-16201946D01*
X3078979Y-16201946D02*
X3069455Y-16192422D01*
X3278979Y-16192422D02*
X3288502Y-16201946D01*
X3288502Y-16201946D02*
X3278979Y-16211470D01*
X3278979Y-16211470D02*
X3269455Y-16201946D01*
X3269455Y-16201946D02*
X3278979Y-16192422D01*
X3278979Y-16192422D02*
X3278979Y-16211470D01*
X3383741Y-16211470D02*
X3421836Y-16211470D01*
X3421836Y-16211470D02*
X3440883Y-16201946D01*
X3440883Y-16201946D02*
X3450407Y-16192422D01*
X3450407Y-16192422D02*
X3469455Y-16163851D01*
X3469455Y-16163851D02*
X3478979Y-16125755D01*
X3478979Y-16125755D02*
X3478979Y-16049565D01*
X3478979Y-16049565D02*
X3469455Y-16030517D01*
X3469455Y-16030517D02*
X3459931Y-16020993D01*
X3459931Y-16020993D02*
X3440883Y-16011470D01*
X3440883Y-16011470D02*
X3402788Y-16011470D01*
X3402788Y-16011470D02*
X3383741Y-16020993D01*
X3383741Y-16020993D02*
X3374217Y-16030517D01*
X3374217Y-16030517D02*
X3364693Y-16049565D01*
X3364693Y-16049565D02*
X3364693Y-16097184D01*
X3364693Y-16097184D02*
X3374217Y-16116232D01*
X3374217Y-16116232D02*
X3383741Y-16125755D01*
X3383741Y-16125755D02*
X3402788Y-16135279D01*
X3402788Y-16135279D02*
X3440883Y-16135279D01*
X3440883Y-16135279D02*
X3459931Y-16125755D01*
X3459931Y-16125755D02*
X3469455Y-16116232D01*
X3469455Y-16116232D02*
X3478979Y-16097184D01*
X3593264Y-16097184D02*
X3574217Y-16087660D01*
X3574217Y-16087660D02*
X3564693Y-16078136D01*
X3564693Y-16078136D02*
X3555169Y-16059089D01*
X3555169Y-16059089D02*
X3555169Y-16049565D01*
X3555169Y-16049565D02*
X3564693Y-16030517D01*
X3564693Y-16030517D02*
X3574217Y-16020993D01*
X3574217Y-16020993D02*
X3593264Y-16011470D01*
X3593264Y-16011470D02*
X3631360Y-16011470D01*
X3631360Y-16011470D02*
X3650407Y-16020993D01*
X3650407Y-16020993D02*
X3659931Y-16030517D01*
X3659931Y-16030517D02*
X3669455Y-16049565D01*
X3669455Y-16049565D02*
X3669455Y-16059089D01*
X3669455Y-16059089D02*
X3659931Y-16078136D01*
X3659931Y-16078136D02*
X3650407Y-16087660D01*
X3650407Y-16087660D02*
X3631360Y-16097184D01*
X3631360Y-16097184D02*
X3593264Y-16097184D01*
X3593264Y-16097184D02*
X3574217Y-16106708D01*
X3574217Y-16106708D02*
X3564693Y-16116232D01*
X3564693Y-16116232D02*
X3555169Y-16135279D01*
X3555169Y-16135279D02*
X3555169Y-16173374D01*
X3555169Y-16173374D02*
X3564693Y-16192422D01*
X3564693Y-16192422D02*
X3574217Y-16201946D01*
X3574217Y-16201946D02*
X3593264Y-16211470D01*
X3593264Y-16211470D02*
X3631360Y-16211470D01*
X3631360Y-16211470D02*
X3650407Y-16201946D01*
X3650407Y-16201946D02*
X3659931Y-16192422D01*
X3659931Y-16192422D02*
X3669455Y-16173374D01*
X3669455Y-16173374D02*
X3669455Y-16135279D01*
X3669455Y-16135279D02*
X3659931Y-16116232D01*
X3659931Y-16116232D02*
X3650407Y-16106708D01*
X3650407Y-16106708D02*
X3631360Y-16097184D01*
X3783741Y-16097184D02*
X3764693Y-16087660D01*
X3764693Y-16087660D02*
X3755169Y-16078136D01*
X3755169Y-16078136D02*
X3745645Y-16059089D01*
X3745645Y-16059089D02*
X3745645Y-16049565D01*
X3745645Y-16049565D02*
X3755169Y-16030517D01*
X3755169Y-16030517D02*
X3764693Y-16020993D01*
X3764693Y-16020993D02*
X3783741Y-16011470D01*
X3783741Y-16011470D02*
X3821836Y-16011470D01*
X3821836Y-16011470D02*
X3840883Y-16020993D01*
X3840883Y-16020993D02*
X3850407Y-16030517D01*
X3850407Y-16030517D02*
X3859931Y-16049565D01*
X3859931Y-16049565D02*
X3859931Y-16059089D01*
X3859931Y-16059089D02*
X3850407Y-16078136D01*
X3850407Y-16078136D02*
X3840883Y-16087660D01*
X3840883Y-16087660D02*
X3821836Y-16097184D01*
X3821836Y-16097184D02*
X3783741Y-16097184D01*
X3783741Y-16097184D02*
X3764693Y-16106708D01*
X3764693Y-16106708D02*
X3755169Y-16116232D01*
X3755169Y-16116232D02*
X3745645Y-16135279D01*
X3745645Y-16135279D02*
X3745645Y-16173374D01*
X3745645Y-16173374D02*
X3755169Y-16192422D01*
X3755169Y-16192422D02*
X3764693Y-16201946D01*
X3764693Y-16201946D02*
X3783741Y-16211470D01*
X3783741Y-16211470D02*
X3821836Y-16211470D01*
X3821836Y-16211470D02*
X3840883Y-16201946D01*
X3840883Y-16201946D02*
X3850407Y-16192422D01*
X3850407Y-16192422D02*
X3859931Y-16173374D01*
X3859931Y-16173374D02*
X3859931Y-16135279D01*
X3859931Y-16135279D02*
X3850407Y-16116232D01*
X3850407Y-16116232D02*
X3840883Y-16106708D01*
X3840883Y-16106708D02*
X3821836Y-16097184D01*
X3945645Y-16211470D02*
X3945645Y-16078136D01*
X3945645Y-16097184D02*
X3955169Y-16087660D01*
X3955169Y-16087660D02*
X3974217Y-16078136D01*
X3974217Y-16078136D02*
X4002788Y-16078136D01*
X4002788Y-16078136D02*
X4021836Y-16087660D01*
X4021836Y-16087660D02*
X4031360Y-16106708D01*
X4031360Y-16106708D02*
X4031360Y-16211470D01*
X4031360Y-16106708D02*
X4040883Y-16087660D01*
X4040883Y-16087660D02*
X4059931Y-16078136D01*
X4059931Y-16078136D02*
X4088502Y-16078136D01*
X4088502Y-16078136D02*
X4107550Y-16087660D01*
X4107550Y-16087660D02*
X4117074Y-16106708D01*
X4117074Y-16106708D02*
X4117074Y-16211470D01*
X4212312Y-16211470D02*
X4212312Y-16078136D01*
X4212312Y-16097184D02*
X4221836Y-16087660D01*
X4221836Y-16087660D02*
X4240884Y-16078136D01*
X4240884Y-16078136D02*
X4269455Y-16078136D01*
X4269455Y-16078136D02*
X4288503Y-16087660D01*
X4288503Y-16087660D02*
X4298026Y-16106708D01*
X4298026Y-16106708D02*
X4298026Y-16211470D01*
X4298026Y-16106708D02*
X4307550Y-16087660D01*
X4307550Y-16087660D02*
X4326598Y-16078136D01*
X4326598Y-16078136D02*
X4355169Y-16078136D01*
X4355169Y-16078136D02*
X4374217Y-16087660D01*
X4374217Y-16087660D02*
X4383741Y-16106708D01*
X4383741Y-16106708D02*
X4383741Y-16211470D01*
X4774217Y-16001946D02*
X4602788Y-16259089D01*
X5031360Y-16011470D02*
X5050408Y-16011470D01*
X5050408Y-16011470D02*
X5069455Y-16020993D01*
X5069455Y-16020993D02*
X5078979Y-16030517D01*
X5078979Y-16030517D02*
X5088503Y-16049565D01*
X5088503Y-16049565D02*
X5098027Y-16087660D01*
X5098027Y-16087660D02*
X5098027Y-16135279D01*
X5098027Y-16135279D02*
X5088503Y-16173374D01*
X5088503Y-16173374D02*
X5078979Y-16192422D01*
X5078979Y-16192422D02*
X5069455Y-16201946D01*
X5069455Y-16201946D02*
X5050408Y-16211470D01*
X5050408Y-16211470D02*
X5031360Y-16211470D01*
X5031360Y-16211470D02*
X5012312Y-16201946D01*
X5012312Y-16201946D02*
X5002788Y-16192422D01*
X5002788Y-16192422D02*
X4993265Y-16173374D01*
X4993265Y-16173374D02*
X4983741Y-16135279D01*
X4983741Y-16135279D02*
X4983741Y-16087660D01*
X4983741Y-16087660D02*
X4993265Y-16049565D01*
X4993265Y-16049565D02*
X5002788Y-16030517D01*
X5002788Y-16030517D02*
X5012312Y-16020993D01*
X5012312Y-16020993D02*
X5031360Y-16011470D01*
X5183741Y-16192422D02*
X5193265Y-16201946D01*
X5193265Y-16201946D02*
X5183741Y-16211470D01*
X5183741Y-16211470D02*
X5174217Y-16201946D01*
X5174217Y-16201946D02*
X5183741Y-16192422D01*
X5183741Y-16192422D02*
X5183741Y-16211470D01*
X5383741Y-16211470D02*
X5269455Y-16211470D01*
X5326598Y-16211470D02*
X5326598Y-16011470D01*
X5326598Y-16011470D02*
X5307550Y-16040041D01*
X5307550Y-16040041D02*
X5288503Y-16059089D01*
X5288503Y-16059089D02*
X5269455Y-16068612D01*
X5564693Y-16011470D02*
X5469455Y-16011470D01*
X5469455Y-16011470D02*
X5459931Y-16106708D01*
X5459931Y-16106708D02*
X5469455Y-16097184D01*
X5469455Y-16097184D02*
X5488503Y-16087660D01*
X5488503Y-16087660D02*
X5536122Y-16087660D01*
X5536122Y-16087660D02*
X5555169Y-16097184D01*
X5555169Y-16097184D02*
X5564693Y-16106708D01*
X5564693Y-16106708D02*
X5574217Y-16125755D01*
X5574217Y-16125755D02*
X5574217Y-16173374D01*
X5574217Y-16173374D02*
X5564693Y-16192422D01*
X5564693Y-16192422D02*
X5555169Y-16201946D01*
X5555169Y-16201946D02*
X5536122Y-16211470D01*
X5536122Y-16211470D02*
X5488503Y-16211470D01*
X5488503Y-16211470D02*
X5469455Y-16201946D01*
X5469455Y-16201946D02*
X5459931Y-16192422D01*
X5640884Y-16011470D02*
X5774217Y-16011470D01*
X5774217Y-16011470D02*
X5688503Y-16211470D01*
X5888503Y-16011470D02*
X5907550Y-16011470D01*
X5907550Y-16011470D02*
X5926598Y-16020993D01*
X5926598Y-16020993D02*
X5936122Y-16030517D01*
X5936122Y-16030517D02*
X5945646Y-16049565D01*
X5945646Y-16049565D02*
X5955169Y-16087660D01*
X5955169Y-16087660D02*
X5955169Y-16135279D01*
X5955169Y-16135279D02*
X5945646Y-16173374D01*
X5945646Y-16173374D02*
X5936122Y-16192422D01*
X5936122Y-16192422D02*
X5926598Y-16201946D01*
X5926598Y-16201946D02*
X5907550Y-16211470D01*
X5907550Y-16211470D02*
X5888503Y-16211470D01*
X5888503Y-16211470D02*
X5869455Y-16201946D01*
X5869455Y-16201946D02*
X5859931Y-16192422D01*
X5859931Y-16192422D02*
X5850407Y-16173374D01*
X5850407Y-16173374D02*
X5840884Y-16135279D01*
X5840884Y-16135279D02*
X5840884Y-16087660D01*
X5840884Y-16087660D02*
X5850407Y-16049565D01*
X5850407Y-16049565D02*
X5859931Y-16030517D01*
X5859931Y-16030517D02*
X5869455Y-16020993D01*
X5869455Y-16020993D02*
X5888503Y-16011470D01*
X6031360Y-16011470D02*
X6031360Y-16049565D01*
X6107550Y-16011470D02*
X6107550Y-16049565D01*
X6402789Y-16287660D02*
X6393265Y-16278136D01*
X6393265Y-16278136D02*
X6374217Y-16249565D01*
X6374217Y-16249565D02*
X6364693Y-16230517D01*
X6364693Y-16230517D02*
X6355169Y-16201946D01*
X6355169Y-16201946D02*
X6345646Y-16154327D01*
X6345646Y-16154327D02*
X6345646Y-16116232D01*
X6345646Y-16116232D02*
X6355169Y-16068612D01*
X6355169Y-16068612D02*
X6364693Y-16040041D01*
X6364693Y-16040041D02*
X6374217Y-16020993D01*
X6374217Y-16020993D02*
X6393265Y-15992422D01*
X6393265Y-15992422D02*
X6402789Y-15982898D01*
X6459931Y-16011470D02*
X6583741Y-16011470D01*
X6583741Y-16011470D02*
X6517074Y-16087660D01*
X6517074Y-16087660D02*
X6545646Y-16087660D01*
X6545646Y-16087660D02*
X6564693Y-16097184D01*
X6564693Y-16097184D02*
X6574217Y-16106708D01*
X6574217Y-16106708D02*
X6583741Y-16125755D01*
X6583741Y-16125755D02*
X6583741Y-16173374D01*
X6583741Y-16173374D02*
X6574217Y-16192422D01*
X6574217Y-16192422D02*
X6564693Y-16201946D01*
X6564693Y-16201946D02*
X6545646Y-16211470D01*
X6545646Y-16211470D02*
X6488503Y-16211470D01*
X6488503Y-16211470D02*
X6469455Y-16201946D01*
X6469455Y-16201946D02*
X6459931Y-16192422D01*
X6755169Y-16011470D02*
X6717074Y-16011470D01*
X6717074Y-16011470D02*
X6698027Y-16020993D01*
X6698027Y-16020993D02*
X6688503Y-16030517D01*
X6688503Y-16030517D02*
X6669455Y-16059089D01*
X6669455Y-16059089D02*
X6659931Y-16097184D01*
X6659931Y-16097184D02*
X6659931Y-16173374D01*
X6659931Y-16173374D02*
X6669455Y-16192422D01*
X6669455Y-16192422D02*
X6678979Y-16201946D01*
X6678979Y-16201946D02*
X6698027Y-16211470D01*
X6698027Y-16211470D02*
X6736122Y-16211470D01*
X6736122Y-16211470D02*
X6755169Y-16201946D01*
X6755169Y-16201946D02*
X6764693Y-16192422D01*
X6764693Y-16192422D02*
X6774217Y-16173374D01*
X6774217Y-16173374D02*
X6774217Y-16125755D01*
X6774217Y-16125755D02*
X6764693Y-16106708D01*
X6764693Y-16106708D02*
X6755169Y-16097184D01*
X6755169Y-16097184D02*
X6736122Y-16087660D01*
X6736122Y-16087660D02*
X6698027Y-16087660D01*
X6698027Y-16087660D02*
X6678979Y-16097184D01*
X6678979Y-16097184D02*
X6669455Y-16106708D01*
X6669455Y-16106708D02*
X6659931Y-16125755D01*
X7012312Y-16211470D02*
X7012312Y-16011470D01*
X7098027Y-16211470D02*
X7098027Y-16106708D01*
X7098027Y-16106708D02*
X7088503Y-16087660D01*
X7088503Y-16087660D02*
X7069455Y-16078136D01*
X7069455Y-16078136D02*
X7040884Y-16078136D01*
X7040884Y-16078136D02*
X7021836Y-16087660D01*
X7021836Y-16087660D02*
X7012312Y-16097184D01*
X7221836Y-16211470D02*
X7202789Y-16201946D01*
X7202789Y-16201946D02*
X7193265Y-16192422D01*
X7193265Y-16192422D02*
X7183741Y-16173374D01*
X7183741Y-16173374D02*
X7183741Y-16116232D01*
X7183741Y-16116232D02*
X7193265Y-16097184D01*
X7193265Y-16097184D02*
X7202789Y-16087660D01*
X7202789Y-16087660D02*
X7221836Y-16078136D01*
X7221836Y-16078136D02*
X7250408Y-16078136D01*
X7250408Y-16078136D02*
X7269455Y-16087660D01*
X7269455Y-16087660D02*
X7278979Y-16097184D01*
X7278979Y-16097184D02*
X7288503Y-16116232D01*
X7288503Y-16116232D02*
X7288503Y-16173374D01*
X7288503Y-16173374D02*
X7278979Y-16192422D01*
X7278979Y-16192422D02*
X7269455Y-16201946D01*
X7269455Y-16201946D02*
X7250408Y-16211470D01*
X7250408Y-16211470D02*
X7221836Y-16211470D01*
X7402789Y-16211470D02*
X7383741Y-16201946D01*
X7383741Y-16201946D02*
X7374217Y-16182898D01*
X7374217Y-16182898D02*
X7374217Y-16011470D01*
X7555170Y-16201946D02*
X7536122Y-16211470D01*
X7536122Y-16211470D02*
X7498027Y-16211470D01*
X7498027Y-16211470D02*
X7478979Y-16201946D01*
X7478979Y-16201946D02*
X7469455Y-16182898D01*
X7469455Y-16182898D02*
X7469455Y-16106708D01*
X7469455Y-16106708D02*
X7478979Y-16087660D01*
X7478979Y-16087660D02*
X7498027Y-16078136D01*
X7498027Y-16078136D02*
X7536122Y-16078136D01*
X7536122Y-16078136D02*
X7555170Y-16087660D01*
X7555170Y-16087660D02*
X7564693Y-16106708D01*
X7564693Y-16106708D02*
X7564693Y-16125755D01*
X7564693Y-16125755D02*
X7469455Y-16144803D01*
X7640884Y-16201946D02*
X7659931Y-16211470D01*
X7659931Y-16211470D02*
X7698027Y-16211470D01*
X7698027Y-16211470D02*
X7717074Y-16201946D01*
X7717074Y-16201946D02*
X7726598Y-16182898D01*
X7726598Y-16182898D02*
X7726598Y-16173374D01*
X7726598Y-16173374D02*
X7717074Y-16154327D01*
X7717074Y-16154327D02*
X7698027Y-16144803D01*
X7698027Y-16144803D02*
X7669455Y-16144803D01*
X7669455Y-16144803D02*
X7650408Y-16135279D01*
X7650408Y-16135279D02*
X7640884Y-16116232D01*
X7640884Y-16116232D02*
X7640884Y-16106708D01*
X7640884Y-16106708D02*
X7650408Y-16087660D01*
X7650408Y-16087660D02*
X7669455Y-16078136D01*
X7669455Y-16078136D02*
X7698027Y-16078136D01*
X7698027Y-16078136D02*
X7717074Y-16087660D01*
X7793265Y-16287660D02*
X7802789Y-16278136D01*
X7802789Y-16278136D02*
X7821836Y-16249565D01*
X7821836Y-16249565D02*
X7831360Y-16230517D01*
X7831360Y-16230517D02*
X7840884Y-16201946D01*
X7840884Y-16201946D02*
X7850408Y-16154327D01*
X7850408Y-16154327D02*
X7850408Y-16116232D01*
X7850408Y-16116232D02*
X7840884Y-16068612D01*
X7840884Y-16068612D02*
X7831360Y-16040041D01*
X7831360Y-16040041D02*
X7821836Y-16020993D01*
X7821836Y-16020993D02*
X7802789Y-15992422D01*
X7802789Y-15992422D02*
X7793265Y-15982898D01*
X8155170Y-16287660D02*
X8145646Y-16278136D01*
X8145646Y-16278136D02*
X8126598Y-16249565D01*
X8126598Y-16249565D02*
X8117074Y-16230517D01*
X8117074Y-16230517D02*
X8107551Y-16201946D01*
X8107551Y-16201946D02*
X8098027Y-16154327D01*
X8098027Y-16154327D02*
X8098027Y-16116232D01*
X8098027Y-16116232D02*
X8107551Y-16068612D01*
X8107551Y-16068612D02*
X8117074Y-16040041D01*
X8117074Y-16040041D02*
X8126598Y-16020993D01*
X8126598Y-16020993D02*
X8145646Y-15992422D01*
X8145646Y-15992422D02*
X8155170Y-15982898D01*
X8231360Y-16078136D02*
X8231360Y-16211470D01*
X8231360Y-16097184D02*
X8240884Y-16087660D01*
X8240884Y-16087660D02*
X8259931Y-16078136D01*
X8259931Y-16078136D02*
X8288503Y-16078136D01*
X8288503Y-16078136D02*
X8307551Y-16087660D01*
X8307551Y-16087660D02*
X8317074Y-16106708D01*
X8317074Y-16106708D02*
X8317074Y-16211470D01*
X8440884Y-16211470D02*
X8421836Y-16201946D01*
X8421836Y-16201946D02*
X8412313Y-16192422D01*
X8412313Y-16192422D02*
X8402789Y-16173374D01*
X8402789Y-16173374D02*
X8402789Y-16116232D01*
X8402789Y-16116232D02*
X8412313Y-16097184D01*
X8412313Y-16097184D02*
X8421836Y-16087660D01*
X8421836Y-16087660D02*
X8440884Y-16078136D01*
X8440884Y-16078136D02*
X8469455Y-16078136D01*
X8469455Y-16078136D02*
X8488503Y-16087660D01*
X8488503Y-16087660D02*
X8498027Y-16097184D01*
X8498027Y-16097184D02*
X8507551Y-16116232D01*
X8507551Y-16116232D02*
X8507551Y-16173374D01*
X8507551Y-16173374D02*
X8498027Y-16192422D01*
X8498027Y-16192422D02*
X8488503Y-16201946D01*
X8488503Y-16201946D02*
X8469455Y-16211470D01*
X8469455Y-16211470D02*
X8440884Y-16211470D01*
X8564694Y-16078136D02*
X8640884Y-16078136D01*
X8593265Y-16011470D02*
X8593265Y-16182898D01*
X8593265Y-16182898D02*
X8602789Y-16201946D01*
X8602789Y-16201946D02*
X8621836Y-16211470D01*
X8621836Y-16211470D02*
X8640884Y-16211470D01*
X8859932Y-16078136D02*
X8859932Y-16278136D01*
X8859932Y-16087660D02*
X8878979Y-16078136D01*
X8878979Y-16078136D02*
X8917075Y-16078136D01*
X8917075Y-16078136D02*
X8936122Y-16087660D01*
X8936122Y-16087660D02*
X8945646Y-16097184D01*
X8945646Y-16097184D02*
X8955170Y-16116232D01*
X8955170Y-16116232D02*
X8955170Y-16173374D01*
X8955170Y-16173374D02*
X8945646Y-16192422D01*
X8945646Y-16192422D02*
X8936122Y-16201946D01*
X8936122Y-16201946D02*
X8917075Y-16211470D01*
X8917075Y-16211470D02*
X8878979Y-16211470D01*
X8878979Y-16211470D02*
X8859932Y-16201946D01*
X9069455Y-16211470D02*
X9050408Y-16201946D01*
X9050408Y-16201946D02*
X9040884Y-16182898D01*
X9040884Y-16182898D02*
X9040884Y-16011470D01*
X9231360Y-16211470D02*
X9231360Y-16106708D01*
X9231360Y-16106708D02*
X9221836Y-16087660D01*
X9221836Y-16087660D02*
X9202789Y-16078136D01*
X9202789Y-16078136D02*
X9164694Y-16078136D01*
X9164694Y-16078136D02*
X9145646Y-16087660D01*
X9231360Y-16201946D02*
X9212313Y-16211470D01*
X9212313Y-16211470D02*
X9164694Y-16211470D01*
X9164694Y-16211470D02*
X9145646Y-16201946D01*
X9145646Y-16201946D02*
X9136122Y-16182898D01*
X9136122Y-16182898D02*
X9136122Y-16163851D01*
X9136122Y-16163851D02*
X9145646Y-16144803D01*
X9145646Y-16144803D02*
X9164694Y-16135279D01*
X9164694Y-16135279D02*
X9212313Y-16135279D01*
X9212313Y-16135279D02*
X9231360Y-16125755D01*
X9298027Y-16078136D02*
X9374217Y-16078136D01*
X9326598Y-16011470D02*
X9326598Y-16182898D01*
X9326598Y-16182898D02*
X9336122Y-16201946D01*
X9336122Y-16201946D02*
X9355170Y-16211470D01*
X9355170Y-16211470D02*
X9374217Y-16211470D01*
X9517075Y-16201946D02*
X9498027Y-16211470D01*
X9498027Y-16211470D02*
X9459932Y-16211470D01*
X9459932Y-16211470D02*
X9440884Y-16201946D01*
X9440884Y-16201946D02*
X9431360Y-16182898D01*
X9431360Y-16182898D02*
X9431360Y-16106708D01*
X9431360Y-16106708D02*
X9440884Y-16087660D01*
X9440884Y-16087660D02*
X9459932Y-16078136D01*
X9459932Y-16078136D02*
X9498027Y-16078136D01*
X9498027Y-16078136D02*
X9517075Y-16087660D01*
X9517075Y-16087660D02*
X9526598Y-16106708D01*
X9526598Y-16106708D02*
X9526598Y-16125755D01*
X9526598Y-16125755D02*
X9431360Y-16144803D01*
X9698027Y-16211470D02*
X9698027Y-16011470D01*
X9698027Y-16201946D02*
X9678979Y-16211470D01*
X9678979Y-16211470D02*
X9640884Y-16211470D01*
X9640884Y-16211470D02*
X9621836Y-16201946D01*
X9621836Y-16201946D02*
X9612313Y-16192422D01*
X9612313Y-16192422D02*
X9602789Y-16173374D01*
X9602789Y-16173374D02*
X9602789Y-16116232D01*
X9602789Y-16116232D02*
X9612313Y-16097184D01*
X9612313Y-16097184D02*
X9621836Y-16087660D01*
X9621836Y-16087660D02*
X9640884Y-16078136D01*
X9640884Y-16078136D02*
X9678979Y-16078136D01*
X9678979Y-16078136D02*
X9698027Y-16087660D01*
X9774217Y-16287660D02*
X9783741Y-16278136D01*
X9783741Y-16278136D02*
X9802789Y-16249565D01*
X9802789Y-16249565D02*
X9812313Y-16230517D01*
X9812313Y-16230517D02*
X9821836Y-16201946D01*
X9821836Y-16201946D02*
X9831360Y-16154327D01*
X9831360Y-16154327D02*
X9831360Y-16116232D01*
X9831360Y-16116232D02*
X9821836Y-16068612D01*
X9821836Y-16068612D02*
X9812313Y-16040041D01*
X9812313Y-16040041D02*
X9802789Y-16020993D01*
X9802789Y-16020993D02*
X9783741Y-15992422D01*
X9783741Y-15992422D02*
X9774217Y-15982898D01*
M02*
