%TF.GenerationSoftware,KiCad,Pcbnew,8.0.1*%
%TF.CreationDate,2024-04-22T06:22:56+12:00*%
%TF.ProjectId,main routed,6d61696e-2072-46f7-9574-65642e6b6963,v1.0.0*%
%TF.SameCoordinates,Original*%
%TF.FileFunction,Drillmap*%
%TF.FilePolarity,Positive*%
%FSLAX45Y45*%
G04 Gerber Fmt 4.5, Leading zero omitted, Abs format (unit mm)*
G04 Created by KiCad (PCBNEW 8.0.1) date 2024-04-22 06:22:56*
%MOMM*%
%LPD*%
G01*
G04 APERTURE LIST*
%ADD10C,0.150000*%
%ADD11C,0.120000*%
%ADD12C,0.200000*%
%ADD13C,0.100000*%
%ADD14C,0.101600*%
G04 APERTURE END LIST*
D10*
X16663200Y-9396760D02*
G75*
G02*
X16543200Y-9396760I-60000J0D01*
G01*
X16543200Y-9396760D02*
G75*
G02*
X16663200Y-9396760I60000J0D01*
G01*
X17747552Y-13413188D02*
X16131564Y-14568917D01*
X2935226Y-11878560D02*
X7713226Y-11878560D01*
X12924026Y-9596760D02*
G75*
G02*
X12804026Y-9596760I-60000J0D01*
G01*
X12804026Y-9596760D02*
G75*
G02*
X12924026Y-9596760I60000J0D01*
G01*
X12815666Y-10892638D02*
G75*
G02*
X12815226Y-10883261I99554J9378D01*
G01*
X20604000Y-4448120D02*
G75*
G02*
X20504000Y-4548120I-100000J0D01*
G01*
X18628000Y-4844360D02*
G75*
G02*
X18528000Y-4944360I-100000J0D01*
G01*
X21654000Y-11978560D02*
G75*
G02*
X21754000Y-11878560I100000J0D01*
G01*
X8863226Y-4448120D02*
X8863226Y-3459400D01*
X2935226Y-11878560D02*
G75*
G02*
X2835230Y-11778560I4J100000D01*
G01*
X10739226Y-4548120D02*
X8963226Y-4548120D01*
X12924026Y-6824960D02*
G75*
G02*
X12804026Y-6824960I-60000J0D01*
G01*
X12804026Y-6824960D02*
G75*
G02*
X12924026Y-6824960I60000J0D01*
G01*
X8923226Y-10491720D02*
G75*
G02*
X8703226Y-10491720I-110000J0D01*
G01*
X8703226Y-10491720D02*
G75*
G02*
X8923226Y-10491720I110000J0D01*
G01*
X8763226Y-3359400D02*
G75*
G02*
X8863230Y-3459400I4J-100000D01*
G01*
X16663200Y-6624960D02*
G75*
G02*
X16543200Y-6624960I-60000J0D01*
G01*
X16543200Y-6624960D02*
G75*
G02*
X16663200Y-6624960I60000J0D01*
G01*
X24716000Y-5934960D02*
G75*
G02*
X24496000Y-5934960I-110000J0D01*
G01*
X24496000Y-5934960D02*
G75*
G02*
X24716000Y-5934960I110000J0D01*
G01*
X9781954Y-12772920D02*
X9780262Y-12778129D01*
X10839226Y-4844360D02*
X10839226Y-4648120D01*
X20604000Y-3459400D02*
X20604000Y-4448120D01*
X12924026Y-6424960D02*
G75*
G02*
X12804026Y-6424960I-60000J0D01*
G01*
X12804026Y-6424960D02*
G75*
G02*
X12924026Y-6424960I60000J0D01*
G01*
X16529117Y-11831180D02*
X15007495Y-12936703D01*
X17774823Y-13399421D02*
X19686964Y-12778129D01*
X16652000Y-6334960D02*
X16652000Y-5044360D01*
X18528000Y-4944360D02*
X16752000Y-4944360D01*
X12815226Y-6334960D02*
X12815226Y-5044360D01*
X21654000Y-12672920D02*
G75*
G02*
X21554000Y-12772920I-100000J0D01*
G01*
X26632000Y-11778560D02*
X26632000Y-3459400D01*
X10939226Y-4944360D02*
G75*
G02*
X10839230Y-4844360I4J100000D01*
G01*
X12815226Y-6925560D02*
X16652000Y-6925560D01*
X7813226Y-11978560D02*
X7813226Y-12672920D01*
X17385040Y-11626489D02*
G75*
G02*
X17165040Y-11626489I-110000J0D01*
G01*
X17165040Y-11626489D02*
G75*
G02*
X17385040Y-11626489I110000J0D01*
G01*
X16652000Y-6334960D02*
X12815226Y-6334960D01*
X2935226Y-3359400D02*
X8763226Y-3359400D01*
X11738097Y-13414268D02*
G75*
G02*
X11765974Y-13428473I-30907J-95112D01*
G01*
X12815226Y-9897360D02*
X16652000Y-9897360D01*
X12924026Y-9396760D02*
G75*
G02*
X12804026Y-9396760I-60000J0D01*
G01*
X12804026Y-9396760D02*
G75*
G02*
X12924026Y-9396760I60000J0D01*
G01*
X12924026Y-6624960D02*
G75*
G02*
X12804026Y-6624960I-60000J0D01*
G01*
X12804026Y-6624960D02*
G75*
G02*
X12924026Y-6624960I60000J0D01*
G01*
X9780262Y-12778129D02*
X11738097Y-13414268D01*
X4971226Y-5934960D02*
G75*
G02*
X4751226Y-5934960I-110000J0D01*
G01*
X4751226Y-5934960D02*
G75*
G02*
X4971226Y-5934960I110000J0D01*
G01*
X14985372Y-13076383D02*
X16091113Y-14598306D01*
X18628000Y-4648120D02*
G75*
G02*
X18728000Y-4548120I100000J0D01*
G01*
X16569897Y-11759655D02*
G75*
G02*
X16529117Y-11831180I-99557J9376D01*
G01*
X12715226Y-4944360D02*
G75*
G02*
X12815230Y-5044360I4J-100000D01*
G01*
X7713226Y-11878560D02*
G75*
G02*
X7813230Y-11978560I4J-100000D01*
G01*
X18628000Y-4648120D02*
X18628000Y-4844360D01*
X4971226Y-9897360D02*
G75*
G02*
X4751226Y-9897360I-110000J0D01*
G01*
X4751226Y-9897360D02*
G75*
G02*
X4971226Y-9897360I110000J0D01*
G01*
X14459731Y-12936703D02*
X12938109Y-11831180D01*
X16663200Y-6424960D02*
G75*
G02*
X16543200Y-6424960I-60000J0D01*
G01*
X16543200Y-6424960D02*
G75*
G02*
X16663200Y-6424960I60000J0D01*
G01*
X11765974Y-13428472D02*
X13295211Y-14539527D01*
X21754000Y-11878560D02*
X26532000Y-11878560D01*
X16652000Y-10883261D02*
X16652000Y-9897360D01*
X14459731Y-12936703D02*
G75*
G02*
X14481848Y-13076379I-58781J-80897D01*
G01*
X16652000Y-9306760D02*
X16652000Y-6925560D01*
X16652000Y-5044360D02*
G75*
G02*
X16752000Y-4944360I100000J0D01*
G01*
X7913226Y-12772920D02*
G75*
G02*
X7813230Y-12672920I4J100000D01*
G01*
X16663200Y-9596760D02*
G75*
G02*
X16543200Y-9596760I-60000J0D01*
G01*
X16543200Y-9596760D02*
G75*
G02*
X16663200Y-9596760I60000J0D01*
G01*
X17747552Y-13413188D02*
G75*
G02*
X17774822Y-13399420I58178J-81342D01*
G01*
X26632000Y-11778560D02*
G75*
G02*
X26532000Y-11878560I-100000J0D01*
G01*
X16091113Y-14598306D02*
X16131564Y-14568917D01*
X12302186Y-11626489D02*
G75*
G02*
X12082186Y-11626489I-110000J0D01*
G01*
X12082186Y-11626489D02*
G75*
G02*
X12302186Y-11626489I110000J0D01*
G01*
X14985372Y-13076383D02*
G75*
G02*
X15007492Y-12936698I80898J58783D01*
G01*
X2835226Y-11778560D02*
X2835226Y-3459400D01*
X2835226Y-3459400D02*
G75*
G02*
X2935226Y-3359396I100004J0D01*
G01*
X7913226Y-12772920D02*
X9781954Y-12772920D01*
X18788000Y-6529320D02*
G75*
G02*
X18568000Y-6529320I-110000J0D01*
G01*
X18568000Y-6529320D02*
G75*
G02*
X18788000Y-6529320I110000J0D01*
G01*
X16663200Y-9796760D02*
G75*
G02*
X16543200Y-9796760I-60000J0D01*
G01*
X16543200Y-9796760D02*
G75*
G02*
X16663200Y-9796760I60000J0D01*
G01*
X10739226Y-4548120D02*
G75*
G02*
X10839230Y-4648120I4J-100000D01*
G01*
X12815226Y-10883261D02*
X12815226Y-9897360D01*
X12924026Y-9796760D02*
G75*
G02*
X12804026Y-9796760I-60000J0D01*
G01*
X12804026Y-9796760D02*
G75*
G02*
X12924026Y-9796760I60000J0D01*
G01*
X16652000Y-9306760D02*
X12815226Y-9306760D01*
X21654000Y-12672920D02*
X21654000Y-11978560D01*
X20704000Y-3359400D02*
X26532000Y-3359400D01*
X12715226Y-4944360D02*
X10939226Y-4944360D01*
X13434891Y-14517404D02*
G75*
G02*
X13295211Y-14539527I-80901J58774D01*
G01*
X20504000Y-4548120D02*
X18728000Y-4548120D01*
X26532000Y-3359400D02*
G75*
G02*
X26632000Y-3459400I0J-100000D01*
G01*
X24716000Y-9897360D02*
G75*
G02*
X24496000Y-9897360I-110000J0D01*
G01*
X24496000Y-9897360D02*
G75*
G02*
X24716000Y-9897360I110000J0D01*
G01*
X12815226Y-9306760D02*
X12815226Y-6925560D01*
X16652000Y-10883261D02*
G75*
G02*
X16651559Y-10892638I-100000J1D01*
G01*
X16663200Y-6824960D02*
G75*
G02*
X16543200Y-6824960I-60000J0D01*
G01*
X16543200Y-6824960D02*
G75*
G02*
X16663200Y-6824960I60000J0D01*
G01*
X20764000Y-10491720D02*
G75*
G02*
X20544000Y-10491720I-110000J0D01*
G01*
X20544000Y-10491720D02*
G75*
G02*
X20764000Y-10491720I110000J0D01*
G01*
X10899226Y-6529320D02*
G75*
G02*
X10679226Y-6529320I-110000J0D01*
G01*
X10679226Y-6529320D02*
G75*
G02*
X10899226Y-6529320I110000J0D01*
G01*
X8963226Y-4548120D02*
G75*
G02*
X8863230Y-4448120I4J100000D01*
G01*
X19686964Y-12778129D02*
X19685272Y-12772920D01*
X20604000Y-3459400D02*
G75*
G02*
X20704000Y-3359400I100000J0D01*
G01*
X13434891Y-14517404D02*
X14481854Y-13076383D01*
X16569897Y-11759655D02*
X16651559Y-10892638D01*
X12938109Y-11831180D02*
G75*
G02*
X12897331Y-11759655I58781J80900D01*
G01*
X19685272Y-12772920D02*
X21554000Y-12772920D01*
X12897328Y-11759655D02*
X12815666Y-10892638D01*
D11*
X25113100Y-4421980D02*
X25113100Y-4317840D01*
X25181680Y-4249260D02*
X25341700Y-4249260D01*
X25341700Y-4490560D02*
X25181680Y-4490560D01*
X25379800Y-4287360D02*
X25379800Y-4452460D01*
X25430600Y-3850480D02*
X25430600Y-3682840D01*
X25499180Y-3614260D02*
X25666820Y-3614260D01*
X25499180Y-3919060D02*
X25666820Y-3919060D01*
X25735400Y-3850480D02*
X25735400Y-3682840D01*
X25113100Y-4421980D02*
G75*
G02*
X25181686Y-4490549I24780J-43800D01*
G01*
X25181680Y-4249260D02*
G75*
G02*
X25113111Y-4317846I-43800J-24780D01*
G01*
X25341700Y-4249260D02*
G75*
G02*
X25379800Y-4287360I0J-38100D01*
G01*
X25379800Y-4452460D02*
G75*
G02*
X25341700Y-4490560I-38100J0D01*
G01*
X25430600Y-3850480D02*
G75*
G02*
X25499186Y-3919049I24780J-43800D01*
G01*
X25499180Y-3614260D02*
G75*
G02*
X25430611Y-3682846I-43800J-24780D01*
G01*
X25666820Y-3919060D02*
G75*
G02*
X25735389Y-3850474I43800J24780D01*
G01*
X25735400Y-3682840D02*
G75*
G02*
X25666827Y-3614247I-24770J43810D01*
G01*
X3414326Y-4421980D02*
X3414326Y-4317840D01*
X3482906Y-4249260D02*
X3642926Y-4249260D01*
X3642926Y-4490560D02*
X3482906Y-4490560D01*
X3681026Y-4287360D02*
X3681026Y-4452460D01*
X3731826Y-3850480D02*
X3731826Y-3682840D01*
X3800406Y-3614260D02*
X3968046Y-3614260D01*
X3800406Y-3919060D02*
X3968046Y-3919060D01*
X4036626Y-3850480D02*
X4036626Y-3682840D01*
X3414326Y-4421980D02*
G75*
G02*
X3482912Y-4490549I24780J-43800D01*
G01*
X3482906Y-4249260D02*
G75*
G02*
X3414337Y-4317846I-43800J-24780D01*
G01*
X3642926Y-4249260D02*
G75*
G02*
X3681026Y-4287360I0J-38100D01*
G01*
X3681026Y-4452460D02*
G75*
G02*
X3642926Y-4490560I-38100J0D01*
G01*
X3731826Y-3850480D02*
G75*
G02*
X3800412Y-3919049I24780J-43800D01*
G01*
X3800406Y-3614260D02*
G75*
G02*
X3731837Y-3682846I-43800J-24780D01*
G01*
X3968046Y-3919060D02*
G75*
G02*
X4036615Y-3850474I43800J24780D01*
G01*
X4036626Y-3682840D02*
G75*
G02*
X3968053Y-3614247I-24770J43810D01*
G01*
D12*
D13*
X4630000Y-6380000D02*
X4670000Y-6420000D01*
X4670000Y-6380000D02*
X4630000Y-6420000D01*
X4630000Y-8380000D02*
X4670000Y-8420000D01*
X4670000Y-8380000D02*
X4630000Y-8420000D01*
X4630000Y-9280000D02*
X4670000Y-9320000D01*
X4670000Y-9280000D02*
X4630000Y-9320000D01*
X4880000Y-4680000D02*
X4920000Y-4720000D01*
X4920000Y-4680000D02*
X4880000Y-4720000D01*
X4980000Y-5030000D02*
X5020000Y-5070000D01*
X5020000Y-5030000D02*
X4980000Y-5070000D01*
X4980000Y-8030000D02*
X5020000Y-8070000D01*
X5020000Y-8030000D02*
X4980000Y-8070000D01*
X4980000Y-10230000D02*
X5020000Y-10270000D01*
X5020000Y-10230000D02*
X4980000Y-10270000D01*
X6580000Y-4430000D02*
X6620000Y-4470000D01*
X6620000Y-4430000D02*
X6580000Y-4470000D01*
X6580000Y-6380000D02*
X6620000Y-6420000D01*
X6620000Y-6380000D02*
X6580000Y-6420000D01*
X6580000Y-7730000D02*
X6620000Y-7770000D01*
X6620000Y-7730000D02*
X6580000Y-7770000D01*
X6930000Y-9480000D02*
X6970000Y-9520000D01*
X6970000Y-9480000D02*
X6930000Y-9520000D01*
X8480000Y-4080000D02*
X8520000Y-4120000D01*
X8520000Y-4080000D02*
X8480000Y-4120000D01*
X8630000Y-5780000D02*
X8670000Y-5820000D01*
X8670000Y-5780000D02*
X8630000Y-5820000D01*
X8630000Y-7830000D02*
X8670000Y-7870000D01*
X8670000Y-7830000D02*
X8630000Y-7870000D01*
X8630000Y-10230000D02*
X8670000Y-10270000D01*
X8670000Y-10230000D02*
X8630000Y-10270000D01*
X10580000Y-5080000D02*
X10620000Y-5120000D01*
X10620000Y-5080000D02*
X10580000Y-5120000D01*
X10580000Y-7030000D02*
X10620000Y-7070000D01*
X10620000Y-7030000D02*
X10580000Y-7070000D01*
X10580000Y-9030000D02*
X10620000Y-9070000D01*
X10620000Y-9030000D02*
X10580000Y-9070000D01*
X10580000Y-10930000D02*
X10620000Y-10970000D01*
X10620000Y-10930000D02*
X10580000Y-10970000D01*
X17630000Y-11080000D02*
X17670000Y-11120000D01*
X17670000Y-11080000D02*
X17630000Y-11120000D01*
X18480000Y-5680000D02*
X18520000Y-5720000D01*
X18520000Y-5680000D02*
X18480000Y-5720000D01*
X18480000Y-7380000D02*
X18520000Y-7420000D01*
X18520000Y-7380000D02*
X18480000Y-7420000D01*
X18480000Y-9330000D02*
X18520000Y-9370000D01*
X18520000Y-9330000D02*
X18480000Y-9370000D01*
X20430000Y-5030000D02*
X20470000Y-5070000D01*
X20470000Y-5030000D02*
X20430000Y-5070000D01*
X20430000Y-6930000D02*
X20470000Y-6970000D01*
X20470000Y-6930000D02*
X20430000Y-6970000D01*
X20430000Y-8930000D02*
X20470000Y-8970000D01*
X20470000Y-8930000D02*
X20430000Y-8970000D01*
X20430000Y-9780000D02*
X20470000Y-9820000D01*
X20470000Y-9780000D02*
X20430000Y-9820000D01*
X22430000Y-3930000D02*
X22470000Y-3970000D01*
X22470000Y-3930000D02*
X22430000Y-3970000D01*
X22430000Y-5830000D02*
X22470000Y-5870000D01*
X22470000Y-5830000D02*
X22430000Y-5870000D01*
X22430000Y-7780000D02*
X22470000Y-7820000D01*
X22470000Y-7780000D02*
X22430000Y-7820000D01*
X22430000Y-10130000D02*
X22470000Y-10170000D01*
X22470000Y-10130000D02*
X22430000Y-10170000D01*
X23880000Y-10430000D02*
X23920000Y-10470000D01*
X23920000Y-10430000D02*
X23880000Y-10470000D01*
X24180000Y-9480000D02*
X24220000Y-9520000D01*
X24220000Y-9480000D02*
X24180000Y-9520000D01*
X24230000Y-8080000D02*
X24270000Y-8120000D01*
X24270000Y-8080000D02*
X24230000Y-8120000D01*
X24280000Y-4780000D02*
X24320000Y-4820000D01*
X24320000Y-4780000D02*
X24280000Y-4820000D01*
X24380000Y-4430000D02*
X24420000Y-4470000D01*
X24420000Y-4430000D02*
X24380000Y-4470000D01*
X24380000Y-6380000D02*
X24420000Y-6420000D01*
X24420000Y-6380000D02*
X24380000Y-6420000D01*
X24430000Y-8030000D02*
X24470000Y-8070000D01*
X24470000Y-8030000D02*
X24430000Y-8070000D01*
X24452500Y-5580000D02*
X24492500Y-5620000D01*
X24492500Y-5580000D02*
X24452500Y-5620000D01*
X24530000Y-5130000D02*
X24570000Y-5170000D01*
X24570000Y-5130000D02*
X24530000Y-5170000D01*
X25180000Y-4980000D02*
X25220000Y-5020000D01*
X25220000Y-4980000D02*
X25180000Y-5020000D01*
X25430000Y-5680000D02*
X25470000Y-5720000D01*
X25470000Y-5680000D02*
X25430000Y-5720000D01*
X3172226Y-3734860D02*
G75*
G02*
X3072226Y-3734860I-50000J0D01*
G01*
X3072226Y-3734860D02*
G75*
G02*
X3172226Y-3734860I50000J0D01*
G01*
X3172226Y-3988860D02*
G75*
G02*
X3072226Y-3988860I-50000J0D01*
G01*
X3072226Y-3988860D02*
G75*
G02*
X3172226Y-3988860I50000J0D01*
G01*
X3172226Y-4242860D02*
G75*
G02*
X3072226Y-4242860I-50000J0D01*
G01*
X3072226Y-4242860D02*
G75*
G02*
X3172226Y-4242860I50000J0D01*
G01*
X3172226Y-4496860D02*
G75*
G02*
X3072226Y-4496860I-50000J0D01*
G01*
X3072226Y-4496860D02*
G75*
G02*
X3172226Y-4496860I50000J0D01*
G01*
X3172226Y-4750860D02*
G75*
G02*
X3072226Y-4750860I-50000J0D01*
G01*
X3072226Y-4750860D02*
G75*
G02*
X3172226Y-4750860I50000J0D01*
G01*
X3172226Y-5004860D02*
G75*
G02*
X3072226Y-5004860I-50000J0D01*
G01*
X3072226Y-5004860D02*
G75*
G02*
X3172226Y-5004860I50000J0D01*
G01*
X3172226Y-5258860D02*
G75*
G02*
X3072226Y-5258860I-50000J0D01*
G01*
X3072226Y-5258860D02*
G75*
G02*
X3172226Y-5258860I50000J0D01*
G01*
X4696226Y-3734860D02*
G75*
G02*
X4596226Y-3734860I-50000J0D01*
G01*
X4596226Y-3734860D02*
G75*
G02*
X4696226Y-3734860I50000J0D01*
G01*
X4696226Y-3988860D02*
G75*
G02*
X4596226Y-3988860I-50000J0D01*
G01*
X4596226Y-3988860D02*
G75*
G02*
X4696226Y-3988860I50000J0D01*
G01*
X4696226Y-4242860D02*
G75*
G02*
X4596226Y-4242860I-50000J0D01*
G01*
X4596226Y-4242860D02*
G75*
G02*
X4696226Y-4242860I50000J0D01*
G01*
X4696226Y-4496860D02*
G75*
G02*
X4596226Y-4496860I-50000J0D01*
G01*
X4596226Y-4496860D02*
G75*
G02*
X4696226Y-4496860I50000J0D01*
G01*
X4696226Y-4750860D02*
G75*
G02*
X4596226Y-4750860I-50000J0D01*
G01*
X4596226Y-4750860D02*
G75*
G02*
X4696226Y-4750860I50000J0D01*
G01*
X4696226Y-5004860D02*
G75*
G02*
X4596226Y-5004860I-50000J0D01*
G01*
X4596226Y-5004860D02*
G75*
G02*
X4696226Y-5004860I50000J0D01*
G01*
X4696226Y-5258860D02*
G75*
G02*
X4596226Y-5258860I-50000J0D01*
G01*
X4596226Y-5258860D02*
G75*
G02*
X4696226Y-5258860I50000J0D01*
G01*
X24871000Y-3734860D02*
G75*
G02*
X24771000Y-3734860I-50000J0D01*
G01*
X24771000Y-3734860D02*
G75*
G02*
X24871000Y-3734860I50000J0D01*
G01*
X24871000Y-3988860D02*
G75*
G02*
X24771000Y-3988860I-50000J0D01*
G01*
X24771000Y-3988860D02*
G75*
G02*
X24871000Y-3988860I50000J0D01*
G01*
X24871000Y-4242860D02*
G75*
G02*
X24771000Y-4242860I-50000J0D01*
G01*
X24771000Y-4242860D02*
G75*
G02*
X24871000Y-4242860I50000J0D01*
G01*
X24871000Y-4496860D02*
G75*
G02*
X24771000Y-4496860I-50000J0D01*
G01*
X24771000Y-4496860D02*
G75*
G02*
X24871000Y-4496860I50000J0D01*
G01*
X24871000Y-4750860D02*
G75*
G02*
X24771000Y-4750860I-50000J0D01*
G01*
X24771000Y-4750860D02*
G75*
G02*
X24871000Y-4750860I50000J0D01*
G01*
X24871000Y-5004860D02*
G75*
G02*
X24771000Y-5004860I-50000J0D01*
G01*
X24771000Y-5004860D02*
G75*
G02*
X24871000Y-5004860I50000J0D01*
G01*
X24871000Y-5258860D02*
G75*
G02*
X24771000Y-5258860I-50000J0D01*
G01*
X24771000Y-5258860D02*
G75*
G02*
X24871000Y-5258860I50000J0D01*
G01*
X26395000Y-3734860D02*
G75*
G02*
X26295000Y-3734860I-50000J0D01*
G01*
X26295000Y-3734860D02*
G75*
G02*
X26395000Y-3734860I50000J0D01*
G01*
X26395000Y-3988860D02*
G75*
G02*
X26295000Y-3988860I-50000J0D01*
G01*
X26295000Y-3988860D02*
G75*
G02*
X26395000Y-3988860I50000J0D01*
G01*
X26395000Y-4242860D02*
G75*
G02*
X26295000Y-4242860I-50000J0D01*
G01*
X26295000Y-4242860D02*
G75*
G02*
X26395000Y-4242860I50000J0D01*
G01*
X26395000Y-4496860D02*
G75*
G02*
X26295000Y-4496860I-50000J0D01*
G01*
X26295000Y-4496860D02*
G75*
G02*
X26395000Y-4496860I50000J0D01*
G01*
X26395000Y-4750860D02*
G75*
G02*
X26295000Y-4750860I-50000J0D01*
G01*
X26295000Y-4750860D02*
G75*
G02*
X26395000Y-4750860I50000J0D01*
G01*
X26395000Y-5004860D02*
G75*
G02*
X26295000Y-5004860I-50000J0D01*
G01*
X26295000Y-5004860D02*
G75*
G02*
X26395000Y-5004860I50000J0D01*
G01*
X26395000Y-5258860D02*
G75*
G02*
X26295000Y-5258860I-50000J0D01*
G01*
X26295000Y-5258860D02*
G75*
G02*
X26395000Y-5258860I50000J0D01*
G01*
D14*
X3439726Y-4223860D02*
X3439726Y-4325460D01*
X3388926Y-4274660D02*
X3490526Y-4274660D01*
X3439726Y-4414360D02*
X3439726Y-4515960D01*
X3388926Y-4465160D02*
X3490526Y-4465160D01*
X3757226Y-3588860D02*
X3757226Y-3690460D01*
X3706426Y-3639660D02*
X3808026Y-3639660D01*
X3757226Y-3842860D02*
X3757226Y-3944460D01*
X3706426Y-3893660D02*
X3808026Y-3893660D01*
X4011226Y-3588860D02*
X4011226Y-3690460D01*
X3960426Y-3639660D02*
X4062026Y-3639660D01*
X4011226Y-3842860D02*
X4011226Y-3944460D01*
X3960426Y-3893660D02*
X4062026Y-3893660D01*
X7725226Y-9652200D02*
X7725226Y-9753800D01*
X7674426Y-9703000D02*
X7776026Y-9703000D01*
X7925226Y-9652200D02*
X7925226Y-9753800D01*
X7874426Y-9703000D02*
X7976026Y-9703000D01*
X21542000Y-9652200D02*
X21542000Y-9753800D01*
X21491200Y-9703000D02*
X21592800Y-9703000D01*
X21742000Y-9652200D02*
X21742000Y-9753800D01*
X21691200Y-9703000D02*
X21792800Y-9703000D01*
X25138500Y-4223860D02*
X25138500Y-4325460D01*
X25087700Y-4274660D02*
X25189300Y-4274660D01*
X25138500Y-4414360D02*
X25138500Y-4515960D01*
X25087700Y-4465160D02*
X25189300Y-4465160D01*
X25456000Y-3588860D02*
X25456000Y-3690460D01*
X25405200Y-3639660D02*
X25506800Y-3639660D01*
X25456000Y-3842860D02*
X25456000Y-3944460D01*
X25405200Y-3893660D02*
X25506800Y-3893660D01*
X25710000Y-3588860D02*
X25710000Y-3690460D01*
X25659200Y-3639660D02*
X25760800Y-3639660D01*
X25710000Y-3842860D02*
X25710000Y-3944460D01*
X25659200Y-3893660D02*
X25760800Y-3893660D01*
D12*
X3088502Y-14917290D02*
X3088502Y-14717290D01*
X3088502Y-14717290D02*
X3136121Y-14717290D01*
X3136121Y-14717290D02*
X3164693Y-14726813D01*
X3164693Y-14726813D02*
X3183741Y-14745861D01*
X3183741Y-14745861D02*
X3193264Y-14764909D01*
X3193264Y-14764909D02*
X3202788Y-14803004D01*
X3202788Y-14803004D02*
X3202788Y-14831575D01*
X3202788Y-14831575D02*
X3193264Y-14869671D01*
X3193264Y-14869671D02*
X3183741Y-14888718D01*
X3183741Y-14888718D02*
X3164693Y-14907766D01*
X3164693Y-14907766D02*
X3136121Y-14917290D01*
X3136121Y-14917290D02*
X3088502Y-14917290D01*
X3288502Y-14917290D02*
X3288502Y-14783956D01*
X3288502Y-14822052D02*
X3298026Y-14803004D01*
X3298026Y-14803004D02*
X3307550Y-14793480D01*
X3307550Y-14793480D02*
X3326598Y-14783956D01*
X3326598Y-14783956D02*
X3345645Y-14783956D01*
X3412312Y-14917290D02*
X3412312Y-14783956D01*
X3412312Y-14717290D02*
X3402788Y-14726813D01*
X3402788Y-14726813D02*
X3412312Y-14736337D01*
X3412312Y-14736337D02*
X3421836Y-14726813D01*
X3421836Y-14726813D02*
X3412312Y-14717290D01*
X3412312Y-14717290D02*
X3412312Y-14736337D01*
X3536121Y-14917290D02*
X3517074Y-14907766D01*
X3517074Y-14907766D02*
X3507550Y-14888718D01*
X3507550Y-14888718D02*
X3507550Y-14717290D01*
X3640883Y-14917290D02*
X3621836Y-14907766D01*
X3621836Y-14907766D02*
X3612312Y-14888718D01*
X3612312Y-14888718D02*
X3612312Y-14717290D01*
X3869455Y-14917290D02*
X3869455Y-14717290D01*
X3869455Y-14717290D02*
X3936122Y-14860147D01*
X3936122Y-14860147D02*
X4002788Y-14717290D01*
X4002788Y-14717290D02*
X4002788Y-14917290D01*
X4183741Y-14917290D02*
X4183741Y-14812528D01*
X4183741Y-14812528D02*
X4174217Y-14793480D01*
X4174217Y-14793480D02*
X4155169Y-14783956D01*
X4155169Y-14783956D02*
X4117074Y-14783956D01*
X4117074Y-14783956D02*
X4098026Y-14793480D01*
X4183741Y-14907766D02*
X4164693Y-14917290D01*
X4164693Y-14917290D02*
X4117074Y-14917290D01*
X4117074Y-14917290D02*
X4098026Y-14907766D01*
X4098026Y-14907766D02*
X4088502Y-14888718D01*
X4088502Y-14888718D02*
X4088502Y-14869671D01*
X4088502Y-14869671D02*
X4098026Y-14850623D01*
X4098026Y-14850623D02*
X4117074Y-14841099D01*
X4117074Y-14841099D02*
X4164693Y-14841099D01*
X4164693Y-14841099D02*
X4183741Y-14831575D01*
X4278979Y-14783956D02*
X4278979Y-14983956D01*
X4278979Y-14793480D02*
X4298026Y-14783956D01*
X4298026Y-14783956D02*
X4336122Y-14783956D01*
X4336122Y-14783956D02*
X4355169Y-14793480D01*
X4355169Y-14793480D02*
X4364693Y-14803004D01*
X4364693Y-14803004D02*
X4374217Y-14822052D01*
X4374217Y-14822052D02*
X4374217Y-14879194D01*
X4374217Y-14879194D02*
X4364693Y-14898242D01*
X4364693Y-14898242D02*
X4355169Y-14907766D01*
X4355169Y-14907766D02*
X4336122Y-14917290D01*
X4336122Y-14917290D02*
X4298026Y-14917290D01*
X4298026Y-14917290D02*
X4278979Y-14907766D01*
X4459931Y-14898242D02*
X4469455Y-14907766D01*
X4469455Y-14907766D02*
X4459931Y-14917290D01*
X4459931Y-14917290D02*
X4450407Y-14907766D01*
X4450407Y-14907766D02*
X4459931Y-14898242D01*
X4459931Y-14898242D02*
X4459931Y-14917290D01*
X4459931Y-14793480D02*
X4469455Y-14803004D01*
X4469455Y-14803004D02*
X4459931Y-14812528D01*
X4459931Y-14812528D02*
X4450407Y-14803004D01*
X4450407Y-14803004D02*
X4459931Y-14793480D01*
X4459931Y-14793480D02*
X4459931Y-14812528D01*
D13*
X2787726Y-15225806D02*
X2827726Y-15265806D01*
X2827726Y-15225806D02*
X2787726Y-15265806D01*
D12*
X3126598Y-15137290D02*
X3145645Y-15137290D01*
X3145645Y-15137290D02*
X3164693Y-15146813D01*
X3164693Y-15146813D02*
X3174217Y-15156337D01*
X3174217Y-15156337D02*
X3183741Y-15175385D01*
X3183741Y-15175385D02*
X3193264Y-15213480D01*
X3193264Y-15213480D02*
X3193264Y-15261099D01*
X3193264Y-15261099D02*
X3183741Y-15299194D01*
X3183741Y-15299194D02*
X3174217Y-15318242D01*
X3174217Y-15318242D02*
X3164693Y-15327766D01*
X3164693Y-15327766D02*
X3145645Y-15337290D01*
X3145645Y-15337290D02*
X3126598Y-15337290D01*
X3126598Y-15337290D02*
X3107550Y-15327766D01*
X3107550Y-15327766D02*
X3098026Y-15318242D01*
X3098026Y-15318242D02*
X3088502Y-15299194D01*
X3088502Y-15299194D02*
X3078979Y-15261099D01*
X3078979Y-15261099D02*
X3078979Y-15213480D01*
X3078979Y-15213480D02*
X3088502Y-15175385D01*
X3088502Y-15175385D02*
X3098026Y-15156337D01*
X3098026Y-15156337D02*
X3107550Y-15146813D01*
X3107550Y-15146813D02*
X3126598Y-15137290D01*
X3278979Y-15318242D02*
X3288502Y-15327766D01*
X3288502Y-15327766D02*
X3278979Y-15337290D01*
X3278979Y-15337290D02*
X3269455Y-15327766D01*
X3269455Y-15327766D02*
X3278979Y-15318242D01*
X3278979Y-15318242D02*
X3278979Y-15337290D01*
X3459931Y-15203956D02*
X3459931Y-15337290D01*
X3412312Y-15127766D02*
X3364693Y-15270623D01*
X3364693Y-15270623D02*
X3488502Y-15270623D01*
X3602788Y-15137290D02*
X3621836Y-15137290D01*
X3621836Y-15137290D02*
X3640883Y-15146813D01*
X3640883Y-15146813D02*
X3650407Y-15156337D01*
X3650407Y-15156337D02*
X3659931Y-15175385D01*
X3659931Y-15175385D02*
X3669455Y-15213480D01*
X3669455Y-15213480D02*
X3669455Y-15261099D01*
X3669455Y-15261099D02*
X3659931Y-15299194D01*
X3659931Y-15299194D02*
X3650407Y-15318242D01*
X3650407Y-15318242D02*
X3640883Y-15327766D01*
X3640883Y-15327766D02*
X3621836Y-15337290D01*
X3621836Y-15337290D02*
X3602788Y-15337290D01*
X3602788Y-15337290D02*
X3583741Y-15327766D01*
X3583741Y-15327766D02*
X3574217Y-15318242D01*
X3574217Y-15318242D02*
X3564693Y-15299194D01*
X3564693Y-15299194D02*
X3555169Y-15261099D01*
X3555169Y-15261099D02*
X3555169Y-15213480D01*
X3555169Y-15213480D02*
X3564693Y-15175385D01*
X3564693Y-15175385D02*
X3574217Y-15156337D01*
X3574217Y-15156337D02*
X3583741Y-15146813D01*
X3583741Y-15146813D02*
X3602788Y-15137290D01*
X3793264Y-15137290D02*
X3812312Y-15137290D01*
X3812312Y-15137290D02*
X3831360Y-15146813D01*
X3831360Y-15146813D02*
X3840883Y-15156337D01*
X3840883Y-15156337D02*
X3850407Y-15175385D01*
X3850407Y-15175385D02*
X3859931Y-15213480D01*
X3859931Y-15213480D02*
X3859931Y-15261099D01*
X3859931Y-15261099D02*
X3850407Y-15299194D01*
X3850407Y-15299194D02*
X3840883Y-15318242D01*
X3840883Y-15318242D02*
X3831360Y-15327766D01*
X3831360Y-15327766D02*
X3812312Y-15337290D01*
X3812312Y-15337290D02*
X3793264Y-15337290D01*
X3793264Y-15337290D02*
X3774217Y-15327766D01*
X3774217Y-15327766D02*
X3764693Y-15318242D01*
X3764693Y-15318242D02*
X3755169Y-15299194D01*
X3755169Y-15299194D02*
X3745645Y-15261099D01*
X3745645Y-15261099D02*
X3745645Y-15213480D01*
X3745645Y-15213480D02*
X3755169Y-15175385D01*
X3755169Y-15175385D02*
X3764693Y-15156337D01*
X3764693Y-15156337D02*
X3774217Y-15146813D01*
X3774217Y-15146813D02*
X3793264Y-15137290D01*
X3945645Y-15337290D02*
X3945645Y-15203956D01*
X3945645Y-15223004D02*
X3955169Y-15213480D01*
X3955169Y-15213480D02*
X3974217Y-15203956D01*
X3974217Y-15203956D02*
X4002788Y-15203956D01*
X4002788Y-15203956D02*
X4021836Y-15213480D01*
X4021836Y-15213480D02*
X4031360Y-15232528D01*
X4031360Y-15232528D02*
X4031360Y-15337290D01*
X4031360Y-15232528D02*
X4040883Y-15213480D01*
X4040883Y-15213480D02*
X4059931Y-15203956D01*
X4059931Y-15203956D02*
X4088502Y-15203956D01*
X4088502Y-15203956D02*
X4107550Y-15213480D01*
X4107550Y-15213480D02*
X4117074Y-15232528D01*
X4117074Y-15232528D02*
X4117074Y-15337290D01*
X4212312Y-15337290D02*
X4212312Y-15203956D01*
X4212312Y-15223004D02*
X4221836Y-15213480D01*
X4221836Y-15213480D02*
X4240884Y-15203956D01*
X4240884Y-15203956D02*
X4269455Y-15203956D01*
X4269455Y-15203956D02*
X4288503Y-15213480D01*
X4288503Y-15213480D02*
X4298026Y-15232528D01*
X4298026Y-15232528D02*
X4298026Y-15337290D01*
X4298026Y-15232528D02*
X4307550Y-15213480D01*
X4307550Y-15213480D02*
X4326598Y-15203956D01*
X4326598Y-15203956D02*
X4355169Y-15203956D01*
X4355169Y-15203956D02*
X4374217Y-15213480D01*
X4374217Y-15213480D02*
X4383741Y-15232528D01*
X4383741Y-15232528D02*
X4383741Y-15337290D01*
X4774217Y-15127766D02*
X4602788Y-15384909D01*
X5031360Y-15137290D02*
X5050408Y-15137290D01*
X5050408Y-15137290D02*
X5069455Y-15146813D01*
X5069455Y-15146813D02*
X5078979Y-15156337D01*
X5078979Y-15156337D02*
X5088503Y-15175385D01*
X5088503Y-15175385D02*
X5098027Y-15213480D01*
X5098027Y-15213480D02*
X5098027Y-15261099D01*
X5098027Y-15261099D02*
X5088503Y-15299194D01*
X5088503Y-15299194D02*
X5078979Y-15318242D01*
X5078979Y-15318242D02*
X5069455Y-15327766D01*
X5069455Y-15327766D02*
X5050408Y-15337290D01*
X5050408Y-15337290D02*
X5031360Y-15337290D01*
X5031360Y-15337290D02*
X5012312Y-15327766D01*
X5012312Y-15327766D02*
X5002788Y-15318242D01*
X5002788Y-15318242D02*
X4993265Y-15299194D01*
X4993265Y-15299194D02*
X4983741Y-15261099D01*
X4983741Y-15261099D02*
X4983741Y-15213480D01*
X4983741Y-15213480D02*
X4993265Y-15175385D01*
X4993265Y-15175385D02*
X5002788Y-15156337D01*
X5002788Y-15156337D02*
X5012312Y-15146813D01*
X5012312Y-15146813D02*
X5031360Y-15137290D01*
X5183741Y-15318242D02*
X5193265Y-15327766D01*
X5193265Y-15327766D02*
X5183741Y-15337290D01*
X5183741Y-15337290D02*
X5174217Y-15327766D01*
X5174217Y-15327766D02*
X5183741Y-15318242D01*
X5183741Y-15318242D02*
X5183741Y-15337290D01*
X5317074Y-15137290D02*
X5336122Y-15137290D01*
X5336122Y-15137290D02*
X5355169Y-15146813D01*
X5355169Y-15146813D02*
X5364693Y-15156337D01*
X5364693Y-15156337D02*
X5374217Y-15175385D01*
X5374217Y-15175385D02*
X5383741Y-15213480D01*
X5383741Y-15213480D02*
X5383741Y-15261099D01*
X5383741Y-15261099D02*
X5374217Y-15299194D01*
X5374217Y-15299194D02*
X5364693Y-15318242D01*
X5364693Y-15318242D02*
X5355169Y-15327766D01*
X5355169Y-15327766D02*
X5336122Y-15337290D01*
X5336122Y-15337290D02*
X5317074Y-15337290D01*
X5317074Y-15337290D02*
X5298027Y-15327766D01*
X5298027Y-15327766D02*
X5288503Y-15318242D01*
X5288503Y-15318242D02*
X5278979Y-15299194D01*
X5278979Y-15299194D02*
X5269455Y-15261099D01*
X5269455Y-15261099D02*
X5269455Y-15213480D01*
X5269455Y-15213480D02*
X5278979Y-15175385D01*
X5278979Y-15175385D02*
X5288503Y-15156337D01*
X5288503Y-15156337D02*
X5298027Y-15146813D01*
X5298027Y-15146813D02*
X5317074Y-15137290D01*
X5574217Y-15337290D02*
X5459931Y-15337290D01*
X5517074Y-15337290D02*
X5517074Y-15137290D01*
X5517074Y-15137290D02*
X5498027Y-15165861D01*
X5498027Y-15165861D02*
X5478979Y-15184909D01*
X5478979Y-15184909D02*
X5459931Y-15194432D01*
X5755169Y-15137290D02*
X5659931Y-15137290D01*
X5659931Y-15137290D02*
X5650407Y-15232528D01*
X5650407Y-15232528D02*
X5659931Y-15223004D01*
X5659931Y-15223004D02*
X5678979Y-15213480D01*
X5678979Y-15213480D02*
X5726598Y-15213480D01*
X5726598Y-15213480D02*
X5745646Y-15223004D01*
X5745646Y-15223004D02*
X5755169Y-15232528D01*
X5755169Y-15232528D02*
X5764693Y-15251575D01*
X5764693Y-15251575D02*
X5764693Y-15299194D01*
X5764693Y-15299194D02*
X5755169Y-15318242D01*
X5755169Y-15318242D02*
X5745646Y-15327766D01*
X5745646Y-15327766D02*
X5726598Y-15337290D01*
X5726598Y-15337290D02*
X5678979Y-15337290D01*
X5678979Y-15337290D02*
X5659931Y-15327766D01*
X5659931Y-15327766D02*
X5650407Y-15318242D01*
X5831360Y-15137290D02*
X5964693Y-15137290D01*
X5964693Y-15137290D02*
X5878979Y-15337290D01*
X6031360Y-15137290D02*
X6031360Y-15175385D01*
X6107550Y-15137290D02*
X6107550Y-15175385D01*
X6402789Y-15413480D02*
X6393265Y-15403956D01*
X6393265Y-15403956D02*
X6374217Y-15375385D01*
X6374217Y-15375385D02*
X6364693Y-15356337D01*
X6364693Y-15356337D02*
X6355169Y-15327766D01*
X6355169Y-15327766D02*
X6345646Y-15280147D01*
X6345646Y-15280147D02*
X6345646Y-15242052D01*
X6345646Y-15242052D02*
X6355169Y-15194432D01*
X6355169Y-15194432D02*
X6364693Y-15165861D01*
X6364693Y-15165861D02*
X6374217Y-15146813D01*
X6374217Y-15146813D02*
X6393265Y-15118242D01*
X6393265Y-15118242D02*
X6402789Y-15108718D01*
X6564693Y-15203956D02*
X6564693Y-15337290D01*
X6517074Y-15127766D02*
X6469455Y-15270623D01*
X6469455Y-15270623D02*
X6593265Y-15270623D01*
X6659931Y-15156337D02*
X6669455Y-15146813D01*
X6669455Y-15146813D02*
X6688503Y-15137290D01*
X6688503Y-15137290D02*
X6736122Y-15137290D01*
X6736122Y-15137290D02*
X6755169Y-15146813D01*
X6755169Y-15146813D02*
X6764693Y-15156337D01*
X6764693Y-15156337D02*
X6774217Y-15175385D01*
X6774217Y-15175385D02*
X6774217Y-15194432D01*
X6774217Y-15194432D02*
X6764693Y-15223004D01*
X6764693Y-15223004D02*
X6650408Y-15337290D01*
X6650408Y-15337290D02*
X6774217Y-15337290D01*
X7012312Y-15337290D02*
X7012312Y-15137290D01*
X7098027Y-15337290D02*
X7098027Y-15232528D01*
X7098027Y-15232528D02*
X7088503Y-15213480D01*
X7088503Y-15213480D02*
X7069455Y-15203956D01*
X7069455Y-15203956D02*
X7040884Y-15203956D01*
X7040884Y-15203956D02*
X7021836Y-15213480D01*
X7021836Y-15213480D02*
X7012312Y-15223004D01*
X7221836Y-15337290D02*
X7202789Y-15327766D01*
X7202789Y-15327766D02*
X7193265Y-15318242D01*
X7193265Y-15318242D02*
X7183741Y-15299194D01*
X7183741Y-15299194D02*
X7183741Y-15242052D01*
X7183741Y-15242052D02*
X7193265Y-15223004D01*
X7193265Y-15223004D02*
X7202789Y-15213480D01*
X7202789Y-15213480D02*
X7221836Y-15203956D01*
X7221836Y-15203956D02*
X7250408Y-15203956D01*
X7250408Y-15203956D02*
X7269455Y-15213480D01*
X7269455Y-15213480D02*
X7278979Y-15223004D01*
X7278979Y-15223004D02*
X7288503Y-15242052D01*
X7288503Y-15242052D02*
X7288503Y-15299194D01*
X7288503Y-15299194D02*
X7278979Y-15318242D01*
X7278979Y-15318242D02*
X7269455Y-15327766D01*
X7269455Y-15327766D02*
X7250408Y-15337290D01*
X7250408Y-15337290D02*
X7221836Y-15337290D01*
X7402789Y-15337290D02*
X7383741Y-15327766D01*
X7383741Y-15327766D02*
X7374217Y-15308718D01*
X7374217Y-15308718D02*
X7374217Y-15137290D01*
X7555170Y-15327766D02*
X7536122Y-15337290D01*
X7536122Y-15337290D02*
X7498027Y-15337290D01*
X7498027Y-15337290D02*
X7478979Y-15327766D01*
X7478979Y-15327766D02*
X7469455Y-15308718D01*
X7469455Y-15308718D02*
X7469455Y-15232528D01*
X7469455Y-15232528D02*
X7478979Y-15213480D01*
X7478979Y-15213480D02*
X7498027Y-15203956D01*
X7498027Y-15203956D02*
X7536122Y-15203956D01*
X7536122Y-15203956D02*
X7555170Y-15213480D01*
X7555170Y-15213480D02*
X7564693Y-15232528D01*
X7564693Y-15232528D02*
X7564693Y-15251575D01*
X7564693Y-15251575D02*
X7469455Y-15270623D01*
X7640884Y-15327766D02*
X7659931Y-15337290D01*
X7659931Y-15337290D02*
X7698027Y-15337290D01*
X7698027Y-15337290D02*
X7717074Y-15327766D01*
X7717074Y-15327766D02*
X7726598Y-15308718D01*
X7726598Y-15308718D02*
X7726598Y-15299194D01*
X7726598Y-15299194D02*
X7717074Y-15280147D01*
X7717074Y-15280147D02*
X7698027Y-15270623D01*
X7698027Y-15270623D02*
X7669455Y-15270623D01*
X7669455Y-15270623D02*
X7650408Y-15261099D01*
X7650408Y-15261099D02*
X7640884Y-15242052D01*
X7640884Y-15242052D02*
X7640884Y-15232528D01*
X7640884Y-15232528D02*
X7650408Y-15213480D01*
X7650408Y-15213480D02*
X7669455Y-15203956D01*
X7669455Y-15203956D02*
X7698027Y-15203956D01*
X7698027Y-15203956D02*
X7717074Y-15213480D01*
X7793265Y-15413480D02*
X7802789Y-15403956D01*
X7802789Y-15403956D02*
X7821836Y-15375385D01*
X7821836Y-15375385D02*
X7831360Y-15356337D01*
X7831360Y-15356337D02*
X7840884Y-15327766D01*
X7840884Y-15327766D02*
X7850408Y-15280147D01*
X7850408Y-15280147D02*
X7850408Y-15242052D01*
X7850408Y-15242052D02*
X7840884Y-15194432D01*
X7840884Y-15194432D02*
X7831360Y-15165861D01*
X7831360Y-15165861D02*
X7821836Y-15146813D01*
X7821836Y-15146813D02*
X7802789Y-15118242D01*
X7802789Y-15118242D02*
X7793265Y-15108718D01*
D13*
X2827726Y-15509806D02*
G75*
G02*
X2727726Y-15509806I-50000J0D01*
G01*
X2727726Y-15509806D02*
G75*
G02*
X2827726Y-15509806I50000J0D01*
G01*
D12*
X3193264Y-15601290D02*
X3078979Y-15601290D01*
X3136121Y-15601290D02*
X3136121Y-15401290D01*
X3136121Y-15401290D02*
X3117074Y-15429861D01*
X3117074Y-15429861D02*
X3098026Y-15448909D01*
X3098026Y-15448909D02*
X3078979Y-15458432D01*
X3278979Y-15582242D02*
X3288502Y-15591766D01*
X3288502Y-15591766D02*
X3278979Y-15601290D01*
X3278979Y-15601290D02*
X3269455Y-15591766D01*
X3269455Y-15591766D02*
X3278979Y-15582242D01*
X3278979Y-15582242D02*
X3278979Y-15601290D01*
X3412312Y-15401290D02*
X3431360Y-15401290D01*
X3431360Y-15401290D02*
X3450407Y-15410813D01*
X3450407Y-15410813D02*
X3459931Y-15420337D01*
X3459931Y-15420337D02*
X3469455Y-15439385D01*
X3469455Y-15439385D02*
X3478979Y-15477480D01*
X3478979Y-15477480D02*
X3478979Y-15525099D01*
X3478979Y-15525099D02*
X3469455Y-15563194D01*
X3469455Y-15563194D02*
X3459931Y-15582242D01*
X3459931Y-15582242D02*
X3450407Y-15591766D01*
X3450407Y-15591766D02*
X3431360Y-15601290D01*
X3431360Y-15601290D02*
X3412312Y-15601290D01*
X3412312Y-15601290D02*
X3393264Y-15591766D01*
X3393264Y-15591766D02*
X3383741Y-15582242D01*
X3383741Y-15582242D02*
X3374217Y-15563194D01*
X3374217Y-15563194D02*
X3364693Y-15525099D01*
X3364693Y-15525099D02*
X3364693Y-15477480D01*
X3364693Y-15477480D02*
X3374217Y-15439385D01*
X3374217Y-15439385D02*
X3383741Y-15420337D01*
X3383741Y-15420337D02*
X3393264Y-15410813D01*
X3393264Y-15410813D02*
X3412312Y-15401290D01*
X3602788Y-15401290D02*
X3621836Y-15401290D01*
X3621836Y-15401290D02*
X3640883Y-15410813D01*
X3640883Y-15410813D02*
X3650407Y-15420337D01*
X3650407Y-15420337D02*
X3659931Y-15439385D01*
X3659931Y-15439385D02*
X3669455Y-15477480D01*
X3669455Y-15477480D02*
X3669455Y-15525099D01*
X3669455Y-15525099D02*
X3659931Y-15563194D01*
X3659931Y-15563194D02*
X3650407Y-15582242D01*
X3650407Y-15582242D02*
X3640883Y-15591766D01*
X3640883Y-15591766D02*
X3621836Y-15601290D01*
X3621836Y-15601290D02*
X3602788Y-15601290D01*
X3602788Y-15601290D02*
X3583741Y-15591766D01*
X3583741Y-15591766D02*
X3574217Y-15582242D01*
X3574217Y-15582242D02*
X3564693Y-15563194D01*
X3564693Y-15563194D02*
X3555169Y-15525099D01*
X3555169Y-15525099D02*
X3555169Y-15477480D01*
X3555169Y-15477480D02*
X3564693Y-15439385D01*
X3564693Y-15439385D02*
X3574217Y-15420337D01*
X3574217Y-15420337D02*
X3583741Y-15410813D01*
X3583741Y-15410813D02*
X3602788Y-15401290D01*
X3793264Y-15401290D02*
X3812312Y-15401290D01*
X3812312Y-15401290D02*
X3831360Y-15410813D01*
X3831360Y-15410813D02*
X3840883Y-15420337D01*
X3840883Y-15420337D02*
X3850407Y-15439385D01*
X3850407Y-15439385D02*
X3859931Y-15477480D01*
X3859931Y-15477480D02*
X3859931Y-15525099D01*
X3859931Y-15525099D02*
X3850407Y-15563194D01*
X3850407Y-15563194D02*
X3840883Y-15582242D01*
X3840883Y-15582242D02*
X3831360Y-15591766D01*
X3831360Y-15591766D02*
X3812312Y-15601290D01*
X3812312Y-15601290D02*
X3793264Y-15601290D01*
X3793264Y-15601290D02*
X3774217Y-15591766D01*
X3774217Y-15591766D02*
X3764693Y-15582242D01*
X3764693Y-15582242D02*
X3755169Y-15563194D01*
X3755169Y-15563194D02*
X3745645Y-15525099D01*
X3745645Y-15525099D02*
X3745645Y-15477480D01*
X3745645Y-15477480D02*
X3755169Y-15439385D01*
X3755169Y-15439385D02*
X3764693Y-15420337D01*
X3764693Y-15420337D02*
X3774217Y-15410813D01*
X3774217Y-15410813D02*
X3793264Y-15401290D01*
X3945645Y-15601290D02*
X3945645Y-15467956D01*
X3945645Y-15487004D02*
X3955169Y-15477480D01*
X3955169Y-15477480D02*
X3974217Y-15467956D01*
X3974217Y-15467956D02*
X4002788Y-15467956D01*
X4002788Y-15467956D02*
X4021836Y-15477480D01*
X4021836Y-15477480D02*
X4031360Y-15496528D01*
X4031360Y-15496528D02*
X4031360Y-15601290D01*
X4031360Y-15496528D02*
X4040883Y-15477480D01*
X4040883Y-15477480D02*
X4059931Y-15467956D01*
X4059931Y-15467956D02*
X4088502Y-15467956D01*
X4088502Y-15467956D02*
X4107550Y-15477480D01*
X4107550Y-15477480D02*
X4117074Y-15496528D01*
X4117074Y-15496528D02*
X4117074Y-15601290D01*
X4212312Y-15601290D02*
X4212312Y-15467956D01*
X4212312Y-15487004D02*
X4221836Y-15477480D01*
X4221836Y-15477480D02*
X4240884Y-15467956D01*
X4240884Y-15467956D02*
X4269455Y-15467956D01*
X4269455Y-15467956D02*
X4288503Y-15477480D01*
X4288503Y-15477480D02*
X4298026Y-15496528D01*
X4298026Y-15496528D02*
X4298026Y-15601290D01*
X4298026Y-15496528D02*
X4307550Y-15477480D01*
X4307550Y-15477480D02*
X4326598Y-15467956D01*
X4326598Y-15467956D02*
X4355169Y-15467956D01*
X4355169Y-15467956D02*
X4374217Y-15477480D01*
X4374217Y-15477480D02*
X4383741Y-15496528D01*
X4383741Y-15496528D02*
X4383741Y-15601290D01*
X4774217Y-15391766D02*
X4602788Y-15648909D01*
X5031360Y-15401290D02*
X5050408Y-15401290D01*
X5050408Y-15401290D02*
X5069455Y-15410813D01*
X5069455Y-15410813D02*
X5078979Y-15420337D01*
X5078979Y-15420337D02*
X5088503Y-15439385D01*
X5088503Y-15439385D02*
X5098027Y-15477480D01*
X5098027Y-15477480D02*
X5098027Y-15525099D01*
X5098027Y-15525099D02*
X5088503Y-15563194D01*
X5088503Y-15563194D02*
X5078979Y-15582242D01*
X5078979Y-15582242D02*
X5069455Y-15591766D01*
X5069455Y-15591766D02*
X5050408Y-15601290D01*
X5050408Y-15601290D02*
X5031360Y-15601290D01*
X5031360Y-15601290D02*
X5012312Y-15591766D01*
X5012312Y-15591766D02*
X5002788Y-15582242D01*
X5002788Y-15582242D02*
X4993265Y-15563194D01*
X4993265Y-15563194D02*
X4983741Y-15525099D01*
X4983741Y-15525099D02*
X4983741Y-15477480D01*
X4983741Y-15477480D02*
X4993265Y-15439385D01*
X4993265Y-15439385D02*
X5002788Y-15420337D01*
X5002788Y-15420337D02*
X5012312Y-15410813D01*
X5012312Y-15410813D02*
X5031360Y-15401290D01*
X5183741Y-15582242D02*
X5193265Y-15591766D01*
X5193265Y-15591766D02*
X5183741Y-15601290D01*
X5183741Y-15601290D02*
X5174217Y-15591766D01*
X5174217Y-15591766D02*
X5183741Y-15582242D01*
X5183741Y-15582242D02*
X5183741Y-15601290D01*
X5317074Y-15401290D02*
X5336122Y-15401290D01*
X5336122Y-15401290D02*
X5355169Y-15410813D01*
X5355169Y-15410813D02*
X5364693Y-15420337D01*
X5364693Y-15420337D02*
X5374217Y-15439385D01*
X5374217Y-15439385D02*
X5383741Y-15477480D01*
X5383741Y-15477480D02*
X5383741Y-15525099D01*
X5383741Y-15525099D02*
X5374217Y-15563194D01*
X5374217Y-15563194D02*
X5364693Y-15582242D01*
X5364693Y-15582242D02*
X5355169Y-15591766D01*
X5355169Y-15591766D02*
X5336122Y-15601290D01*
X5336122Y-15601290D02*
X5317074Y-15601290D01*
X5317074Y-15601290D02*
X5298027Y-15591766D01*
X5298027Y-15591766D02*
X5288503Y-15582242D01*
X5288503Y-15582242D02*
X5278979Y-15563194D01*
X5278979Y-15563194D02*
X5269455Y-15525099D01*
X5269455Y-15525099D02*
X5269455Y-15477480D01*
X5269455Y-15477480D02*
X5278979Y-15439385D01*
X5278979Y-15439385D02*
X5288503Y-15420337D01*
X5288503Y-15420337D02*
X5298027Y-15410813D01*
X5298027Y-15410813D02*
X5317074Y-15401290D01*
X5450408Y-15401290D02*
X5574217Y-15401290D01*
X5574217Y-15401290D02*
X5507550Y-15477480D01*
X5507550Y-15477480D02*
X5536122Y-15477480D01*
X5536122Y-15477480D02*
X5555169Y-15487004D01*
X5555169Y-15487004D02*
X5564693Y-15496528D01*
X5564693Y-15496528D02*
X5574217Y-15515575D01*
X5574217Y-15515575D02*
X5574217Y-15563194D01*
X5574217Y-15563194D02*
X5564693Y-15582242D01*
X5564693Y-15582242D02*
X5555169Y-15591766D01*
X5555169Y-15591766D02*
X5536122Y-15601290D01*
X5536122Y-15601290D02*
X5478979Y-15601290D01*
X5478979Y-15601290D02*
X5459931Y-15591766D01*
X5459931Y-15591766D02*
X5450408Y-15582242D01*
X5669455Y-15601290D02*
X5707550Y-15601290D01*
X5707550Y-15601290D02*
X5726598Y-15591766D01*
X5726598Y-15591766D02*
X5736122Y-15582242D01*
X5736122Y-15582242D02*
X5755169Y-15553671D01*
X5755169Y-15553671D02*
X5764693Y-15515575D01*
X5764693Y-15515575D02*
X5764693Y-15439385D01*
X5764693Y-15439385D02*
X5755169Y-15420337D01*
X5755169Y-15420337D02*
X5745646Y-15410813D01*
X5745646Y-15410813D02*
X5726598Y-15401290D01*
X5726598Y-15401290D02*
X5688503Y-15401290D01*
X5688503Y-15401290D02*
X5669455Y-15410813D01*
X5669455Y-15410813D02*
X5659931Y-15420337D01*
X5659931Y-15420337D02*
X5650407Y-15439385D01*
X5650407Y-15439385D02*
X5650407Y-15487004D01*
X5650407Y-15487004D02*
X5659931Y-15506052D01*
X5659931Y-15506052D02*
X5669455Y-15515575D01*
X5669455Y-15515575D02*
X5688503Y-15525099D01*
X5688503Y-15525099D02*
X5726598Y-15525099D01*
X5726598Y-15525099D02*
X5745646Y-15515575D01*
X5745646Y-15515575D02*
X5755169Y-15506052D01*
X5755169Y-15506052D02*
X5764693Y-15487004D01*
X5936122Y-15467956D02*
X5936122Y-15601290D01*
X5888503Y-15391766D02*
X5840884Y-15534623D01*
X5840884Y-15534623D02*
X5964693Y-15534623D01*
X6031360Y-15401290D02*
X6031360Y-15439385D01*
X6107550Y-15401290D02*
X6107550Y-15439385D01*
X6402789Y-15677480D02*
X6393265Y-15667956D01*
X6393265Y-15667956D02*
X6374217Y-15639385D01*
X6374217Y-15639385D02*
X6364693Y-15620337D01*
X6364693Y-15620337D02*
X6355169Y-15591766D01*
X6355169Y-15591766D02*
X6345646Y-15544147D01*
X6345646Y-15544147D02*
X6345646Y-15506052D01*
X6345646Y-15506052D02*
X6355169Y-15458432D01*
X6355169Y-15458432D02*
X6364693Y-15429861D01*
X6364693Y-15429861D02*
X6374217Y-15410813D01*
X6374217Y-15410813D02*
X6393265Y-15382242D01*
X6393265Y-15382242D02*
X6402789Y-15372718D01*
X6469455Y-15420337D02*
X6478979Y-15410813D01*
X6478979Y-15410813D02*
X6498027Y-15401290D01*
X6498027Y-15401290D02*
X6545646Y-15401290D01*
X6545646Y-15401290D02*
X6564693Y-15410813D01*
X6564693Y-15410813D02*
X6574217Y-15420337D01*
X6574217Y-15420337D02*
X6583741Y-15439385D01*
X6583741Y-15439385D02*
X6583741Y-15458432D01*
X6583741Y-15458432D02*
X6574217Y-15487004D01*
X6574217Y-15487004D02*
X6459931Y-15601290D01*
X6459931Y-15601290D02*
X6583741Y-15601290D01*
X6698027Y-15487004D02*
X6678979Y-15477480D01*
X6678979Y-15477480D02*
X6669455Y-15467956D01*
X6669455Y-15467956D02*
X6659931Y-15448909D01*
X6659931Y-15448909D02*
X6659931Y-15439385D01*
X6659931Y-15439385D02*
X6669455Y-15420337D01*
X6669455Y-15420337D02*
X6678979Y-15410813D01*
X6678979Y-15410813D02*
X6698027Y-15401290D01*
X6698027Y-15401290D02*
X6736122Y-15401290D01*
X6736122Y-15401290D02*
X6755169Y-15410813D01*
X6755169Y-15410813D02*
X6764693Y-15420337D01*
X6764693Y-15420337D02*
X6774217Y-15439385D01*
X6774217Y-15439385D02*
X6774217Y-15448909D01*
X6774217Y-15448909D02*
X6764693Y-15467956D01*
X6764693Y-15467956D02*
X6755169Y-15477480D01*
X6755169Y-15477480D02*
X6736122Y-15487004D01*
X6736122Y-15487004D02*
X6698027Y-15487004D01*
X6698027Y-15487004D02*
X6678979Y-15496528D01*
X6678979Y-15496528D02*
X6669455Y-15506052D01*
X6669455Y-15506052D02*
X6659931Y-15525099D01*
X6659931Y-15525099D02*
X6659931Y-15563194D01*
X6659931Y-15563194D02*
X6669455Y-15582242D01*
X6669455Y-15582242D02*
X6678979Y-15591766D01*
X6678979Y-15591766D02*
X6698027Y-15601290D01*
X6698027Y-15601290D02*
X6736122Y-15601290D01*
X6736122Y-15601290D02*
X6755169Y-15591766D01*
X6755169Y-15591766D02*
X6764693Y-15582242D01*
X6764693Y-15582242D02*
X6774217Y-15563194D01*
X6774217Y-15563194D02*
X6774217Y-15525099D01*
X6774217Y-15525099D02*
X6764693Y-15506052D01*
X6764693Y-15506052D02*
X6755169Y-15496528D01*
X6755169Y-15496528D02*
X6736122Y-15487004D01*
X7012312Y-15601290D02*
X7012312Y-15401290D01*
X7098027Y-15601290D02*
X7098027Y-15496528D01*
X7098027Y-15496528D02*
X7088503Y-15477480D01*
X7088503Y-15477480D02*
X7069455Y-15467956D01*
X7069455Y-15467956D02*
X7040884Y-15467956D01*
X7040884Y-15467956D02*
X7021836Y-15477480D01*
X7021836Y-15477480D02*
X7012312Y-15487004D01*
X7221836Y-15601290D02*
X7202789Y-15591766D01*
X7202789Y-15591766D02*
X7193265Y-15582242D01*
X7193265Y-15582242D02*
X7183741Y-15563194D01*
X7183741Y-15563194D02*
X7183741Y-15506052D01*
X7183741Y-15506052D02*
X7193265Y-15487004D01*
X7193265Y-15487004D02*
X7202789Y-15477480D01*
X7202789Y-15477480D02*
X7221836Y-15467956D01*
X7221836Y-15467956D02*
X7250408Y-15467956D01*
X7250408Y-15467956D02*
X7269455Y-15477480D01*
X7269455Y-15477480D02*
X7278979Y-15487004D01*
X7278979Y-15487004D02*
X7288503Y-15506052D01*
X7288503Y-15506052D02*
X7288503Y-15563194D01*
X7288503Y-15563194D02*
X7278979Y-15582242D01*
X7278979Y-15582242D02*
X7269455Y-15591766D01*
X7269455Y-15591766D02*
X7250408Y-15601290D01*
X7250408Y-15601290D02*
X7221836Y-15601290D01*
X7402789Y-15601290D02*
X7383741Y-15591766D01*
X7383741Y-15591766D02*
X7374217Y-15572718D01*
X7374217Y-15572718D02*
X7374217Y-15401290D01*
X7555170Y-15591766D02*
X7536122Y-15601290D01*
X7536122Y-15601290D02*
X7498027Y-15601290D01*
X7498027Y-15601290D02*
X7478979Y-15591766D01*
X7478979Y-15591766D02*
X7469455Y-15572718D01*
X7469455Y-15572718D02*
X7469455Y-15496528D01*
X7469455Y-15496528D02*
X7478979Y-15477480D01*
X7478979Y-15477480D02*
X7498027Y-15467956D01*
X7498027Y-15467956D02*
X7536122Y-15467956D01*
X7536122Y-15467956D02*
X7555170Y-15477480D01*
X7555170Y-15477480D02*
X7564693Y-15496528D01*
X7564693Y-15496528D02*
X7564693Y-15515575D01*
X7564693Y-15515575D02*
X7469455Y-15534623D01*
X7640884Y-15591766D02*
X7659931Y-15601290D01*
X7659931Y-15601290D02*
X7698027Y-15601290D01*
X7698027Y-15601290D02*
X7717074Y-15591766D01*
X7717074Y-15591766D02*
X7726598Y-15572718D01*
X7726598Y-15572718D02*
X7726598Y-15563194D01*
X7726598Y-15563194D02*
X7717074Y-15544147D01*
X7717074Y-15544147D02*
X7698027Y-15534623D01*
X7698027Y-15534623D02*
X7669455Y-15534623D01*
X7669455Y-15534623D02*
X7650408Y-15525099D01*
X7650408Y-15525099D02*
X7640884Y-15506052D01*
X7640884Y-15506052D02*
X7640884Y-15496528D01*
X7640884Y-15496528D02*
X7650408Y-15477480D01*
X7650408Y-15477480D02*
X7669455Y-15467956D01*
X7669455Y-15467956D02*
X7698027Y-15467956D01*
X7698027Y-15467956D02*
X7717074Y-15477480D01*
X7793265Y-15677480D02*
X7802789Y-15667956D01*
X7802789Y-15667956D02*
X7821836Y-15639385D01*
X7821836Y-15639385D02*
X7831360Y-15620337D01*
X7831360Y-15620337D02*
X7840884Y-15591766D01*
X7840884Y-15591766D02*
X7850408Y-15544147D01*
X7850408Y-15544147D02*
X7850408Y-15506052D01*
X7850408Y-15506052D02*
X7840884Y-15458432D01*
X7840884Y-15458432D02*
X7831360Y-15429861D01*
X7831360Y-15429861D02*
X7821836Y-15410813D01*
X7821836Y-15410813D02*
X7802789Y-15382242D01*
X7802789Y-15382242D02*
X7793265Y-15372718D01*
D14*
X2776926Y-15723006D02*
X2776926Y-15824606D01*
X2726126Y-15773806D02*
X2827726Y-15773806D01*
D12*
X3193264Y-15865290D02*
X3078979Y-15865290D01*
X3136121Y-15865290D02*
X3136121Y-15665290D01*
X3136121Y-15665290D02*
X3117074Y-15693861D01*
X3117074Y-15693861D02*
X3098026Y-15712909D01*
X3098026Y-15712909D02*
X3078979Y-15722432D01*
X3278979Y-15846242D02*
X3288502Y-15855766D01*
X3288502Y-15855766D02*
X3278979Y-15865290D01*
X3278979Y-15865290D02*
X3269455Y-15855766D01*
X3269455Y-15855766D02*
X3278979Y-15846242D01*
X3278979Y-15846242D02*
X3278979Y-15865290D01*
X3412312Y-15665290D02*
X3431360Y-15665290D01*
X3431360Y-15665290D02*
X3450407Y-15674813D01*
X3450407Y-15674813D02*
X3459931Y-15684337D01*
X3459931Y-15684337D02*
X3469455Y-15703385D01*
X3469455Y-15703385D02*
X3478979Y-15741480D01*
X3478979Y-15741480D02*
X3478979Y-15789099D01*
X3478979Y-15789099D02*
X3469455Y-15827194D01*
X3469455Y-15827194D02*
X3459931Y-15846242D01*
X3459931Y-15846242D02*
X3450407Y-15855766D01*
X3450407Y-15855766D02*
X3431360Y-15865290D01*
X3431360Y-15865290D02*
X3412312Y-15865290D01*
X3412312Y-15865290D02*
X3393264Y-15855766D01*
X3393264Y-15855766D02*
X3383741Y-15846242D01*
X3383741Y-15846242D02*
X3374217Y-15827194D01*
X3374217Y-15827194D02*
X3364693Y-15789099D01*
X3364693Y-15789099D02*
X3364693Y-15741480D01*
X3364693Y-15741480D02*
X3374217Y-15703385D01*
X3374217Y-15703385D02*
X3383741Y-15684337D01*
X3383741Y-15684337D02*
X3393264Y-15674813D01*
X3393264Y-15674813D02*
X3412312Y-15665290D01*
X3669455Y-15865290D02*
X3555169Y-15865290D01*
X3612312Y-15865290D02*
X3612312Y-15665290D01*
X3612312Y-15665290D02*
X3593264Y-15693861D01*
X3593264Y-15693861D02*
X3574217Y-15712909D01*
X3574217Y-15712909D02*
X3555169Y-15722432D01*
X3840883Y-15665290D02*
X3802788Y-15665290D01*
X3802788Y-15665290D02*
X3783741Y-15674813D01*
X3783741Y-15674813D02*
X3774217Y-15684337D01*
X3774217Y-15684337D02*
X3755169Y-15712909D01*
X3755169Y-15712909D02*
X3745645Y-15751004D01*
X3745645Y-15751004D02*
X3745645Y-15827194D01*
X3745645Y-15827194D02*
X3755169Y-15846242D01*
X3755169Y-15846242D02*
X3764693Y-15855766D01*
X3764693Y-15855766D02*
X3783741Y-15865290D01*
X3783741Y-15865290D02*
X3821836Y-15865290D01*
X3821836Y-15865290D02*
X3840883Y-15855766D01*
X3840883Y-15855766D02*
X3850407Y-15846242D01*
X3850407Y-15846242D02*
X3859931Y-15827194D01*
X3859931Y-15827194D02*
X3859931Y-15779575D01*
X3859931Y-15779575D02*
X3850407Y-15760528D01*
X3850407Y-15760528D02*
X3840883Y-15751004D01*
X3840883Y-15751004D02*
X3821836Y-15741480D01*
X3821836Y-15741480D02*
X3783741Y-15741480D01*
X3783741Y-15741480D02*
X3764693Y-15751004D01*
X3764693Y-15751004D02*
X3755169Y-15760528D01*
X3755169Y-15760528D02*
X3745645Y-15779575D01*
X3945645Y-15865290D02*
X3945645Y-15731956D01*
X3945645Y-15751004D02*
X3955169Y-15741480D01*
X3955169Y-15741480D02*
X3974217Y-15731956D01*
X3974217Y-15731956D02*
X4002788Y-15731956D01*
X4002788Y-15731956D02*
X4021836Y-15741480D01*
X4021836Y-15741480D02*
X4031360Y-15760528D01*
X4031360Y-15760528D02*
X4031360Y-15865290D01*
X4031360Y-15760528D02*
X4040883Y-15741480D01*
X4040883Y-15741480D02*
X4059931Y-15731956D01*
X4059931Y-15731956D02*
X4088502Y-15731956D01*
X4088502Y-15731956D02*
X4107550Y-15741480D01*
X4107550Y-15741480D02*
X4117074Y-15760528D01*
X4117074Y-15760528D02*
X4117074Y-15865290D01*
X4212312Y-15865290D02*
X4212312Y-15731956D01*
X4212312Y-15751004D02*
X4221836Y-15741480D01*
X4221836Y-15741480D02*
X4240884Y-15731956D01*
X4240884Y-15731956D02*
X4269455Y-15731956D01*
X4269455Y-15731956D02*
X4288503Y-15741480D01*
X4288503Y-15741480D02*
X4298026Y-15760528D01*
X4298026Y-15760528D02*
X4298026Y-15865290D01*
X4298026Y-15760528D02*
X4307550Y-15741480D01*
X4307550Y-15741480D02*
X4326598Y-15731956D01*
X4326598Y-15731956D02*
X4355169Y-15731956D01*
X4355169Y-15731956D02*
X4374217Y-15741480D01*
X4374217Y-15741480D02*
X4383741Y-15760528D01*
X4383741Y-15760528D02*
X4383741Y-15865290D01*
X4774217Y-15655766D02*
X4602788Y-15912909D01*
X5031360Y-15665290D02*
X5050408Y-15665290D01*
X5050408Y-15665290D02*
X5069455Y-15674813D01*
X5069455Y-15674813D02*
X5078979Y-15684337D01*
X5078979Y-15684337D02*
X5088503Y-15703385D01*
X5088503Y-15703385D02*
X5098027Y-15741480D01*
X5098027Y-15741480D02*
X5098027Y-15789099D01*
X5098027Y-15789099D02*
X5088503Y-15827194D01*
X5088503Y-15827194D02*
X5078979Y-15846242D01*
X5078979Y-15846242D02*
X5069455Y-15855766D01*
X5069455Y-15855766D02*
X5050408Y-15865290D01*
X5050408Y-15865290D02*
X5031360Y-15865290D01*
X5031360Y-15865290D02*
X5012312Y-15855766D01*
X5012312Y-15855766D02*
X5002788Y-15846242D01*
X5002788Y-15846242D02*
X4993265Y-15827194D01*
X4993265Y-15827194D02*
X4983741Y-15789099D01*
X4983741Y-15789099D02*
X4983741Y-15741480D01*
X4983741Y-15741480D02*
X4993265Y-15703385D01*
X4993265Y-15703385D02*
X5002788Y-15684337D01*
X5002788Y-15684337D02*
X5012312Y-15674813D01*
X5012312Y-15674813D02*
X5031360Y-15665290D01*
X5183741Y-15846242D02*
X5193265Y-15855766D01*
X5193265Y-15855766D02*
X5183741Y-15865290D01*
X5183741Y-15865290D02*
X5174217Y-15855766D01*
X5174217Y-15855766D02*
X5183741Y-15846242D01*
X5183741Y-15846242D02*
X5183741Y-15865290D01*
X5317074Y-15665290D02*
X5336122Y-15665290D01*
X5336122Y-15665290D02*
X5355169Y-15674813D01*
X5355169Y-15674813D02*
X5364693Y-15684337D01*
X5364693Y-15684337D02*
X5374217Y-15703385D01*
X5374217Y-15703385D02*
X5383741Y-15741480D01*
X5383741Y-15741480D02*
X5383741Y-15789099D01*
X5383741Y-15789099D02*
X5374217Y-15827194D01*
X5374217Y-15827194D02*
X5364693Y-15846242D01*
X5364693Y-15846242D02*
X5355169Y-15855766D01*
X5355169Y-15855766D02*
X5336122Y-15865290D01*
X5336122Y-15865290D02*
X5317074Y-15865290D01*
X5317074Y-15865290D02*
X5298027Y-15855766D01*
X5298027Y-15855766D02*
X5288503Y-15846242D01*
X5288503Y-15846242D02*
X5278979Y-15827194D01*
X5278979Y-15827194D02*
X5269455Y-15789099D01*
X5269455Y-15789099D02*
X5269455Y-15741480D01*
X5269455Y-15741480D02*
X5278979Y-15703385D01*
X5278979Y-15703385D02*
X5288503Y-15684337D01*
X5288503Y-15684337D02*
X5298027Y-15674813D01*
X5298027Y-15674813D02*
X5317074Y-15665290D01*
X5555169Y-15731956D02*
X5555169Y-15865290D01*
X5507550Y-15655766D02*
X5459931Y-15798623D01*
X5459931Y-15798623D02*
X5583741Y-15798623D01*
X5698026Y-15665290D02*
X5717074Y-15665290D01*
X5717074Y-15665290D02*
X5736122Y-15674813D01*
X5736122Y-15674813D02*
X5745646Y-15684337D01*
X5745646Y-15684337D02*
X5755169Y-15703385D01*
X5755169Y-15703385D02*
X5764693Y-15741480D01*
X5764693Y-15741480D02*
X5764693Y-15789099D01*
X5764693Y-15789099D02*
X5755169Y-15827194D01*
X5755169Y-15827194D02*
X5745646Y-15846242D01*
X5745646Y-15846242D02*
X5736122Y-15855766D01*
X5736122Y-15855766D02*
X5717074Y-15865290D01*
X5717074Y-15865290D02*
X5698026Y-15865290D01*
X5698026Y-15865290D02*
X5678979Y-15855766D01*
X5678979Y-15855766D02*
X5669455Y-15846242D01*
X5669455Y-15846242D02*
X5659931Y-15827194D01*
X5659931Y-15827194D02*
X5650407Y-15789099D01*
X5650407Y-15789099D02*
X5650407Y-15741480D01*
X5650407Y-15741480D02*
X5659931Y-15703385D01*
X5659931Y-15703385D02*
X5669455Y-15684337D01*
X5669455Y-15684337D02*
X5678979Y-15674813D01*
X5678979Y-15674813D02*
X5698026Y-15665290D01*
X5888503Y-15665290D02*
X5907550Y-15665290D01*
X5907550Y-15665290D02*
X5926598Y-15674813D01*
X5926598Y-15674813D02*
X5936122Y-15684337D01*
X5936122Y-15684337D02*
X5945646Y-15703385D01*
X5945646Y-15703385D02*
X5955169Y-15741480D01*
X5955169Y-15741480D02*
X5955169Y-15789099D01*
X5955169Y-15789099D02*
X5945646Y-15827194D01*
X5945646Y-15827194D02*
X5936122Y-15846242D01*
X5936122Y-15846242D02*
X5926598Y-15855766D01*
X5926598Y-15855766D02*
X5907550Y-15865290D01*
X5907550Y-15865290D02*
X5888503Y-15865290D01*
X5888503Y-15865290D02*
X5869455Y-15855766D01*
X5869455Y-15855766D02*
X5859931Y-15846242D01*
X5859931Y-15846242D02*
X5850407Y-15827194D01*
X5850407Y-15827194D02*
X5840884Y-15789099D01*
X5840884Y-15789099D02*
X5840884Y-15741480D01*
X5840884Y-15741480D02*
X5850407Y-15703385D01*
X5850407Y-15703385D02*
X5859931Y-15684337D01*
X5859931Y-15684337D02*
X5869455Y-15674813D01*
X5869455Y-15674813D02*
X5888503Y-15665290D01*
X6031360Y-15665290D02*
X6031360Y-15703385D01*
X6107550Y-15665290D02*
X6107550Y-15703385D01*
X6402789Y-15941480D02*
X6393265Y-15931956D01*
X6393265Y-15931956D02*
X6374217Y-15903385D01*
X6374217Y-15903385D02*
X6364693Y-15884337D01*
X6364693Y-15884337D02*
X6355169Y-15855766D01*
X6355169Y-15855766D02*
X6345646Y-15808147D01*
X6345646Y-15808147D02*
X6345646Y-15770052D01*
X6345646Y-15770052D02*
X6355169Y-15722432D01*
X6355169Y-15722432D02*
X6364693Y-15693861D01*
X6364693Y-15693861D02*
X6374217Y-15674813D01*
X6374217Y-15674813D02*
X6393265Y-15646242D01*
X6393265Y-15646242D02*
X6402789Y-15636718D01*
X6583741Y-15865290D02*
X6469455Y-15865290D01*
X6526598Y-15865290D02*
X6526598Y-15665290D01*
X6526598Y-15665290D02*
X6507550Y-15693861D01*
X6507550Y-15693861D02*
X6488503Y-15712909D01*
X6488503Y-15712909D02*
X6469455Y-15722432D01*
X6755169Y-15665290D02*
X6717074Y-15665290D01*
X6717074Y-15665290D02*
X6698027Y-15674813D01*
X6698027Y-15674813D02*
X6688503Y-15684337D01*
X6688503Y-15684337D02*
X6669455Y-15712909D01*
X6669455Y-15712909D02*
X6659931Y-15751004D01*
X6659931Y-15751004D02*
X6659931Y-15827194D01*
X6659931Y-15827194D02*
X6669455Y-15846242D01*
X6669455Y-15846242D02*
X6678979Y-15855766D01*
X6678979Y-15855766D02*
X6698027Y-15865290D01*
X6698027Y-15865290D02*
X6736122Y-15865290D01*
X6736122Y-15865290D02*
X6755169Y-15855766D01*
X6755169Y-15855766D02*
X6764693Y-15846242D01*
X6764693Y-15846242D02*
X6774217Y-15827194D01*
X6774217Y-15827194D02*
X6774217Y-15779575D01*
X6774217Y-15779575D02*
X6764693Y-15760528D01*
X6764693Y-15760528D02*
X6755169Y-15751004D01*
X6755169Y-15751004D02*
X6736122Y-15741480D01*
X6736122Y-15741480D02*
X6698027Y-15741480D01*
X6698027Y-15741480D02*
X6678979Y-15751004D01*
X6678979Y-15751004D02*
X6669455Y-15760528D01*
X6669455Y-15760528D02*
X6659931Y-15779575D01*
X7012312Y-15865290D02*
X7012312Y-15665290D01*
X7098027Y-15865290D02*
X7098027Y-15760528D01*
X7098027Y-15760528D02*
X7088503Y-15741480D01*
X7088503Y-15741480D02*
X7069455Y-15731956D01*
X7069455Y-15731956D02*
X7040884Y-15731956D01*
X7040884Y-15731956D02*
X7021836Y-15741480D01*
X7021836Y-15741480D02*
X7012312Y-15751004D01*
X7221836Y-15865290D02*
X7202789Y-15855766D01*
X7202789Y-15855766D02*
X7193265Y-15846242D01*
X7193265Y-15846242D02*
X7183741Y-15827194D01*
X7183741Y-15827194D02*
X7183741Y-15770052D01*
X7183741Y-15770052D02*
X7193265Y-15751004D01*
X7193265Y-15751004D02*
X7202789Y-15741480D01*
X7202789Y-15741480D02*
X7221836Y-15731956D01*
X7221836Y-15731956D02*
X7250408Y-15731956D01*
X7250408Y-15731956D02*
X7269455Y-15741480D01*
X7269455Y-15741480D02*
X7278979Y-15751004D01*
X7278979Y-15751004D02*
X7288503Y-15770052D01*
X7288503Y-15770052D02*
X7288503Y-15827194D01*
X7288503Y-15827194D02*
X7278979Y-15846242D01*
X7278979Y-15846242D02*
X7269455Y-15855766D01*
X7269455Y-15855766D02*
X7250408Y-15865290D01*
X7250408Y-15865290D02*
X7221836Y-15865290D01*
X7402789Y-15865290D02*
X7383741Y-15855766D01*
X7383741Y-15855766D02*
X7374217Y-15836718D01*
X7374217Y-15836718D02*
X7374217Y-15665290D01*
X7555170Y-15855766D02*
X7536122Y-15865290D01*
X7536122Y-15865290D02*
X7498027Y-15865290D01*
X7498027Y-15865290D02*
X7478979Y-15855766D01*
X7478979Y-15855766D02*
X7469455Y-15836718D01*
X7469455Y-15836718D02*
X7469455Y-15760528D01*
X7469455Y-15760528D02*
X7478979Y-15741480D01*
X7478979Y-15741480D02*
X7498027Y-15731956D01*
X7498027Y-15731956D02*
X7536122Y-15731956D01*
X7536122Y-15731956D02*
X7555170Y-15741480D01*
X7555170Y-15741480D02*
X7564693Y-15760528D01*
X7564693Y-15760528D02*
X7564693Y-15779575D01*
X7564693Y-15779575D02*
X7469455Y-15798623D01*
X7640884Y-15855766D02*
X7659931Y-15865290D01*
X7659931Y-15865290D02*
X7698027Y-15865290D01*
X7698027Y-15865290D02*
X7717074Y-15855766D01*
X7717074Y-15855766D02*
X7726598Y-15836718D01*
X7726598Y-15836718D02*
X7726598Y-15827194D01*
X7726598Y-15827194D02*
X7717074Y-15808147D01*
X7717074Y-15808147D02*
X7698027Y-15798623D01*
X7698027Y-15798623D02*
X7669455Y-15798623D01*
X7669455Y-15798623D02*
X7650408Y-15789099D01*
X7650408Y-15789099D02*
X7640884Y-15770052D01*
X7640884Y-15770052D02*
X7640884Y-15760528D01*
X7640884Y-15760528D02*
X7650408Y-15741480D01*
X7650408Y-15741480D02*
X7669455Y-15731956D01*
X7669455Y-15731956D02*
X7698027Y-15731956D01*
X7698027Y-15731956D02*
X7717074Y-15741480D01*
X7793265Y-15941480D02*
X7802789Y-15931956D01*
X7802789Y-15931956D02*
X7821836Y-15903385D01*
X7821836Y-15903385D02*
X7831360Y-15884337D01*
X7831360Y-15884337D02*
X7840884Y-15855766D01*
X7840884Y-15855766D02*
X7850408Y-15808147D01*
X7850408Y-15808147D02*
X7850408Y-15770052D01*
X7850408Y-15770052D02*
X7840884Y-15722432D01*
X7840884Y-15722432D02*
X7831360Y-15693861D01*
X7831360Y-15693861D02*
X7821836Y-15674813D01*
X7821836Y-15674813D02*
X7802789Y-15646242D01*
X7802789Y-15646242D02*
X7793265Y-15636718D01*
M02*
