%TF.GenerationSoftware,KiCad,Pcbnew,8.0.1*%
%TF.CreationDate,2024-04-22T06:21:47+12:00*%
%TF.ProjectId,main routed,6d61696e-2072-46f7-9574-65642e6b6963,v1.0.0*%
%TF.SameCoordinates,Original*%
%TF.FileFunction,Legend,Top*%
%TF.FilePolarity,Positive*%
%FSLAX46Y46*%
G04 Gerber Fmt 4.6, Leading zero omitted, Abs format (unit mm)*
G04 Created by KiCad (PCBNEW 8.0.1) date 2024-04-22 06:21:47*
%MOMM*%
%LPD*%
G01*
G04 APERTURE LIST*
G04 Aperture macros list*
%AMRoundRect*
0 Rectangle with rounded corners*
0 $1 Rounding radius*
0 $2 $3 $4 $5 $6 $7 $8 $9 X,Y pos of 4 corners*
0 Add a 4 corners polygon primitive as box body*
4,1,4,$2,$3,$4,$5,$6,$7,$8,$9,$2,$3,0*
0 Add four circle primitives for the rounded corners*
1,1,$1+$1,$2,$3*
1,1,$1+$1,$4,$5*
1,1,$1+$1,$6,$7*
1,1,$1+$1,$8,$9*
0 Add four rect primitives between the rounded corners*
20,1,$1+$1,$2,$3,$4,$5,0*
20,1,$1+$1,$4,$5,$6,$7,0*
20,1,$1+$1,$6,$7,$8,$9,0*
20,1,$1+$1,$8,$9,$2,$3,0*%
G04 Aperture macros list end*
%ADD10C,0.300000*%
%ADD11C,0.150000*%
%ADD12RoundRect,0.050000X-0.450000X-0.450000X0.450000X-0.450000X0.450000X0.450000X-0.450000X0.450000X0*%
%ADD13C,1.100000*%
%ADD14RoundRect,0.050000X-0.450000X-0.625000X0.450000X-0.625000X0.450000X0.625000X-0.450000X0.625000X0*%
%ADD15C,1.801800*%
%ADD16C,3.100000*%
%ADD17C,4.087800*%
%ADD18C,1.497000*%
%ADD19O,2.850000X1.900000*%
G04 APERTURE END LIST*
D10*
X52840225Y-111885912D02*
X53697368Y-111885912D01*
X53268796Y-113385912D02*
X53268796Y-111885912D01*
X54411653Y-113385912D02*
X54268796Y-113314484D01*
X54268796Y-113314484D02*
X54197367Y-113243055D01*
X54197367Y-113243055D02*
X54125939Y-113100198D01*
X54125939Y-113100198D02*
X54125939Y-112671626D01*
X54125939Y-112671626D02*
X54197367Y-112528769D01*
X54197367Y-112528769D02*
X54268796Y-112457341D01*
X54268796Y-112457341D02*
X54411653Y-112385912D01*
X54411653Y-112385912D02*
X54625939Y-112385912D01*
X54625939Y-112385912D02*
X54768796Y-112457341D01*
X54768796Y-112457341D02*
X54840225Y-112528769D01*
X54840225Y-112528769D02*
X54911653Y-112671626D01*
X54911653Y-112671626D02*
X54911653Y-113100198D01*
X54911653Y-113100198D02*
X54840225Y-113243055D01*
X54840225Y-113243055D02*
X54768796Y-113314484D01*
X54768796Y-113314484D02*
X54625939Y-113385912D01*
X54625939Y-113385912D02*
X54411653Y-113385912D01*
X55554510Y-113385912D02*
X55554510Y-112385912D01*
X55554510Y-112528769D02*
X55625939Y-112457341D01*
X55625939Y-112457341D02*
X55768796Y-112385912D01*
X55768796Y-112385912D02*
X55983082Y-112385912D01*
X55983082Y-112385912D02*
X56125939Y-112457341D01*
X56125939Y-112457341D02*
X56197368Y-112600198D01*
X56197368Y-112600198D02*
X56197368Y-113385912D01*
X56197368Y-112600198D02*
X56268796Y-112457341D01*
X56268796Y-112457341D02*
X56411653Y-112385912D01*
X56411653Y-112385912D02*
X56625939Y-112385912D01*
X56625939Y-112385912D02*
X56768796Y-112457341D01*
X56768796Y-112457341D02*
X56840225Y-112600198D01*
X56840225Y-112600198D02*
X56840225Y-113385912D01*
X57625939Y-111885912D02*
X57483082Y-112171626D01*
X58197368Y-113314484D02*
X58340225Y-113385912D01*
X58340225Y-113385912D02*
X58625939Y-113385912D01*
X58625939Y-113385912D02*
X58768796Y-113314484D01*
X58768796Y-113314484D02*
X58840225Y-113171626D01*
X58840225Y-113171626D02*
X58840225Y-113100198D01*
X58840225Y-113100198D02*
X58768796Y-112957341D01*
X58768796Y-112957341D02*
X58625939Y-112885912D01*
X58625939Y-112885912D02*
X58411654Y-112885912D01*
X58411654Y-112885912D02*
X58268796Y-112814484D01*
X58268796Y-112814484D02*
X58197368Y-112671626D01*
X58197368Y-112671626D02*
X58197368Y-112600198D01*
X58197368Y-112600198D02*
X58268796Y-112457341D01*
X58268796Y-112457341D02*
X58411654Y-112385912D01*
X58411654Y-112385912D02*
X58625939Y-112385912D01*
X58625939Y-112385912D02*
X58768796Y-112457341D01*
X60625939Y-113385912D02*
X60625939Y-111885912D01*
X60625939Y-112457341D02*
X60768797Y-112385912D01*
X60768797Y-112385912D02*
X61054511Y-112385912D01*
X61054511Y-112385912D02*
X61197368Y-112457341D01*
X61197368Y-112457341D02*
X61268797Y-112528769D01*
X61268797Y-112528769D02*
X61340225Y-112671626D01*
X61340225Y-112671626D02*
X61340225Y-113100198D01*
X61340225Y-113100198D02*
X61268797Y-113243055D01*
X61268797Y-113243055D02*
X61197368Y-113314484D01*
X61197368Y-113314484D02*
X61054511Y-113385912D01*
X61054511Y-113385912D02*
X60768797Y-113385912D01*
X60768797Y-113385912D02*
X60625939Y-113314484D01*
X62197368Y-113385912D02*
X62054511Y-113314484D01*
X62054511Y-113314484D02*
X61983082Y-113243055D01*
X61983082Y-113243055D02*
X61911654Y-113100198D01*
X61911654Y-113100198D02*
X61911654Y-112671626D01*
X61911654Y-112671626D02*
X61983082Y-112528769D01*
X61983082Y-112528769D02*
X62054511Y-112457341D01*
X62054511Y-112457341D02*
X62197368Y-112385912D01*
X62197368Y-112385912D02*
X62411654Y-112385912D01*
X62411654Y-112385912D02*
X62554511Y-112457341D01*
X62554511Y-112457341D02*
X62625940Y-112528769D01*
X62625940Y-112528769D02*
X62697368Y-112671626D01*
X62697368Y-112671626D02*
X62697368Y-113100198D01*
X62697368Y-113100198D02*
X62625940Y-113243055D01*
X62625940Y-113243055D02*
X62554511Y-113314484D01*
X62554511Y-113314484D02*
X62411654Y-113385912D01*
X62411654Y-113385912D02*
X62197368Y-113385912D01*
X63983083Y-113385912D02*
X63983083Y-112600198D01*
X63983083Y-112600198D02*
X63911654Y-112457341D01*
X63911654Y-112457341D02*
X63768797Y-112385912D01*
X63768797Y-112385912D02*
X63483083Y-112385912D01*
X63483083Y-112385912D02*
X63340225Y-112457341D01*
X63983083Y-113314484D02*
X63840225Y-113385912D01*
X63840225Y-113385912D02*
X63483083Y-113385912D01*
X63483083Y-113385912D02*
X63340225Y-113314484D01*
X63340225Y-113314484D02*
X63268797Y-113171626D01*
X63268797Y-113171626D02*
X63268797Y-113028769D01*
X63268797Y-113028769D02*
X63340225Y-112885912D01*
X63340225Y-112885912D02*
X63483083Y-112814484D01*
X63483083Y-112814484D02*
X63840225Y-112814484D01*
X63840225Y-112814484D02*
X63983083Y-112743055D01*
X64697368Y-113385912D02*
X64697368Y-112385912D01*
X64697368Y-112671626D02*
X64768797Y-112528769D01*
X64768797Y-112528769D02*
X64840226Y-112457341D01*
X64840226Y-112457341D02*
X64983083Y-112385912D01*
X64983083Y-112385912D02*
X65125940Y-112385912D01*
X66268797Y-113385912D02*
X66268797Y-111885912D01*
X66268797Y-113314484D02*
X66125939Y-113385912D01*
X66125939Y-113385912D02*
X65840225Y-113385912D01*
X65840225Y-113385912D02*
X65697368Y-113314484D01*
X65697368Y-113314484D02*
X65625939Y-113243055D01*
X65625939Y-113243055D02*
X65554511Y-113100198D01*
X65554511Y-113100198D02*
X65554511Y-112671626D01*
X65554511Y-112671626D02*
X65625939Y-112528769D01*
X65625939Y-112528769D02*
X65697368Y-112457341D01*
X65697368Y-112457341D02*
X65840225Y-112385912D01*
X65840225Y-112385912D02*
X66125939Y-112385912D01*
X66125939Y-112385912D02*
X66268797Y-112457341D01*
X66983082Y-113243055D02*
X67054511Y-113314484D01*
X67054511Y-113314484D02*
X66983082Y-113385912D01*
X66983082Y-113385912D02*
X66911654Y-113314484D01*
X66911654Y-113314484D02*
X66983082Y-113243055D01*
X66983082Y-113243055D02*
X66983082Y-113385912D01*
X66983082Y-112814484D02*
X66911654Y-111957341D01*
X66911654Y-111957341D02*
X66983082Y-111885912D01*
X66983082Y-111885912D02*
X67054511Y-111957341D01*
X67054511Y-111957341D02*
X66983082Y-112814484D01*
X66983082Y-112814484D02*
X66983082Y-111885912D01*
X52840225Y-114300828D02*
X53340225Y-115800828D01*
X53340225Y-115800828D02*
X53840225Y-114300828D01*
X54911653Y-115729400D02*
X54768796Y-115800828D01*
X54768796Y-115800828D02*
X54483082Y-115800828D01*
X54483082Y-115800828D02*
X54340224Y-115729400D01*
X54340224Y-115729400D02*
X54268796Y-115586542D01*
X54268796Y-115586542D02*
X54268796Y-115015114D01*
X54268796Y-115015114D02*
X54340224Y-114872257D01*
X54340224Y-114872257D02*
X54483082Y-114800828D01*
X54483082Y-114800828D02*
X54768796Y-114800828D01*
X54768796Y-114800828D02*
X54911653Y-114872257D01*
X54911653Y-114872257D02*
X54983082Y-115015114D01*
X54983082Y-115015114D02*
X54983082Y-115157971D01*
X54983082Y-115157971D02*
X54268796Y-115300828D01*
X55625938Y-115800828D02*
X55625938Y-114800828D01*
X55625938Y-115086542D02*
X55697367Y-114943685D01*
X55697367Y-114943685D02*
X55768796Y-114872257D01*
X55768796Y-114872257D02*
X55911653Y-114800828D01*
X55911653Y-114800828D02*
X56054510Y-114800828D01*
X56483081Y-115729400D02*
X56625938Y-115800828D01*
X56625938Y-115800828D02*
X56911652Y-115800828D01*
X56911652Y-115800828D02*
X57054509Y-115729400D01*
X57054509Y-115729400D02*
X57125938Y-115586542D01*
X57125938Y-115586542D02*
X57125938Y-115515114D01*
X57125938Y-115515114D02*
X57054509Y-115372257D01*
X57054509Y-115372257D02*
X56911652Y-115300828D01*
X56911652Y-115300828D02*
X56697367Y-115300828D01*
X56697367Y-115300828D02*
X56554509Y-115229400D01*
X56554509Y-115229400D02*
X56483081Y-115086542D01*
X56483081Y-115086542D02*
X56483081Y-115015114D01*
X56483081Y-115015114D02*
X56554509Y-114872257D01*
X56554509Y-114872257D02*
X56697367Y-114800828D01*
X56697367Y-114800828D02*
X56911652Y-114800828D01*
X56911652Y-114800828D02*
X57054509Y-114872257D01*
X57768795Y-115800828D02*
X57768795Y-114800828D01*
X57768795Y-114300828D02*
X57697367Y-114372257D01*
X57697367Y-114372257D02*
X57768795Y-114443685D01*
X57768795Y-114443685D02*
X57840224Y-114372257D01*
X57840224Y-114372257D02*
X57768795Y-114300828D01*
X57768795Y-114300828D02*
X57768795Y-114443685D01*
X58697367Y-115800828D02*
X58554510Y-115729400D01*
X58554510Y-115729400D02*
X58483081Y-115657971D01*
X58483081Y-115657971D02*
X58411653Y-115515114D01*
X58411653Y-115515114D02*
X58411653Y-115086542D01*
X58411653Y-115086542D02*
X58483081Y-114943685D01*
X58483081Y-114943685D02*
X58554510Y-114872257D01*
X58554510Y-114872257D02*
X58697367Y-114800828D01*
X58697367Y-114800828D02*
X58911653Y-114800828D01*
X58911653Y-114800828D02*
X59054510Y-114872257D01*
X59054510Y-114872257D02*
X59125939Y-114943685D01*
X59125939Y-114943685D02*
X59197367Y-115086542D01*
X59197367Y-115086542D02*
X59197367Y-115515114D01*
X59197367Y-115515114D02*
X59125939Y-115657971D01*
X59125939Y-115657971D02*
X59054510Y-115729400D01*
X59054510Y-115729400D02*
X58911653Y-115800828D01*
X58911653Y-115800828D02*
X58697367Y-115800828D01*
X59840224Y-114800828D02*
X59840224Y-115800828D01*
X59840224Y-114943685D02*
X59911653Y-114872257D01*
X59911653Y-114872257D02*
X60054510Y-114800828D01*
X60054510Y-114800828D02*
X60268796Y-114800828D01*
X60268796Y-114800828D02*
X60411653Y-114872257D01*
X60411653Y-114872257D02*
X60483082Y-115015114D01*
X60483082Y-115015114D02*
X60483082Y-115800828D01*
X62625939Y-114300828D02*
X62768796Y-114300828D01*
X62768796Y-114300828D02*
X62911653Y-114372257D01*
X62911653Y-114372257D02*
X62983082Y-114443685D01*
X62983082Y-114443685D02*
X63054510Y-114586542D01*
X63054510Y-114586542D02*
X63125939Y-114872257D01*
X63125939Y-114872257D02*
X63125939Y-115229400D01*
X63125939Y-115229400D02*
X63054510Y-115515114D01*
X63054510Y-115515114D02*
X62983082Y-115657971D01*
X62983082Y-115657971D02*
X62911653Y-115729400D01*
X62911653Y-115729400D02*
X62768796Y-115800828D01*
X62768796Y-115800828D02*
X62625939Y-115800828D01*
X62625939Y-115800828D02*
X62483082Y-115729400D01*
X62483082Y-115729400D02*
X62411653Y-115657971D01*
X62411653Y-115657971D02*
X62340224Y-115515114D01*
X62340224Y-115515114D02*
X62268796Y-115229400D01*
X62268796Y-115229400D02*
X62268796Y-114872257D01*
X62268796Y-114872257D02*
X62340224Y-114586542D01*
X62340224Y-114586542D02*
X62411653Y-114443685D01*
X62411653Y-114443685D02*
X62483082Y-114372257D01*
X62483082Y-114372257D02*
X62625939Y-114300828D01*
X63768795Y-115657971D02*
X63840224Y-115729400D01*
X63840224Y-115729400D02*
X63768795Y-115800828D01*
X63768795Y-115800828D02*
X63697367Y-115729400D01*
X63697367Y-115729400D02*
X63768795Y-115657971D01*
X63768795Y-115657971D02*
X63768795Y-115800828D01*
X65268796Y-115800828D02*
X64411653Y-115800828D01*
X64840224Y-115800828D02*
X64840224Y-114300828D01*
X64840224Y-114300828D02*
X64697367Y-114515114D01*
X64697367Y-114515114D02*
X64554510Y-114657971D01*
X64554510Y-114657971D02*
X64411653Y-114729400D01*
X225840225Y-111885912D02*
X226697368Y-111885912D01*
X226268796Y-113385912D02*
X226268796Y-111885912D01*
X227411653Y-113385912D02*
X227268796Y-113314484D01*
X227268796Y-113314484D02*
X227197367Y-113243055D01*
X227197367Y-113243055D02*
X227125939Y-113100198D01*
X227125939Y-113100198D02*
X227125939Y-112671626D01*
X227125939Y-112671626D02*
X227197367Y-112528769D01*
X227197367Y-112528769D02*
X227268796Y-112457341D01*
X227268796Y-112457341D02*
X227411653Y-112385912D01*
X227411653Y-112385912D02*
X227625939Y-112385912D01*
X227625939Y-112385912D02*
X227768796Y-112457341D01*
X227768796Y-112457341D02*
X227840225Y-112528769D01*
X227840225Y-112528769D02*
X227911653Y-112671626D01*
X227911653Y-112671626D02*
X227911653Y-113100198D01*
X227911653Y-113100198D02*
X227840225Y-113243055D01*
X227840225Y-113243055D02*
X227768796Y-113314484D01*
X227768796Y-113314484D02*
X227625939Y-113385912D01*
X227625939Y-113385912D02*
X227411653Y-113385912D01*
X228554510Y-113385912D02*
X228554510Y-112385912D01*
X228554510Y-112528769D02*
X228625939Y-112457341D01*
X228625939Y-112457341D02*
X228768796Y-112385912D01*
X228768796Y-112385912D02*
X228983082Y-112385912D01*
X228983082Y-112385912D02*
X229125939Y-112457341D01*
X229125939Y-112457341D02*
X229197368Y-112600198D01*
X229197368Y-112600198D02*
X229197368Y-113385912D01*
X229197368Y-112600198D02*
X229268796Y-112457341D01*
X229268796Y-112457341D02*
X229411653Y-112385912D01*
X229411653Y-112385912D02*
X229625939Y-112385912D01*
X229625939Y-112385912D02*
X229768796Y-112457341D01*
X229768796Y-112457341D02*
X229840225Y-112600198D01*
X229840225Y-112600198D02*
X229840225Y-113385912D01*
X230625939Y-111885912D02*
X230483082Y-112171626D01*
X231197368Y-113314484D02*
X231340225Y-113385912D01*
X231340225Y-113385912D02*
X231625939Y-113385912D01*
X231625939Y-113385912D02*
X231768796Y-113314484D01*
X231768796Y-113314484D02*
X231840225Y-113171626D01*
X231840225Y-113171626D02*
X231840225Y-113100198D01*
X231840225Y-113100198D02*
X231768796Y-112957341D01*
X231768796Y-112957341D02*
X231625939Y-112885912D01*
X231625939Y-112885912D02*
X231411654Y-112885912D01*
X231411654Y-112885912D02*
X231268796Y-112814484D01*
X231268796Y-112814484D02*
X231197368Y-112671626D01*
X231197368Y-112671626D02*
X231197368Y-112600198D01*
X231197368Y-112600198D02*
X231268796Y-112457341D01*
X231268796Y-112457341D02*
X231411654Y-112385912D01*
X231411654Y-112385912D02*
X231625939Y-112385912D01*
X231625939Y-112385912D02*
X231768796Y-112457341D01*
X233625939Y-113385912D02*
X233625939Y-111885912D01*
X233625939Y-112457341D02*
X233768797Y-112385912D01*
X233768797Y-112385912D02*
X234054511Y-112385912D01*
X234054511Y-112385912D02*
X234197368Y-112457341D01*
X234197368Y-112457341D02*
X234268797Y-112528769D01*
X234268797Y-112528769D02*
X234340225Y-112671626D01*
X234340225Y-112671626D02*
X234340225Y-113100198D01*
X234340225Y-113100198D02*
X234268797Y-113243055D01*
X234268797Y-113243055D02*
X234197368Y-113314484D01*
X234197368Y-113314484D02*
X234054511Y-113385912D01*
X234054511Y-113385912D02*
X233768797Y-113385912D01*
X233768797Y-113385912D02*
X233625939Y-113314484D01*
X235197368Y-113385912D02*
X235054511Y-113314484D01*
X235054511Y-113314484D02*
X234983082Y-113243055D01*
X234983082Y-113243055D02*
X234911654Y-113100198D01*
X234911654Y-113100198D02*
X234911654Y-112671626D01*
X234911654Y-112671626D02*
X234983082Y-112528769D01*
X234983082Y-112528769D02*
X235054511Y-112457341D01*
X235054511Y-112457341D02*
X235197368Y-112385912D01*
X235197368Y-112385912D02*
X235411654Y-112385912D01*
X235411654Y-112385912D02*
X235554511Y-112457341D01*
X235554511Y-112457341D02*
X235625940Y-112528769D01*
X235625940Y-112528769D02*
X235697368Y-112671626D01*
X235697368Y-112671626D02*
X235697368Y-113100198D01*
X235697368Y-113100198D02*
X235625940Y-113243055D01*
X235625940Y-113243055D02*
X235554511Y-113314484D01*
X235554511Y-113314484D02*
X235411654Y-113385912D01*
X235411654Y-113385912D02*
X235197368Y-113385912D01*
X236983083Y-113385912D02*
X236983083Y-112600198D01*
X236983083Y-112600198D02*
X236911654Y-112457341D01*
X236911654Y-112457341D02*
X236768797Y-112385912D01*
X236768797Y-112385912D02*
X236483083Y-112385912D01*
X236483083Y-112385912D02*
X236340225Y-112457341D01*
X236983083Y-113314484D02*
X236840225Y-113385912D01*
X236840225Y-113385912D02*
X236483083Y-113385912D01*
X236483083Y-113385912D02*
X236340225Y-113314484D01*
X236340225Y-113314484D02*
X236268797Y-113171626D01*
X236268797Y-113171626D02*
X236268797Y-113028769D01*
X236268797Y-113028769D02*
X236340225Y-112885912D01*
X236340225Y-112885912D02*
X236483083Y-112814484D01*
X236483083Y-112814484D02*
X236840225Y-112814484D01*
X236840225Y-112814484D02*
X236983083Y-112743055D01*
X237697368Y-113385912D02*
X237697368Y-112385912D01*
X237697368Y-112671626D02*
X237768797Y-112528769D01*
X237768797Y-112528769D02*
X237840226Y-112457341D01*
X237840226Y-112457341D02*
X237983083Y-112385912D01*
X237983083Y-112385912D02*
X238125940Y-112385912D01*
X239268797Y-113385912D02*
X239268797Y-111885912D01*
X239268797Y-113314484D02*
X239125939Y-113385912D01*
X239125939Y-113385912D02*
X238840225Y-113385912D01*
X238840225Y-113385912D02*
X238697368Y-113314484D01*
X238697368Y-113314484D02*
X238625939Y-113243055D01*
X238625939Y-113243055D02*
X238554511Y-113100198D01*
X238554511Y-113100198D02*
X238554511Y-112671626D01*
X238554511Y-112671626D02*
X238625939Y-112528769D01*
X238625939Y-112528769D02*
X238697368Y-112457341D01*
X238697368Y-112457341D02*
X238840225Y-112385912D01*
X238840225Y-112385912D02*
X239125939Y-112385912D01*
X239125939Y-112385912D02*
X239268797Y-112457341D01*
X239983082Y-113243055D02*
X240054511Y-113314484D01*
X240054511Y-113314484D02*
X239983082Y-113385912D01*
X239983082Y-113385912D02*
X239911654Y-113314484D01*
X239911654Y-113314484D02*
X239983082Y-113243055D01*
X239983082Y-113243055D02*
X239983082Y-113385912D01*
X239983082Y-112814484D02*
X239911654Y-111957341D01*
X239911654Y-111957341D02*
X239983082Y-111885912D01*
X239983082Y-111885912D02*
X240054511Y-111957341D01*
X240054511Y-111957341D02*
X239983082Y-112814484D01*
X239983082Y-112814484D02*
X239983082Y-111885912D01*
X225840225Y-114300828D02*
X226340225Y-115800828D01*
X226340225Y-115800828D02*
X226840225Y-114300828D01*
X227911653Y-115729400D02*
X227768796Y-115800828D01*
X227768796Y-115800828D02*
X227483082Y-115800828D01*
X227483082Y-115800828D02*
X227340224Y-115729400D01*
X227340224Y-115729400D02*
X227268796Y-115586542D01*
X227268796Y-115586542D02*
X227268796Y-115015114D01*
X227268796Y-115015114D02*
X227340224Y-114872257D01*
X227340224Y-114872257D02*
X227483082Y-114800828D01*
X227483082Y-114800828D02*
X227768796Y-114800828D01*
X227768796Y-114800828D02*
X227911653Y-114872257D01*
X227911653Y-114872257D02*
X227983082Y-115015114D01*
X227983082Y-115015114D02*
X227983082Y-115157971D01*
X227983082Y-115157971D02*
X227268796Y-115300828D01*
X228625938Y-115800828D02*
X228625938Y-114800828D01*
X228625938Y-115086542D02*
X228697367Y-114943685D01*
X228697367Y-114943685D02*
X228768796Y-114872257D01*
X228768796Y-114872257D02*
X228911653Y-114800828D01*
X228911653Y-114800828D02*
X229054510Y-114800828D01*
X229483081Y-115729400D02*
X229625938Y-115800828D01*
X229625938Y-115800828D02*
X229911652Y-115800828D01*
X229911652Y-115800828D02*
X230054509Y-115729400D01*
X230054509Y-115729400D02*
X230125938Y-115586542D01*
X230125938Y-115586542D02*
X230125938Y-115515114D01*
X230125938Y-115515114D02*
X230054509Y-115372257D01*
X230054509Y-115372257D02*
X229911652Y-115300828D01*
X229911652Y-115300828D02*
X229697367Y-115300828D01*
X229697367Y-115300828D02*
X229554509Y-115229400D01*
X229554509Y-115229400D02*
X229483081Y-115086542D01*
X229483081Y-115086542D02*
X229483081Y-115015114D01*
X229483081Y-115015114D02*
X229554509Y-114872257D01*
X229554509Y-114872257D02*
X229697367Y-114800828D01*
X229697367Y-114800828D02*
X229911652Y-114800828D01*
X229911652Y-114800828D02*
X230054509Y-114872257D01*
X230768795Y-115800828D02*
X230768795Y-114800828D01*
X230768795Y-114300828D02*
X230697367Y-114372257D01*
X230697367Y-114372257D02*
X230768795Y-114443685D01*
X230768795Y-114443685D02*
X230840224Y-114372257D01*
X230840224Y-114372257D02*
X230768795Y-114300828D01*
X230768795Y-114300828D02*
X230768795Y-114443685D01*
X231697367Y-115800828D02*
X231554510Y-115729400D01*
X231554510Y-115729400D02*
X231483081Y-115657971D01*
X231483081Y-115657971D02*
X231411653Y-115515114D01*
X231411653Y-115515114D02*
X231411653Y-115086542D01*
X231411653Y-115086542D02*
X231483081Y-114943685D01*
X231483081Y-114943685D02*
X231554510Y-114872257D01*
X231554510Y-114872257D02*
X231697367Y-114800828D01*
X231697367Y-114800828D02*
X231911653Y-114800828D01*
X231911653Y-114800828D02*
X232054510Y-114872257D01*
X232054510Y-114872257D02*
X232125939Y-114943685D01*
X232125939Y-114943685D02*
X232197367Y-115086542D01*
X232197367Y-115086542D02*
X232197367Y-115515114D01*
X232197367Y-115515114D02*
X232125939Y-115657971D01*
X232125939Y-115657971D02*
X232054510Y-115729400D01*
X232054510Y-115729400D02*
X231911653Y-115800828D01*
X231911653Y-115800828D02*
X231697367Y-115800828D01*
X232840224Y-114800828D02*
X232840224Y-115800828D01*
X232840224Y-114943685D02*
X232911653Y-114872257D01*
X232911653Y-114872257D02*
X233054510Y-114800828D01*
X233054510Y-114800828D02*
X233268796Y-114800828D01*
X233268796Y-114800828D02*
X233411653Y-114872257D01*
X233411653Y-114872257D02*
X233483082Y-115015114D01*
X233483082Y-115015114D02*
X233483082Y-115800828D01*
X235625939Y-114300828D02*
X235768796Y-114300828D01*
X235768796Y-114300828D02*
X235911653Y-114372257D01*
X235911653Y-114372257D02*
X235983082Y-114443685D01*
X235983082Y-114443685D02*
X236054510Y-114586542D01*
X236054510Y-114586542D02*
X236125939Y-114872257D01*
X236125939Y-114872257D02*
X236125939Y-115229400D01*
X236125939Y-115229400D02*
X236054510Y-115515114D01*
X236054510Y-115515114D02*
X235983082Y-115657971D01*
X235983082Y-115657971D02*
X235911653Y-115729400D01*
X235911653Y-115729400D02*
X235768796Y-115800828D01*
X235768796Y-115800828D02*
X235625939Y-115800828D01*
X235625939Y-115800828D02*
X235483082Y-115729400D01*
X235483082Y-115729400D02*
X235411653Y-115657971D01*
X235411653Y-115657971D02*
X235340224Y-115515114D01*
X235340224Y-115515114D02*
X235268796Y-115229400D01*
X235268796Y-115229400D02*
X235268796Y-114872257D01*
X235268796Y-114872257D02*
X235340224Y-114586542D01*
X235340224Y-114586542D02*
X235411653Y-114443685D01*
X235411653Y-114443685D02*
X235483082Y-114372257D01*
X235483082Y-114372257D02*
X235625939Y-114300828D01*
X236768795Y-115657971D02*
X236840224Y-115729400D01*
X236840224Y-115729400D02*
X236768795Y-115800828D01*
X236768795Y-115800828D02*
X236697367Y-115729400D01*
X236697367Y-115729400D02*
X236768795Y-115657971D01*
X236768795Y-115657971D02*
X236768795Y-115800828D01*
X238268796Y-115800828D02*
X237411653Y-115800828D01*
X237840224Y-115800828D02*
X237840224Y-114300828D01*
X237840224Y-114300828D02*
X237697367Y-114515114D01*
X237697367Y-114515114D02*
X237554510Y-114657971D01*
X237554510Y-114657971D02*
X237411653Y-114729400D01*
D11*
%TO.C,T1*%
X55192257Y-35270000D02*
X55192257Y-38120000D01*
X55192257Y-38120000D02*
X61792257Y-38120000D01*
X58492257Y-35270000D02*
X55192257Y-35270000D01*
X58492257Y-35270000D02*
X61792257Y-35270000D01*
X60442257Y-35270000D02*
X56542257Y-35270000D01*
X61792257Y-38120000D02*
X61792257Y-35270000D01*
%TO.C,T2*%
X232880000Y-35270000D02*
X232880000Y-38120000D01*
X232880000Y-38120000D02*
X239480000Y-38120000D01*
X236180000Y-35270000D02*
X232880000Y-35270000D01*
X236180000Y-35270000D02*
X239480000Y-35270000D01*
X238130000Y-35270000D02*
X234230000Y-35270000D01*
X239480000Y-38120000D02*
X239480000Y-35270000D01*
%TD*%
%LPC*%
D12*
%TO.C,T1*%
X54792257Y-35520000D03*
X54792257Y-37720000D03*
D13*
X56992257Y-36620000D03*
X59992257Y-36620000D03*
D12*
X62192257Y-35520000D03*
X62192257Y-37720000D03*
D14*
X60742257Y-38695000D03*
X57742257Y-38695000D03*
X56242257Y-38695000D03*
%TD*%
D15*
%TO.C,S25*%
X211340000Y-83124000D03*
D16*
X212610000Y-80584000D03*
D17*
X216420000Y-83124000D03*
D16*
X218960000Y-78044000D03*
D15*
X221500000Y-83124000D03*
%TD*%
%TO.C,S28*%
X191580000Y-95011200D03*
D16*
X192850000Y-92471200D03*
D17*
X196660000Y-95011200D03*
D16*
X199200000Y-89931200D03*
D15*
X201740000Y-95011200D03*
%TD*%
%TO.C,S14*%
X112692257Y-79161600D03*
D16*
X113962257Y-76621600D03*
D17*
X117772257Y-79161600D03*
D16*
X120312257Y-74081600D03*
D15*
X122852257Y-79161600D03*
%TD*%
D12*
%TO.C,T2*%
X232480000Y-35520000D03*
X232480000Y-37720000D03*
D13*
X234680000Y-36620000D03*
X237680000Y-36620000D03*
D12*
X239880000Y-35520000D03*
X239880000Y-37720000D03*
D14*
X238430000Y-38695000D03*
X235430000Y-38695000D03*
X233930000Y-38695000D03*
%TD*%
D15*
%TO.C,S36*%
X159376323Y-134853675D03*
D16*
X158910800Y-132052285D03*
D17*
X163486129Y-131867726D03*
D16*
X162555083Y-126264945D03*
D15*
X167595935Y-128881777D03*
%TD*%
%TO.C,S4*%
X53412257Y-89067600D03*
D16*
X54682257Y-86527600D03*
D17*
X58492257Y-89067600D03*
D16*
X61032257Y-83987600D03*
D15*
X63572257Y-89067600D03*
%TD*%
D18*
%TO.C,BATTPAD4*%
X215420000Y-97030000D03*
X217420000Y-97030000D03*
%TD*%
D15*
%TO.C,S35*%
X179105183Y-123137524D03*
D16*
X179528122Y-120329389D03*
D17*
X183936550Y-121567718D03*
D16*
X184782427Y-115951448D03*
D15*
X188767917Y-119997912D03*
%TD*%
%TO.C,S17*%
X105904340Y-119997912D03*
D16*
X107897085Y-117974680D03*
D17*
X110735707Y-121567718D03*
D16*
X114721197Y-117521254D03*
D15*
X115567074Y-123137524D03*
%TD*%
%TO.C,S30*%
X191580000Y-55387200D03*
D16*
X192850000Y-52847200D03*
D17*
X196660000Y-55387200D03*
D16*
X199200000Y-50307200D03*
D15*
X201740000Y-55387200D03*
%TD*%
%TO.C,S32*%
X171820000Y-79161600D03*
D16*
X173090000Y-76621600D03*
D17*
X176900000Y-79161600D03*
D16*
X179440000Y-74081600D03*
D15*
X181980000Y-79161600D03*
%TD*%
%TO.C,S26*%
X211340000Y-63312000D03*
D16*
X212610000Y-60772000D03*
D17*
X216420000Y-63312000D03*
D16*
X218960000Y-58232000D03*
D15*
X221500000Y-63312000D03*
%TD*%
%TO.C,S15*%
X112692257Y-59349600D03*
D16*
X113962257Y-56809600D03*
D17*
X117772257Y-59349600D03*
D16*
X120312257Y-54269600D03*
D15*
X122852257Y-59349600D03*
%TD*%
%TO.C,S2*%
X33652257Y-89067600D03*
D16*
X34922257Y-86527600D03*
D17*
X38732257Y-89067600D03*
D16*
X41272257Y-83987600D03*
D15*
X43812257Y-89067600D03*
%TD*%
%TO.C,S27*%
X211340000Y-43500000D03*
D16*
X212610000Y-40960000D03*
D17*
X216420000Y-43500000D03*
D16*
X218960000Y-38420000D03*
D15*
X221500000Y-43500000D03*
%TD*%
%TO.C,S11*%
X92932257Y-75199200D03*
D16*
X94202257Y-72659200D03*
D17*
X98012257Y-75199200D03*
D16*
X100552257Y-70119200D03*
D15*
X103092257Y-75199200D03*
%TD*%
D19*
%TO.C,xiao-ble2*%
X247735000Y-37348600D03*
X247735000Y-39888600D03*
X247735000Y-42428600D03*
X247735000Y-44968600D03*
X247735000Y-47508600D03*
X247735000Y-50048600D03*
X247735000Y-52588600D03*
X263925000Y-52588600D03*
X263925000Y-50048600D03*
X263925000Y-47508600D03*
X263925000Y-44968600D03*
X263925000Y-42428600D03*
X263925000Y-39888600D03*
X263925000Y-37348600D03*
D18*
X254560000Y-36396600D03*
X257100000Y-36396600D03*
X254560000Y-38936600D03*
X257100000Y-38936600D03*
X251385000Y-44651600D03*
X251385000Y-42746600D03*
%TD*%
D15*
%TO.C,S1*%
X33652257Y-108879600D03*
D16*
X34922257Y-106339600D03*
D17*
X38732257Y-108879600D03*
D16*
X41272257Y-103799600D03*
D15*
X43812257Y-108879600D03*
%TD*%
%TO.C,S21*%
X250860000Y-69255600D03*
D16*
X252130000Y-66715600D03*
D17*
X255940000Y-69255600D03*
D16*
X258480000Y-64175600D03*
D15*
X261020000Y-69255600D03*
%TD*%
%TO.C,S24*%
X231100000Y-49443600D03*
D16*
X232370000Y-46903600D03*
D17*
X236180000Y-49443600D03*
D16*
X238720000Y-44363600D03*
D15*
X241260000Y-49443600D03*
%TD*%
%TO.C,S6*%
X53412257Y-49443600D03*
D16*
X54682257Y-46903600D03*
D17*
X58492257Y-49443600D03*
D16*
X61032257Y-44363600D03*
D15*
X63572257Y-49443600D03*
%TD*%
%TO.C,S29*%
X191580000Y-75199200D03*
D16*
X192850000Y-72659200D03*
D17*
X196660000Y-75199200D03*
D16*
X199200000Y-70119200D03*
D15*
X201740000Y-75199200D03*
%TD*%
%TO.C,S13*%
X112692257Y-98973600D03*
D16*
X113962257Y-96433600D03*
D17*
X117772257Y-98973600D03*
D16*
X120312257Y-93893600D03*
D15*
X122852257Y-98973600D03*
%TD*%
%TO.C,S20*%
X250860000Y-89067600D03*
D16*
X252130000Y-86527600D03*
D17*
X255940000Y-89067600D03*
D16*
X258480000Y-83987600D03*
D15*
X261020000Y-89067600D03*
%TD*%
%TO.C,S8*%
X73172257Y-63312000D03*
D16*
X74442257Y-60772000D03*
D17*
X78252257Y-63312000D03*
D16*
X80792257Y-58232000D03*
D15*
X83332257Y-63312000D03*
%TD*%
%TO.C,S7*%
X73172257Y-83124000D03*
D16*
X74442257Y-80584000D03*
D17*
X78252257Y-83124000D03*
D16*
X80792257Y-78044000D03*
D15*
X83332257Y-83124000D03*
%TD*%
%TO.C,S23*%
X231100000Y-69255600D03*
D16*
X232370000Y-66715600D03*
D17*
X236180000Y-69255600D03*
D16*
X238720000Y-64175600D03*
D15*
X241260000Y-69255600D03*
%TD*%
%TO.C,S33*%
X171820000Y-59349600D03*
D16*
X173090000Y-56809600D03*
D17*
X176900000Y-59349600D03*
D16*
X179440000Y-54269600D03*
D15*
X181980000Y-59349600D03*
%TD*%
%TO.C,S5*%
X53412257Y-69255600D03*
D16*
X54682257Y-66715600D03*
D17*
X58492257Y-69255600D03*
D16*
X61032257Y-64175600D03*
D15*
X63572257Y-69255600D03*
%TD*%
%TO.C,S12*%
X92932257Y-55387200D03*
D16*
X94202257Y-52847200D03*
D17*
X98012257Y-55387200D03*
D16*
X100552257Y-50307200D03*
D15*
X103092257Y-55387200D03*
%TD*%
%TO.C,S34*%
X201080000Y-117823200D03*
D16*
X202350000Y-115283200D03*
D17*
X206160000Y-117823200D03*
D16*
X208700000Y-112743200D03*
D15*
X211240000Y-117823200D03*
%TD*%
%TO.C,S18*%
X127076323Y-128881777D03*
D16*
X129596749Y-127573361D03*
D17*
X131186129Y-131867726D03*
D16*
X136226981Y-129250894D03*
D15*
X135295935Y-134853675D03*
%TD*%
%TO.C,S3*%
X33652257Y-69255600D03*
D16*
X34922257Y-66715600D03*
D17*
X38732257Y-69255600D03*
D16*
X41272257Y-64175600D03*
D15*
X43812257Y-69255600D03*
%TD*%
%TO.C,S31*%
X171820000Y-98973600D03*
D16*
X173090000Y-96433600D03*
D17*
X176900000Y-98973600D03*
D16*
X179440000Y-93893600D03*
D15*
X181980000Y-98973600D03*
%TD*%
%TO.C,S16*%
X83432257Y-117823200D03*
D16*
X84702257Y-115283200D03*
D17*
X88512257Y-117823200D03*
D16*
X91052257Y-112743200D03*
D15*
X93592257Y-117823200D03*
%TD*%
%TO.C,S22*%
X231100000Y-89067600D03*
D16*
X232370000Y-86527600D03*
D17*
X236180000Y-89067600D03*
D16*
X238720000Y-83987600D03*
D15*
X241260000Y-89067600D03*
%TD*%
%TO.C,S19*%
X250860000Y-108879600D03*
D16*
X252130000Y-106339600D03*
D17*
X255940000Y-108879600D03*
D16*
X258480000Y-103799600D03*
D15*
X261020000Y-108879600D03*
%TD*%
D19*
%TO.C,xiao-ble1*%
X30747257Y-37348600D03*
X30747257Y-39888600D03*
X30747257Y-42428600D03*
X30747257Y-44968600D03*
X30747257Y-47508600D03*
X30747257Y-50048600D03*
X30747257Y-52588600D03*
X46937257Y-52588600D03*
X46937257Y-50048600D03*
X46937257Y-47508600D03*
X46937257Y-44968600D03*
X46937257Y-42428600D03*
X46937257Y-39888600D03*
X46937257Y-37348600D03*
D18*
X37572257Y-36396600D03*
X40112257Y-36396600D03*
X37572257Y-38936600D03*
X40112257Y-38936600D03*
X34397257Y-44651600D03*
X34397257Y-42746600D03*
%TD*%
D15*
%TO.C,S9*%
X73172257Y-43500000D03*
D16*
X74442257Y-40960000D03*
D17*
X78252257Y-43500000D03*
D16*
X80792257Y-38420000D03*
D15*
X83332257Y-43500000D03*
%TD*%
%TO.C,S10*%
X92932257Y-95011200D03*
D16*
X94202257Y-92471200D03*
D17*
X98012257Y-95011200D03*
D16*
X100552257Y-89931200D03*
D15*
X103092257Y-95011200D03*
%TD*%
D18*
%TO.C,BATTPAD2*%
X77252257Y-97030000D03*
X79252257Y-97030000D03*
%TD*%
%LPD*%
M02*
