%TF.GenerationSoftware,KiCad,Pcbnew,8.0.1*%
%TF.CreationDate,2024-04-22T06:21:47+12:00*%
%TF.ProjectId,main routed,6d61696e-2072-46f7-9574-65642e6b6963,v1.0.0*%
%TF.SameCoordinates,Original*%
%TF.FileFunction,Legend,Bot*%
%TF.FilePolarity,Positive*%
%FSLAX46Y46*%
G04 Gerber Fmt 4.6, Leading zero omitted, Abs format (unit mm)*
G04 Created by KiCad (PCBNEW 8.0.1) date 2024-04-22 06:21:47*
%MOMM*%
%LPD*%
G01*
G04 APERTURE LIST*
G04 Aperture macros list*
%AMRoundRect*
0 Rectangle with rounded corners*
0 $1 Rounding radius*
0 $2 $3 $4 $5 $6 $7 $8 $9 X,Y pos of 4 corners*
0 Add a 4 corners polygon primitive as box body*
4,1,4,$2,$3,$4,$5,$6,$7,$8,$9,$2,$3,0*
0 Add four circle primitives for the rounded corners*
1,1,$1+$1,$2,$3*
1,1,$1+$1,$4,$5*
1,1,$1+$1,$6,$7*
1,1,$1+$1,$8,$9*
0 Add four rect primitives between the rounded corners*
20,1,$1+$1,$2,$3,$4,$5,0*
20,1,$1+$1,$4,$5,$6,$7,0*
20,1,$1+$1,$6,$7,$8,$9,0*
20,1,$1+$1,$8,$9,$2,$3,0*%
G04 Aperture macros list end*
%ADD10C,0.300000*%
%ADD11C,0.150000*%
%ADD12C,0.100000*%
%ADD13C,1.100000*%
%ADD14C,1.801800*%
%ADD15C,3.100000*%
%ADD16C,4.087800*%
%ADD17RoundRect,0.050000X-1.275000X-1.250000X1.275000X-1.250000X1.275000X1.250000X-1.275000X1.250000X0*%
%ADD18RoundRect,0.050000X-0.296765X-1.760697X1.766228X-0.261845X0.296765X1.760697X-1.766228X0.261845X0*%
%ADD19C,1.497000*%
%ADD20RoundRect,0.050000X-0.826326X-1.582817X1.598868X-0.794824X0.826326X1.582817X-1.598868X0.794824X0*%
%ADD21RoundRect,0.050000X-1.598868X-0.794824X0.826326X-1.582817X1.598868X0.794824X-0.826326X1.582817X0*%
%ADD22RoundRect,0.050000X-0.750000X-0.750000X0.750000X-0.750000X0.750000X0.750000X-0.750000X0.750000X0*%
%ADD23O,2.850000X1.900000*%
%ADD24RoundRect,0.050000X-1.766228X-0.261845X0.296765X-1.760697X1.766228X0.261845X-0.296765X1.760697X0*%
%ADD25RoundRect,0.050000X0.450000X0.600000X-0.450000X0.600000X-0.450000X-0.600000X0.450000X-0.600000X0*%
%ADD26RoundRect,0.050000X0.242565X0.709692X-0.613386X0.431576X-0.242565X-0.709692X0.613386X-0.431576X0*%
%ADD27RoundRect,0.050000X0.011386X0.749914X-0.716729X0.220907X-0.011386X-0.749914X0.716729X-0.220907X0*%
%ADD28RoundRect,0.050000X0.613386X0.431576X-0.242565X0.709692X-0.613386X-0.431576X0.242565X-0.709692X0*%
%ADD29RoundRect,0.050000X0.716729X0.220907X-0.011386X0.749914X-0.716729X-0.220907X0.011386X-0.749914X0*%
G04 APERTURE END LIST*
D10*
X244159774Y-111885912D02*
X243302632Y-111885912D01*
X243731203Y-113385912D02*
X243731203Y-111885912D01*
X242588346Y-113385912D02*
X242731203Y-113314484D01*
X242731203Y-113314484D02*
X242802632Y-113243055D01*
X242802632Y-113243055D02*
X242874060Y-113100198D01*
X242874060Y-113100198D02*
X242874060Y-112671626D01*
X242874060Y-112671626D02*
X242802632Y-112528769D01*
X242802632Y-112528769D02*
X242731203Y-112457341D01*
X242731203Y-112457341D02*
X242588346Y-112385912D01*
X242588346Y-112385912D02*
X242374060Y-112385912D01*
X242374060Y-112385912D02*
X242231203Y-112457341D01*
X242231203Y-112457341D02*
X242159775Y-112528769D01*
X242159775Y-112528769D02*
X242088346Y-112671626D01*
X242088346Y-112671626D02*
X242088346Y-113100198D01*
X242088346Y-113100198D02*
X242159775Y-113243055D01*
X242159775Y-113243055D02*
X242231203Y-113314484D01*
X242231203Y-113314484D02*
X242374060Y-113385912D01*
X242374060Y-113385912D02*
X242588346Y-113385912D01*
X241445489Y-113385912D02*
X241445489Y-112385912D01*
X241445489Y-112528769D02*
X241374060Y-112457341D01*
X241374060Y-112457341D02*
X241231203Y-112385912D01*
X241231203Y-112385912D02*
X241016917Y-112385912D01*
X241016917Y-112385912D02*
X240874060Y-112457341D01*
X240874060Y-112457341D02*
X240802632Y-112600198D01*
X240802632Y-112600198D02*
X240802632Y-113385912D01*
X240802632Y-112600198D02*
X240731203Y-112457341D01*
X240731203Y-112457341D02*
X240588346Y-112385912D01*
X240588346Y-112385912D02*
X240374060Y-112385912D01*
X240374060Y-112385912D02*
X240231203Y-112457341D01*
X240231203Y-112457341D02*
X240159774Y-112600198D01*
X240159774Y-112600198D02*
X240159774Y-113385912D01*
X239374060Y-111885912D02*
X239516917Y-112171626D01*
X238802631Y-113314484D02*
X238659774Y-113385912D01*
X238659774Y-113385912D02*
X238374060Y-113385912D01*
X238374060Y-113385912D02*
X238231203Y-113314484D01*
X238231203Y-113314484D02*
X238159774Y-113171626D01*
X238159774Y-113171626D02*
X238159774Y-113100198D01*
X238159774Y-113100198D02*
X238231203Y-112957341D01*
X238231203Y-112957341D02*
X238374060Y-112885912D01*
X238374060Y-112885912D02*
X238588346Y-112885912D01*
X238588346Y-112885912D02*
X238731203Y-112814484D01*
X238731203Y-112814484D02*
X238802631Y-112671626D01*
X238802631Y-112671626D02*
X238802631Y-112600198D01*
X238802631Y-112600198D02*
X238731203Y-112457341D01*
X238731203Y-112457341D02*
X238588346Y-112385912D01*
X238588346Y-112385912D02*
X238374060Y-112385912D01*
X238374060Y-112385912D02*
X238231203Y-112457341D01*
X236374060Y-113385912D02*
X236374060Y-111885912D01*
X236374060Y-112457341D02*
X236231203Y-112385912D01*
X236231203Y-112385912D02*
X235945488Y-112385912D01*
X235945488Y-112385912D02*
X235802631Y-112457341D01*
X235802631Y-112457341D02*
X235731203Y-112528769D01*
X235731203Y-112528769D02*
X235659774Y-112671626D01*
X235659774Y-112671626D02*
X235659774Y-113100198D01*
X235659774Y-113100198D02*
X235731203Y-113243055D01*
X235731203Y-113243055D02*
X235802631Y-113314484D01*
X235802631Y-113314484D02*
X235945488Y-113385912D01*
X235945488Y-113385912D02*
X236231203Y-113385912D01*
X236231203Y-113385912D02*
X236374060Y-113314484D01*
X234802631Y-113385912D02*
X234945488Y-113314484D01*
X234945488Y-113314484D02*
X235016917Y-113243055D01*
X235016917Y-113243055D02*
X235088345Y-113100198D01*
X235088345Y-113100198D02*
X235088345Y-112671626D01*
X235088345Y-112671626D02*
X235016917Y-112528769D01*
X235016917Y-112528769D02*
X234945488Y-112457341D01*
X234945488Y-112457341D02*
X234802631Y-112385912D01*
X234802631Y-112385912D02*
X234588345Y-112385912D01*
X234588345Y-112385912D02*
X234445488Y-112457341D01*
X234445488Y-112457341D02*
X234374060Y-112528769D01*
X234374060Y-112528769D02*
X234302631Y-112671626D01*
X234302631Y-112671626D02*
X234302631Y-113100198D01*
X234302631Y-113100198D02*
X234374060Y-113243055D01*
X234374060Y-113243055D02*
X234445488Y-113314484D01*
X234445488Y-113314484D02*
X234588345Y-113385912D01*
X234588345Y-113385912D02*
X234802631Y-113385912D01*
X233016917Y-113385912D02*
X233016917Y-112600198D01*
X233016917Y-112600198D02*
X233088345Y-112457341D01*
X233088345Y-112457341D02*
X233231202Y-112385912D01*
X233231202Y-112385912D02*
X233516917Y-112385912D01*
X233516917Y-112385912D02*
X233659774Y-112457341D01*
X233016917Y-113314484D02*
X233159774Y-113385912D01*
X233159774Y-113385912D02*
X233516917Y-113385912D01*
X233516917Y-113385912D02*
X233659774Y-113314484D01*
X233659774Y-113314484D02*
X233731202Y-113171626D01*
X233731202Y-113171626D02*
X233731202Y-113028769D01*
X233731202Y-113028769D02*
X233659774Y-112885912D01*
X233659774Y-112885912D02*
X233516917Y-112814484D01*
X233516917Y-112814484D02*
X233159774Y-112814484D01*
X233159774Y-112814484D02*
X233016917Y-112743055D01*
X232302631Y-113385912D02*
X232302631Y-112385912D01*
X232302631Y-112671626D02*
X232231202Y-112528769D01*
X232231202Y-112528769D02*
X232159774Y-112457341D01*
X232159774Y-112457341D02*
X232016916Y-112385912D01*
X232016916Y-112385912D02*
X231874059Y-112385912D01*
X230731203Y-113385912D02*
X230731203Y-111885912D01*
X230731203Y-113314484D02*
X230874060Y-113385912D01*
X230874060Y-113385912D02*
X231159774Y-113385912D01*
X231159774Y-113385912D02*
X231302631Y-113314484D01*
X231302631Y-113314484D02*
X231374060Y-113243055D01*
X231374060Y-113243055D02*
X231445488Y-113100198D01*
X231445488Y-113100198D02*
X231445488Y-112671626D01*
X231445488Y-112671626D02*
X231374060Y-112528769D01*
X231374060Y-112528769D02*
X231302631Y-112457341D01*
X231302631Y-112457341D02*
X231159774Y-112385912D01*
X231159774Y-112385912D02*
X230874060Y-112385912D01*
X230874060Y-112385912D02*
X230731203Y-112457341D01*
X230016917Y-113243055D02*
X229945488Y-113314484D01*
X229945488Y-113314484D02*
X230016917Y-113385912D01*
X230016917Y-113385912D02*
X230088345Y-113314484D01*
X230088345Y-113314484D02*
X230016917Y-113243055D01*
X230016917Y-113243055D02*
X230016917Y-113385912D01*
X230016917Y-112814484D02*
X230088345Y-111957341D01*
X230088345Y-111957341D02*
X230016917Y-111885912D01*
X230016917Y-111885912D02*
X229945488Y-111957341D01*
X229945488Y-111957341D02*
X230016917Y-112814484D01*
X230016917Y-112814484D02*
X230016917Y-111885912D01*
X244159774Y-114300828D02*
X243659774Y-115800828D01*
X243659774Y-115800828D02*
X243159774Y-114300828D01*
X242088346Y-115729400D02*
X242231203Y-115800828D01*
X242231203Y-115800828D02*
X242516918Y-115800828D01*
X242516918Y-115800828D02*
X242659775Y-115729400D01*
X242659775Y-115729400D02*
X242731203Y-115586542D01*
X242731203Y-115586542D02*
X242731203Y-115015114D01*
X242731203Y-115015114D02*
X242659775Y-114872257D01*
X242659775Y-114872257D02*
X242516918Y-114800828D01*
X242516918Y-114800828D02*
X242231203Y-114800828D01*
X242231203Y-114800828D02*
X242088346Y-114872257D01*
X242088346Y-114872257D02*
X242016918Y-115015114D01*
X242016918Y-115015114D02*
X242016918Y-115157971D01*
X242016918Y-115157971D02*
X242731203Y-115300828D01*
X241374061Y-115800828D02*
X241374061Y-114800828D01*
X241374061Y-115086542D02*
X241302632Y-114943685D01*
X241302632Y-114943685D02*
X241231204Y-114872257D01*
X241231204Y-114872257D02*
X241088346Y-114800828D01*
X241088346Y-114800828D02*
X240945489Y-114800828D01*
X240516918Y-115729400D02*
X240374061Y-115800828D01*
X240374061Y-115800828D02*
X240088347Y-115800828D01*
X240088347Y-115800828D02*
X239945490Y-115729400D01*
X239945490Y-115729400D02*
X239874061Y-115586542D01*
X239874061Y-115586542D02*
X239874061Y-115515114D01*
X239874061Y-115515114D02*
X239945490Y-115372257D01*
X239945490Y-115372257D02*
X240088347Y-115300828D01*
X240088347Y-115300828D02*
X240302633Y-115300828D01*
X240302633Y-115300828D02*
X240445490Y-115229400D01*
X240445490Y-115229400D02*
X240516918Y-115086542D01*
X240516918Y-115086542D02*
X240516918Y-115015114D01*
X240516918Y-115015114D02*
X240445490Y-114872257D01*
X240445490Y-114872257D02*
X240302633Y-114800828D01*
X240302633Y-114800828D02*
X240088347Y-114800828D01*
X240088347Y-114800828D02*
X239945490Y-114872257D01*
X239231204Y-115800828D02*
X239231204Y-114800828D01*
X239231204Y-114300828D02*
X239302632Y-114372257D01*
X239302632Y-114372257D02*
X239231204Y-114443685D01*
X239231204Y-114443685D02*
X239159775Y-114372257D01*
X239159775Y-114372257D02*
X239231204Y-114300828D01*
X239231204Y-114300828D02*
X239231204Y-114443685D01*
X238302632Y-115800828D02*
X238445489Y-115729400D01*
X238445489Y-115729400D02*
X238516918Y-115657971D01*
X238516918Y-115657971D02*
X238588346Y-115515114D01*
X238588346Y-115515114D02*
X238588346Y-115086542D01*
X238588346Y-115086542D02*
X238516918Y-114943685D01*
X238516918Y-114943685D02*
X238445489Y-114872257D01*
X238445489Y-114872257D02*
X238302632Y-114800828D01*
X238302632Y-114800828D02*
X238088346Y-114800828D01*
X238088346Y-114800828D02*
X237945489Y-114872257D01*
X237945489Y-114872257D02*
X237874061Y-114943685D01*
X237874061Y-114943685D02*
X237802632Y-115086542D01*
X237802632Y-115086542D02*
X237802632Y-115515114D01*
X237802632Y-115515114D02*
X237874061Y-115657971D01*
X237874061Y-115657971D02*
X237945489Y-115729400D01*
X237945489Y-115729400D02*
X238088346Y-115800828D01*
X238088346Y-115800828D02*
X238302632Y-115800828D01*
X237159775Y-114800828D02*
X237159775Y-115800828D01*
X237159775Y-114943685D02*
X237088346Y-114872257D01*
X237088346Y-114872257D02*
X236945489Y-114800828D01*
X236945489Y-114800828D02*
X236731203Y-114800828D01*
X236731203Y-114800828D02*
X236588346Y-114872257D01*
X236588346Y-114872257D02*
X236516918Y-115015114D01*
X236516918Y-115015114D02*
X236516918Y-115800828D01*
X234374060Y-114300828D02*
X234231203Y-114300828D01*
X234231203Y-114300828D02*
X234088346Y-114372257D01*
X234088346Y-114372257D02*
X234016918Y-114443685D01*
X234016918Y-114443685D02*
X233945489Y-114586542D01*
X233945489Y-114586542D02*
X233874060Y-114872257D01*
X233874060Y-114872257D02*
X233874060Y-115229400D01*
X233874060Y-115229400D02*
X233945489Y-115515114D01*
X233945489Y-115515114D02*
X234016918Y-115657971D01*
X234016918Y-115657971D02*
X234088346Y-115729400D01*
X234088346Y-115729400D02*
X234231203Y-115800828D01*
X234231203Y-115800828D02*
X234374060Y-115800828D01*
X234374060Y-115800828D02*
X234516918Y-115729400D01*
X234516918Y-115729400D02*
X234588346Y-115657971D01*
X234588346Y-115657971D02*
X234659775Y-115515114D01*
X234659775Y-115515114D02*
X234731203Y-115229400D01*
X234731203Y-115229400D02*
X234731203Y-114872257D01*
X234731203Y-114872257D02*
X234659775Y-114586542D01*
X234659775Y-114586542D02*
X234588346Y-114443685D01*
X234588346Y-114443685D02*
X234516918Y-114372257D01*
X234516918Y-114372257D02*
X234374060Y-114300828D01*
X233231204Y-115657971D02*
X233159775Y-115729400D01*
X233159775Y-115729400D02*
X233231204Y-115800828D01*
X233231204Y-115800828D02*
X233302632Y-115729400D01*
X233302632Y-115729400D02*
X233231204Y-115657971D01*
X233231204Y-115657971D02*
X233231204Y-115800828D01*
X231731203Y-115800828D02*
X232588346Y-115800828D01*
X232159775Y-115800828D02*
X232159775Y-114300828D01*
X232159775Y-114300828D02*
X232302632Y-114515114D01*
X232302632Y-114515114D02*
X232445489Y-114657971D01*
X232445489Y-114657971D02*
X232588346Y-114729400D01*
X72659774Y-111885912D02*
X71802632Y-111885912D01*
X72231203Y-113385912D02*
X72231203Y-111885912D01*
X71088346Y-113385912D02*
X71231203Y-113314484D01*
X71231203Y-113314484D02*
X71302632Y-113243055D01*
X71302632Y-113243055D02*
X71374060Y-113100198D01*
X71374060Y-113100198D02*
X71374060Y-112671626D01*
X71374060Y-112671626D02*
X71302632Y-112528769D01*
X71302632Y-112528769D02*
X71231203Y-112457341D01*
X71231203Y-112457341D02*
X71088346Y-112385912D01*
X71088346Y-112385912D02*
X70874060Y-112385912D01*
X70874060Y-112385912D02*
X70731203Y-112457341D01*
X70731203Y-112457341D02*
X70659775Y-112528769D01*
X70659775Y-112528769D02*
X70588346Y-112671626D01*
X70588346Y-112671626D02*
X70588346Y-113100198D01*
X70588346Y-113100198D02*
X70659775Y-113243055D01*
X70659775Y-113243055D02*
X70731203Y-113314484D01*
X70731203Y-113314484D02*
X70874060Y-113385912D01*
X70874060Y-113385912D02*
X71088346Y-113385912D01*
X69945489Y-113385912D02*
X69945489Y-112385912D01*
X69945489Y-112528769D02*
X69874060Y-112457341D01*
X69874060Y-112457341D02*
X69731203Y-112385912D01*
X69731203Y-112385912D02*
X69516917Y-112385912D01*
X69516917Y-112385912D02*
X69374060Y-112457341D01*
X69374060Y-112457341D02*
X69302632Y-112600198D01*
X69302632Y-112600198D02*
X69302632Y-113385912D01*
X69302632Y-112600198D02*
X69231203Y-112457341D01*
X69231203Y-112457341D02*
X69088346Y-112385912D01*
X69088346Y-112385912D02*
X68874060Y-112385912D01*
X68874060Y-112385912D02*
X68731203Y-112457341D01*
X68731203Y-112457341D02*
X68659774Y-112600198D01*
X68659774Y-112600198D02*
X68659774Y-113385912D01*
X67874060Y-111885912D02*
X68016917Y-112171626D01*
X67302631Y-113314484D02*
X67159774Y-113385912D01*
X67159774Y-113385912D02*
X66874060Y-113385912D01*
X66874060Y-113385912D02*
X66731203Y-113314484D01*
X66731203Y-113314484D02*
X66659774Y-113171626D01*
X66659774Y-113171626D02*
X66659774Y-113100198D01*
X66659774Y-113100198D02*
X66731203Y-112957341D01*
X66731203Y-112957341D02*
X66874060Y-112885912D01*
X66874060Y-112885912D02*
X67088346Y-112885912D01*
X67088346Y-112885912D02*
X67231203Y-112814484D01*
X67231203Y-112814484D02*
X67302631Y-112671626D01*
X67302631Y-112671626D02*
X67302631Y-112600198D01*
X67302631Y-112600198D02*
X67231203Y-112457341D01*
X67231203Y-112457341D02*
X67088346Y-112385912D01*
X67088346Y-112385912D02*
X66874060Y-112385912D01*
X66874060Y-112385912D02*
X66731203Y-112457341D01*
X64874060Y-113385912D02*
X64874060Y-111885912D01*
X64874060Y-112457341D02*
X64731203Y-112385912D01*
X64731203Y-112385912D02*
X64445488Y-112385912D01*
X64445488Y-112385912D02*
X64302631Y-112457341D01*
X64302631Y-112457341D02*
X64231203Y-112528769D01*
X64231203Y-112528769D02*
X64159774Y-112671626D01*
X64159774Y-112671626D02*
X64159774Y-113100198D01*
X64159774Y-113100198D02*
X64231203Y-113243055D01*
X64231203Y-113243055D02*
X64302631Y-113314484D01*
X64302631Y-113314484D02*
X64445488Y-113385912D01*
X64445488Y-113385912D02*
X64731203Y-113385912D01*
X64731203Y-113385912D02*
X64874060Y-113314484D01*
X63302631Y-113385912D02*
X63445488Y-113314484D01*
X63445488Y-113314484D02*
X63516917Y-113243055D01*
X63516917Y-113243055D02*
X63588345Y-113100198D01*
X63588345Y-113100198D02*
X63588345Y-112671626D01*
X63588345Y-112671626D02*
X63516917Y-112528769D01*
X63516917Y-112528769D02*
X63445488Y-112457341D01*
X63445488Y-112457341D02*
X63302631Y-112385912D01*
X63302631Y-112385912D02*
X63088345Y-112385912D01*
X63088345Y-112385912D02*
X62945488Y-112457341D01*
X62945488Y-112457341D02*
X62874060Y-112528769D01*
X62874060Y-112528769D02*
X62802631Y-112671626D01*
X62802631Y-112671626D02*
X62802631Y-113100198D01*
X62802631Y-113100198D02*
X62874060Y-113243055D01*
X62874060Y-113243055D02*
X62945488Y-113314484D01*
X62945488Y-113314484D02*
X63088345Y-113385912D01*
X63088345Y-113385912D02*
X63302631Y-113385912D01*
X61516917Y-113385912D02*
X61516917Y-112600198D01*
X61516917Y-112600198D02*
X61588345Y-112457341D01*
X61588345Y-112457341D02*
X61731202Y-112385912D01*
X61731202Y-112385912D02*
X62016917Y-112385912D01*
X62016917Y-112385912D02*
X62159774Y-112457341D01*
X61516917Y-113314484D02*
X61659774Y-113385912D01*
X61659774Y-113385912D02*
X62016917Y-113385912D01*
X62016917Y-113385912D02*
X62159774Y-113314484D01*
X62159774Y-113314484D02*
X62231202Y-113171626D01*
X62231202Y-113171626D02*
X62231202Y-113028769D01*
X62231202Y-113028769D02*
X62159774Y-112885912D01*
X62159774Y-112885912D02*
X62016917Y-112814484D01*
X62016917Y-112814484D02*
X61659774Y-112814484D01*
X61659774Y-112814484D02*
X61516917Y-112743055D01*
X60802631Y-113385912D02*
X60802631Y-112385912D01*
X60802631Y-112671626D02*
X60731202Y-112528769D01*
X60731202Y-112528769D02*
X60659774Y-112457341D01*
X60659774Y-112457341D02*
X60516916Y-112385912D01*
X60516916Y-112385912D02*
X60374059Y-112385912D01*
X59231203Y-113385912D02*
X59231203Y-111885912D01*
X59231203Y-113314484D02*
X59374060Y-113385912D01*
X59374060Y-113385912D02*
X59659774Y-113385912D01*
X59659774Y-113385912D02*
X59802631Y-113314484D01*
X59802631Y-113314484D02*
X59874060Y-113243055D01*
X59874060Y-113243055D02*
X59945488Y-113100198D01*
X59945488Y-113100198D02*
X59945488Y-112671626D01*
X59945488Y-112671626D02*
X59874060Y-112528769D01*
X59874060Y-112528769D02*
X59802631Y-112457341D01*
X59802631Y-112457341D02*
X59659774Y-112385912D01*
X59659774Y-112385912D02*
X59374060Y-112385912D01*
X59374060Y-112385912D02*
X59231203Y-112457341D01*
X58516917Y-113243055D02*
X58445488Y-113314484D01*
X58445488Y-113314484D02*
X58516917Y-113385912D01*
X58516917Y-113385912D02*
X58588345Y-113314484D01*
X58588345Y-113314484D02*
X58516917Y-113243055D01*
X58516917Y-113243055D02*
X58516917Y-113385912D01*
X58516917Y-112814484D02*
X58588345Y-111957341D01*
X58588345Y-111957341D02*
X58516917Y-111885912D01*
X58516917Y-111885912D02*
X58445488Y-111957341D01*
X58445488Y-111957341D02*
X58516917Y-112814484D01*
X58516917Y-112814484D02*
X58516917Y-111885912D01*
X72659774Y-114300828D02*
X72159774Y-115800828D01*
X72159774Y-115800828D02*
X71659774Y-114300828D01*
X70588346Y-115729400D02*
X70731203Y-115800828D01*
X70731203Y-115800828D02*
X71016918Y-115800828D01*
X71016918Y-115800828D02*
X71159775Y-115729400D01*
X71159775Y-115729400D02*
X71231203Y-115586542D01*
X71231203Y-115586542D02*
X71231203Y-115015114D01*
X71231203Y-115015114D02*
X71159775Y-114872257D01*
X71159775Y-114872257D02*
X71016918Y-114800828D01*
X71016918Y-114800828D02*
X70731203Y-114800828D01*
X70731203Y-114800828D02*
X70588346Y-114872257D01*
X70588346Y-114872257D02*
X70516918Y-115015114D01*
X70516918Y-115015114D02*
X70516918Y-115157971D01*
X70516918Y-115157971D02*
X71231203Y-115300828D01*
X69874061Y-115800828D02*
X69874061Y-114800828D01*
X69874061Y-115086542D02*
X69802632Y-114943685D01*
X69802632Y-114943685D02*
X69731204Y-114872257D01*
X69731204Y-114872257D02*
X69588346Y-114800828D01*
X69588346Y-114800828D02*
X69445489Y-114800828D01*
X69016918Y-115729400D02*
X68874061Y-115800828D01*
X68874061Y-115800828D02*
X68588347Y-115800828D01*
X68588347Y-115800828D02*
X68445490Y-115729400D01*
X68445490Y-115729400D02*
X68374061Y-115586542D01*
X68374061Y-115586542D02*
X68374061Y-115515114D01*
X68374061Y-115515114D02*
X68445490Y-115372257D01*
X68445490Y-115372257D02*
X68588347Y-115300828D01*
X68588347Y-115300828D02*
X68802633Y-115300828D01*
X68802633Y-115300828D02*
X68945490Y-115229400D01*
X68945490Y-115229400D02*
X69016918Y-115086542D01*
X69016918Y-115086542D02*
X69016918Y-115015114D01*
X69016918Y-115015114D02*
X68945490Y-114872257D01*
X68945490Y-114872257D02*
X68802633Y-114800828D01*
X68802633Y-114800828D02*
X68588347Y-114800828D01*
X68588347Y-114800828D02*
X68445490Y-114872257D01*
X67731204Y-115800828D02*
X67731204Y-114800828D01*
X67731204Y-114300828D02*
X67802632Y-114372257D01*
X67802632Y-114372257D02*
X67731204Y-114443685D01*
X67731204Y-114443685D02*
X67659775Y-114372257D01*
X67659775Y-114372257D02*
X67731204Y-114300828D01*
X67731204Y-114300828D02*
X67731204Y-114443685D01*
X66802632Y-115800828D02*
X66945489Y-115729400D01*
X66945489Y-115729400D02*
X67016918Y-115657971D01*
X67016918Y-115657971D02*
X67088346Y-115515114D01*
X67088346Y-115515114D02*
X67088346Y-115086542D01*
X67088346Y-115086542D02*
X67016918Y-114943685D01*
X67016918Y-114943685D02*
X66945489Y-114872257D01*
X66945489Y-114872257D02*
X66802632Y-114800828D01*
X66802632Y-114800828D02*
X66588346Y-114800828D01*
X66588346Y-114800828D02*
X66445489Y-114872257D01*
X66445489Y-114872257D02*
X66374061Y-114943685D01*
X66374061Y-114943685D02*
X66302632Y-115086542D01*
X66302632Y-115086542D02*
X66302632Y-115515114D01*
X66302632Y-115515114D02*
X66374061Y-115657971D01*
X66374061Y-115657971D02*
X66445489Y-115729400D01*
X66445489Y-115729400D02*
X66588346Y-115800828D01*
X66588346Y-115800828D02*
X66802632Y-115800828D01*
X65659775Y-114800828D02*
X65659775Y-115800828D01*
X65659775Y-114943685D02*
X65588346Y-114872257D01*
X65588346Y-114872257D02*
X65445489Y-114800828D01*
X65445489Y-114800828D02*
X65231203Y-114800828D01*
X65231203Y-114800828D02*
X65088346Y-114872257D01*
X65088346Y-114872257D02*
X65016918Y-115015114D01*
X65016918Y-115015114D02*
X65016918Y-115800828D01*
X62874060Y-114300828D02*
X62731203Y-114300828D01*
X62731203Y-114300828D02*
X62588346Y-114372257D01*
X62588346Y-114372257D02*
X62516918Y-114443685D01*
X62516918Y-114443685D02*
X62445489Y-114586542D01*
X62445489Y-114586542D02*
X62374060Y-114872257D01*
X62374060Y-114872257D02*
X62374060Y-115229400D01*
X62374060Y-115229400D02*
X62445489Y-115515114D01*
X62445489Y-115515114D02*
X62516918Y-115657971D01*
X62516918Y-115657971D02*
X62588346Y-115729400D01*
X62588346Y-115729400D02*
X62731203Y-115800828D01*
X62731203Y-115800828D02*
X62874060Y-115800828D01*
X62874060Y-115800828D02*
X63016918Y-115729400D01*
X63016918Y-115729400D02*
X63088346Y-115657971D01*
X63088346Y-115657971D02*
X63159775Y-115515114D01*
X63159775Y-115515114D02*
X63231203Y-115229400D01*
X63231203Y-115229400D02*
X63231203Y-114872257D01*
X63231203Y-114872257D02*
X63159775Y-114586542D01*
X63159775Y-114586542D02*
X63088346Y-114443685D01*
X63088346Y-114443685D02*
X63016918Y-114372257D01*
X63016918Y-114372257D02*
X62874060Y-114300828D01*
X61731204Y-115657971D02*
X61659775Y-115729400D01*
X61659775Y-115729400D02*
X61731204Y-115800828D01*
X61731204Y-115800828D02*
X61802632Y-115729400D01*
X61802632Y-115729400D02*
X61731204Y-115657971D01*
X61731204Y-115657971D02*
X61731204Y-115800828D01*
X60231203Y-115800828D02*
X61088346Y-115800828D01*
X60659775Y-115800828D02*
X60659775Y-114300828D01*
X60659775Y-114300828D02*
X60802632Y-114515114D01*
X60802632Y-114515114D02*
X60945489Y-114657971D01*
X60945489Y-114657971D02*
X61088346Y-114729400D01*
D11*
X217872381Y-99211009D02*
X218015238Y-99258628D01*
X218015238Y-99258628D02*
X218062857Y-99306247D01*
X218062857Y-99306247D02*
X218110476Y-99401485D01*
X218110476Y-99401485D02*
X218110476Y-99544342D01*
X218110476Y-99544342D02*
X218062857Y-99639580D01*
X218062857Y-99639580D02*
X218015238Y-99687200D01*
X218015238Y-99687200D02*
X217920000Y-99734819D01*
X217920000Y-99734819D02*
X217539048Y-99734819D01*
X217539048Y-99734819D02*
X217539048Y-98734819D01*
X217539048Y-98734819D02*
X217872381Y-98734819D01*
X217872381Y-98734819D02*
X217967619Y-98782438D01*
X217967619Y-98782438D02*
X218015238Y-98830057D01*
X218015238Y-98830057D02*
X218062857Y-98925295D01*
X218062857Y-98925295D02*
X218062857Y-99020533D01*
X218062857Y-99020533D02*
X218015238Y-99115771D01*
X218015238Y-99115771D02*
X217967619Y-99163390D01*
X217967619Y-99163390D02*
X217872381Y-99211009D01*
X217872381Y-99211009D02*
X217539048Y-99211009D01*
X218539048Y-99353866D02*
X219300953Y-99353866D01*
X214372381Y-99211009D02*
X214515238Y-99258628D01*
X214515238Y-99258628D02*
X214562857Y-99306247D01*
X214562857Y-99306247D02*
X214610476Y-99401485D01*
X214610476Y-99401485D02*
X214610476Y-99544342D01*
X214610476Y-99544342D02*
X214562857Y-99639580D01*
X214562857Y-99639580D02*
X214515238Y-99687200D01*
X214515238Y-99687200D02*
X214420000Y-99734819D01*
X214420000Y-99734819D02*
X214039048Y-99734819D01*
X214039048Y-99734819D02*
X214039048Y-98734819D01*
X214039048Y-98734819D02*
X214372381Y-98734819D01*
X214372381Y-98734819D02*
X214467619Y-98782438D01*
X214467619Y-98782438D02*
X214515238Y-98830057D01*
X214515238Y-98830057D02*
X214562857Y-98925295D01*
X214562857Y-98925295D02*
X214562857Y-99020533D01*
X214562857Y-99020533D02*
X214515238Y-99115771D01*
X214515238Y-99115771D02*
X214467619Y-99163390D01*
X214467619Y-99163390D02*
X214372381Y-99211009D01*
X214372381Y-99211009D02*
X214039048Y-99211009D01*
X215039048Y-99353866D02*
X215800953Y-99353866D01*
X215420000Y-99734819D02*
X215420000Y-98972914D01*
X76204638Y-99211009D02*
X76347495Y-99258628D01*
X76347495Y-99258628D02*
X76395114Y-99306247D01*
X76395114Y-99306247D02*
X76442733Y-99401485D01*
X76442733Y-99401485D02*
X76442733Y-99544342D01*
X76442733Y-99544342D02*
X76395114Y-99639580D01*
X76395114Y-99639580D02*
X76347495Y-99687200D01*
X76347495Y-99687200D02*
X76252257Y-99734819D01*
X76252257Y-99734819D02*
X75871305Y-99734819D01*
X75871305Y-99734819D02*
X75871305Y-98734819D01*
X75871305Y-98734819D02*
X76204638Y-98734819D01*
X76204638Y-98734819D02*
X76299876Y-98782438D01*
X76299876Y-98782438D02*
X76347495Y-98830057D01*
X76347495Y-98830057D02*
X76395114Y-98925295D01*
X76395114Y-98925295D02*
X76395114Y-99020533D01*
X76395114Y-99020533D02*
X76347495Y-99115771D01*
X76347495Y-99115771D02*
X76299876Y-99163390D01*
X76299876Y-99163390D02*
X76204638Y-99211009D01*
X76204638Y-99211009D02*
X75871305Y-99211009D01*
X76871305Y-99353866D02*
X77633210Y-99353866D01*
X77252257Y-99734819D02*
X77252257Y-98972914D01*
X79704638Y-99211009D02*
X79847495Y-99258628D01*
X79847495Y-99258628D02*
X79895114Y-99306247D01*
X79895114Y-99306247D02*
X79942733Y-99401485D01*
X79942733Y-99401485D02*
X79942733Y-99544342D01*
X79942733Y-99544342D02*
X79895114Y-99639580D01*
X79895114Y-99639580D02*
X79847495Y-99687200D01*
X79847495Y-99687200D02*
X79752257Y-99734819D01*
X79752257Y-99734819D02*
X79371305Y-99734819D01*
X79371305Y-99734819D02*
X79371305Y-98734819D01*
X79371305Y-98734819D02*
X79704638Y-98734819D01*
X79704638Y-98734819D02*
X79799876Y-98782438D01*
X79799876Y-98782438D02*
X79847495Y-98830057D01*
X79847495Y-98830057D02*
X79895114Y-98925295D01*
X79895114Y-98925295D02*
X79895114Y-99020533D01*
X79895114Y-99020533D02*
X79847495Y-99115771D01*
X79847495Y-99115771D02*
X79799876Y-99163390D01*
X79799876Y-99163390D02*
X79704638Y-99211009D01*
X79704638Y-99211009D02*
X79371305Y-99211009D01*
X80371305Y-99353866D02*
X81133210Y-99353866D01*
D12*
%TO.C,BATTPAD4*%
X213920000Y-97030000D02*
X216920000Y-97030000D01*
X215420000Y-95530000D02*
X215420000Y-98530000D01*
%TO.C,BATTPAD1*%
X71752257Y-96030000D02*
X74752257Y-96030000D01*
X73252257Y-94530000D02*
X73252257Y-97530000D01*
%TO.C,BATTPAD2*%
X75752257Y-97030000D02*
X78752257Y-97030000D01*
X77252257Y-95530000D02*
X77252257Y-98530000D01*
%TO.C,BATTPAD3*%
X209920000Y-96030000D02*
X212920000Y-96030000D01*
X211420000Y-94530000D02*
X211420000Y-97530000D01*
%TO.C,D25*%
X216170000Y-88667600D02*
X216770000Y-89067600D01*
X216170000Y-89067600D02*
X215670000Y-89067600D01*
X216170000Y-89467600D02*
X216170000Y-88667600D01*
X216770000Y-89067600D02*
X216170000Y-89467600D01*
X216770000Y-89067600D02*
X216770000Y-88517600D01*
X216770000Y-89067600D02*
X216770000Y-89617600D01*
X217170000Y-89067600D02*
X216770000Y-89067600D01*
%TO.C,D35*%
X185411853Y-126917249D02*
X186106094Y-127112261D01*
X185535460Y-127297671D02*
X185059932Y-127452180D01*
X185659067Y-127678094D02*
X185411853Y-126917249D01*
X186106094Y-127112261D02*
X185659067Y-127678094D01*
X186106094Y-127112261D02*
X185936134Y-126589180D01*
X186106094Y-127112261D02*
X186276053Y-127635342D01*
X186486516Y-126988654D02*
X186106094Y-127112261D01*
%TO.C,D12*%
X97762257Y-60930800D02*
X98362257Y-61330800D01*
X97762257Y-61330800D02*
X97262257Y-61330800D01*
X97762257Y-61730800D02*
X97762257Y-60930800D01*
X98362257Y-61330800D02*
X97762257Y-61730800D01*
X98362257Y-61330800D02*
X98362257Y-60780800D01*
X98362257Y-61330800D02*
X98362257Y-61880800D01*
X98762257Y-61330800D02*
X98362257Y-61330800D01*
%TO.C,D23*%
X235930000Y-74799200D02*
X236530000Y-75199200D01*
X235930000Y-75199200D02*
X235430000Y-75199200D01*
X235930000Y-75599200D02*
X235930000Y-74799200D01*
X236530000Y-75199200D02*
X235930000Y-75599200D01*
X236530000Y-75199200D02*
X236530000Y-74649200D01*
X236530000Y-75199200D02*
X236530000Y-75749200D01*
X236930000Y-75199200D02*
X236530000Y-75199200D01*
%TO.C,D26*%
X216170000Y-68855600D02*
X216770000Y-69255600D01*
X216170000Y-69255600D02*
X215670000Y-69255600D01*
X216170000Y-69655600D02*
X216170000Y-68855600D01*
X216770000Y-69255600D02*
X216170000Y-69655600D01*
X216770000Y-69255600D02*
X216770000Y-68705600D01*
X216770000Y-69255600D02*
X216770000Y-69805600D01*
X217170000Y-69255600D02*
X216770000Y-69255600D01*
%TO.C,D21*%
X255690000Y-74799200D02*
X256290000Y-75199200D01*
X255690000Y-75199200D02*
X255190000Y-75199200D01*
X255690000Y-75599200D02*
X255690000Y-74799200D01*
X256290000Y-75199200D02*
X255690000Y-75599200D01*
X256290000Y-75199200D02*
X256290000Y-74649200D01*
X256290000Y-75199200D02*
X256290000Y-75749200D01*
X256690000Y-75199200D02*
X256290000Y-75199200D01*
%TO.C,D13*%
X117522257Y-104517200D02*
X118122257Y-104917200D01*
X117522257Y-104917200D02*
X117022257Y-104917200D01*
X117522257Y-105317200D02*
X117522257Y-104517200D01*
X118122257Y-104917200D02*
X117522257Y-105317200D01*
X118122257Y-104917200D02*
X118122257Y-104367200D01*
X118122257Y-104917200D02*
X118122257Y-105467200D01*
X118522257Y-104917200D02*
X118122257Y-104917200D01*
%TO.C,D7*%
X78002257Y-88667600D02*
X78602257Y-89067600D01*
X78002257Y-89067600D02*
X77502257Y-89067600D01*
X78002257Y-89467600D02*
X78002257Y-88667600D01*
X78602257Y-89067600D02*
X78002257Y-89467600D01*
X78602257Y-89067600D02*
X78602257Y-88517600D01*
X78602257Y-89067600D02*
X78602257Y-89617600D01*
X79002257Y-89067600D02*
X78602257Y-89067600D01*
%TO.C,D36*%
X166542321Y-136499539D02*
X167262845Y-136470474D01*
X166777435Y-136823145D02*
X166372926Y-137117038D01*
X167012549Y-137146752D02*
X166542321Y-136499539D01*
X167262845Y-136470474D02*
X166939563Y-136025515D01*
X167262845Y-136470474D02*
X167012549Y-137146752D01*
X167262845Y-136470474D02*
X167586127Y-136915434D01*
X167586452Y-136235360D02*
X167262845Y-136470474D01*
%TO.C,D34*%
X205910000Y-123366800D02*
X206510000Y-123766800D01*
X205910000Y-123766800D02*
X205410000Y-123766800D01*
X205910000Y-124166800D02*
X205910000Y-123366800D01*
X206510000Y-123766800D02*
X205910000Y-124166800D01*
X206510000Y-123766800D02*
X206510000Y-123216800D01*
X206510000Y-123766800D02*
X206510000Y-124316800D01*
X206910000Y-123766800D02*
X206510000Y-123766800D01*
%TO.C,D17*%
X108537663Y-127523585D02*
X108784877Y-126762740D01*
X108661270Y-127143163D02*
X108185742Y-126988654D01*
X108784877Y-126762740D02*
X109231904Y-127328573D01*
X109231904Y-127328573D02*
X108537663Y-127523585D01*
X109231904Y-127328573D02*
X109061944Y-127851654D01*
X109231904Y-127328573D02*
X109401863Y-126805492D01*
X109612326Y-127452180D02*
X109231904Y-127328573D01*
%TO.C,D28*%
X196410000Y-100554800D02*
X197010000Y-100954800D01*
X196410000Y-100954800D02*
X195910000Y-100954800D01*
X196410000Y-101354800D02*
X196410000Y-100554800D01*
X197010000Y-100954800D02*
X196410000Y-101354800D01*
X197010000Y-100954800D02*
X197010000Y-100404800D01*
X197010000Y-100954800D02*
X197010000Y-101504800D01*
X197410000Y-100954800D02*
X197010000Y-100954800D01*
%TO.C,D27*%
X216170000Y-49043600D02*
X216770000Y-49443600D01*
X216170000Y-49443600D02*
X215670000Y-49443600D01*
X216170000Y-49843600D02*
X216170000Y-49043600D01*
X216770000Y-49443600D02*
X216170000Y-49843600D01*
X216770000Y-49443600D02*
X216770000Y-48893600D01*
X216770000Y-49443600D02*
X216770000Y-49993600D01*
X217170000Y-49443600D02*
X216770000Y-49443600D01*
%TO.C,D33*%
X176650000Y-64893200D02*
X177250000Y-65293200D01*
X176650000Y-65293200D02*
X176150000Y-65293200D01*
X176650000Y-65693200D02*
X176650000Y-64893200D01*
X177250000Y-65293200D02*
X176650000Y-65693200D01*
X177250000Y-65293200D02*
X177250000Y-64743200D01*
X177250000Y-65293200D02*
X177250000Y-65843200D01*
X177650000Y-65293200D02*
X177250000Y-65293200D01*
%TO.C,D20*%
X255690000Y-94611200D02*
X256290000Y-95011200D01*
X255690000Y-95011200D02*
X255190000Y-95011200D01*
X255690000Y-95411200D02*
X255690000Y-94611200D01*
X256290000Y-95011200D02*
X255690000Y-95411200D01*
X256290000Y-95011200D02*
X256290000Y-94461200D01*
X256290000Y-95011200D02*
X256290000Y-95561200D01*
X256690000Y-95011200D02*
X256290000Y-95011200D01*
%TO.C,D2*%
X38482257Y-94611200D02*
X39082257Y-95011200D01*
X38482257Y-95011200D02*
X37982257Y-95011200D01*
X38482257Y-95411200D02*
X38482257Y-94611200D01*
X39082257Y-95011200D02*
X38482257Y-95411200D01*
X39082257Y-95011200D02*
X39082257Y-94461200D01*
X39082257Y-95011200D02*
X39082257Y-95561200D01*
X39482257Y-95011200D02*
X39082257Y-95011200D01*
%TO.C,D8*%
X78002257Y-68855600D02*
X78602257Y-69255600D01*
X78002257Y-69255600D02*
X77502257Y-69255600D01*
X78002257Y-69655600D02*
X78002257Y-68855600D01*
X78602257Y-69255600D02*
X78002257Y-69655600D01*
X78602257Y-69255600D02*
X78602257Y-68705600D01*
X78602257Y-69255600D02*
X78602257Y-69805600D01*
X79002257Y-69255600D02*
X78602257Y-69255600D01*
%TO.C,D16*%
X88262257Y-123366800D02*
X88862257Y-123766800D01*
X88262257Y-123766800D02*
X87762257Y-123766800D01*
X88262257Y-124166800D02*
X88262257Y-123366800D01*
X88862257Y-123766800D02*
X88262257Y-124166800D01*
X88862257Y-123766800D02*
X88862257Y-123216800D01*
X88862257Y-123766800D02*
X88862257Y-124316800D01*
X89262257Y-123766800D02*
X88862257Y-123766800D01*
%TO.C,D5*%
X58242257Y-74799200D02*
X58842257Y-75199200D01*
X58242257Y-75199200D02*
X57742257Y-75199200D01*
X58242257Y-75599200D02*
X58242257Y-74799200D01*
X58842257Y-75199200D02*
X58242257Y-75599200D01*
X58842257Y-75199200D02*
X58842257Y-74649200D01*
X58842257Y-75199200D02*
X58842257Y-75749200D01*
X59242257Y-75199200D02*
X58842257Y-75199200D01*
%TO.C,D14*%
X117522257Y-84705200D02*
X118122257Y-85105200D01*
X117522257Y-85105200D02*
X117022257Y-85105200D01*
X117522257Y-85505200D02*
X117522257Y-84705200D01*
X118122257Y-85105200D02*
X117522257Y-85505200D01*
X118122257Y-85105200D02*
X118122257Y-84555200D01*
X118122257Y-85105200D02*
X118122257Y-85655200D01*
X118522257Y-85105200D02*
X118122257Y-85105200D01*
%TO.C,D30*%
X196410000Y-60930800D02*
X197010000Y-61330800D01*
X196410000Y-61330800D02*
X195910000Y-61330800D01*
X196410000Y-61730800D02*
X196410000Y-60930800D01*
X197010000Y-61330800D02*
X196410000Y-61730800D01*
X197010000Y-61330800D02*
X197010000Y-60780800D01*
X197010000Y-61330800D02*
X197010000Y-61880800D01*
X197410000Y-61330800D02*
X197010000Y-61330800D01*
%TO.C,D18*%
X127255200Y-136852859D02*
X127725428Y-136205646D01*
X127490314Y-136529253D02*
X127085805Y-136235360D01*
X127725428Y-136205646D02*
X127975724Y-136881924D01*
X127975724Y-136881924D02*
X127255200Y-136852859D01*
X127975724Y-136881924D02*
X127652442Y-137326883D01*
X127975724Y-136881924D02*
X128299006Y-136436964D01*
X128299331Y-137117038D02*
X127975724Y-136881924D01*
%TO.C,D9*%
X78002257Y-49043600D02*
X78602257Y-49443600D01*
X78002257Y-49443600D02*
X77502257Y-49443600D01*
X78002257Y-49843600D02*
X78002257Y-49043600D01*
X78602257Y-49443600D02*
X78002257Y-49843600D01*
X78602257Y-49443600D02*
X78602257Y-48893600D01*
X78602257Y-49443600D02*
X78602257Y-49993600D01*
X79002257Y-49443600D02*
X78602257Y-49443600D01*
%TO.C,D6*%
X58242257Y-54987200D02*
X58842257Y-55387200D01*
X58242257Y-55387200D02*
X57742257Y-55387200D01*
X58242257Y-55787200D02*
X58242257Y-54987200D01*
X58842257Y-55387200D02*
X58242257Y-55787200D01*
X58842257Y-55387200D02*
X58842257Y-54837200D01*
X58842257Y-55387200D02*
X58842257Y-55937200D01*
X59242257Y-55387200D02*
X58842257Y-55387200D01*
%TO.C,D19*%
X255690000Y-114423200D02*
X256290000Y-114823200D01*
X255690000Y-114823200D02*
X255190000Y-114823200D01*
X255690000Y-115223200D02*
X255690000Y-114423200D01*
X256290000Y-114823200D02*
X255690000Y-115223200D01*
X256290000Y-114823200D02*
X256290000Y-114273200D01*
X256290000Y-114823200D02*
X256290000Y-115373200D01*
X256690000Y-114823200D02*
X256290000Y-114823200D01*
%TO.C,D15*%
X117522257Y-64893200D02*
X118122257Y-65293200D01*
X117522257Y-65293200D02*
X117022257Y-65293200D01*
X117522257Y-65693200D02*
X117522257Y-64893200D01*
X118122257Y-65293200D02*
X117522257Y-65693200D01*
X118122257Y-65293200D02*
X118122257Y-64743200D01*
X118122257Y-65293200D02*
X118122257Y-65843200D01*
X118522257Y-65293200D02*
X118122257Y-65293200D01*
%TO.C,D11*%
X97762257Y-80742800D02*
X98362257Y-81142800D01*
X97762257Y-81142800D02*
X97262257Y-81142800D01*
X97762257Y-81542800D02*
X97762257Y-80742800D01*
X98362257Y-81142800D02*
X97762257Y-81542800D01*
X98362257Y-81142800D02*
X98362257Y-80592800D01*
X98362257Y-81142800D02*
X98362257Y-81692800D01*
X98762257Y-81142800D02*
X98362257Y-81142800D01*
%TO.C,D10*%
X97762257Y-100554800D02*
X98362257Y-100954800D01*
X97762257Y-100954800D02*
X97262257Y-100954800D01*
X97762257Y-101354800D02*
X97762257Y-100554800D01*
X98362257Y-100954800D02*
X97762257Y-101354800D01*
X98362257Y-100954800D02*
X98362257Y-100404800D01*
X98362257Y-100954800D02*
X98362257Y-101504800D01*
X98762257Y-100954800D02*
X98362257Y-100954800D01*
%TO.C,D22*%
X235930000Y-94611200D02*
X236530000Y-95011200D01*
X235930000Y-95011200D02*
X235430000Y-95011200D01*
X235930000Y-95411200D02*
X235930000Y-94611200D01*
X236530000Y-95011200D02*
X235930000Y-95411200D01*
X236530000Y-95011200D02*
X236530000Y-94461200D01*
X236530000Y-95011200D02*
X236530000Y-95561200D01*
X236930000Y-95011200D02*
X236530000Y-95011200D01*
%TO.C,D29*%
X196410000Y-80742800D02*
X197010000Y-81142800D01*
X196410000Y-81142800D02*
X195910000Y-81142800D01*
X196410000Y-81542800D02*
X196410000Y-80742800D01*
X197010000Y-81142800D02*
X196410000Y-81542800D01*
X197010000Y-81142800D02*
X197010000Y-80592800D01*
X197010000Y-81142800D02*
X197010000Y-81692800D01*
X197410000Y-81142800D02*
X197010000Y-81142800D01*
%TO.C,D4*%
X58242257Y-94611200D02*
X58842257Y-95011200D01*
X58242257Y-95011200D02*
X57742257Y-95011200D01*
X58242257Y-95411200D02*
X58242257Y-94611200D01*
X58842257Y-95011200D02*
X58242257Y-95411200D01*
X58842257Y-95011200D02*
X58842257Y-94461200D01*
X58842257Y-95011200D02*
X58842257Y-95561200D01*
X59242257Y-95011200D02*
X58842257Y-95011200D01*
%TO.C,D24*%
X235930000Y-54987200D02*
X236530000Y-55387200D01*
X235930000Y-55387200D02*
X235430000Y-55387200D01*
X235930000Y-55787200D02*
X235930000Y-54987200D01*
X236530000Y-55387200D02*
X235930000Y-55787200D01*
X236530000Y-55387200D02*
X236530000Y-54837200D01*
X236530000Y-55387200D02*
X236530000Y-55937200D01*
X236930000Y-55387200D02*
X236530000Y-55387200D01*
%TO.C,D31*%
X176650000Y-104517200D02*
X177250000Y-104917200D01*
X176650000Y-104917200D02*
X176150000Y-104917200D01*
X176650000Y-105317200D02*
X176650000Y-104517200D01*
X177250000Y-104917200D02*
X176650000Y-105317200D01*
X177250000Y-104917200D02*
X177250000Y-104367200D01*
X177250000Y-104917200D02*
X177250000Y-105467200D01*
X177650000Y-104917200D02*
X177250000Y-104917200D01*
%TO.C,D1*%
X38482257Y-114423200D02*
X39082257Y-114823200D01*
X38482257Y-114823200D02*
X37982257Y-114823200D01*
X38482257Y-115223200D02*
X38482257Y-114423200D01*
X39082257Y-114823200D02*
X38482257Y-115223200D01*
X39082257Y-114823200D02*
X39082257Y-114273200D01*
X39082257Y-114823200D02*
X39082257Y-115373200D01*
X39482257Y-114823200D02*
X39082257Y-114823200D01*
%TO.C,D32*%
X176650000Y-84705200D02*
X177250000Y-85105200D01*
X176650000Y-85105200D02*
X176150000Y-85105200D01*
X176650000Y-85505200D02*
X176650000Y-84705200D01*
X177250000Y-85105200D02*
X176650000Y-85505200D01*
X177250000Y-85105200D02*
X177250000Y-84555200D01*
X177250000Y-85105200D02*
X177250000Y-85655200D01*
X177650000Y-85105200D02*
X177250000Y-85105200D01*
%TO.C,D3*%
X38482257Y-74799200D02*
X39082257Y-75199200D01*
X38482257Y-75199200D02*
X37982257Y-75199200D01*
X38482257Y-75599200D02*
X38482257Y-74799200D01*
X39082257Y-75199200D02*
X38482257Y-75599200D01*
X39082257Y-75199200D02*
X39082257Y-74649200D01*
X39082257Y-75199200D02*
X39082257Y-75749200D01*
X39482257Y-75199200D02*
X39082257Y-75199200D01*
%TD*%
%LPC*%
D13*
%TO.C,T1*%
X56992257Y-36620000D03*
X59992257Y-36620000D03*
%TD*%
D14*
%TO.C,S25*%
X211340000Y-83124000D03*
D15*
X212610000Y-80584000D03*
D16*
X216420000Y-83124000D03*
D15*
X218960000Y-78044000D03*
D14*
X221500000Y-83124000D03*
D17*
X209335000Y-80584000D03*
X222262000Y-78044000D03*
%TD*%
D14*
%TO.C,S28*%
X191580000Y-95011200D03*
D15*
X192850000Y-92471200D03*
D16*
X196660000Y-95011200D03*
D15*
X199200000Y-89931200D03*
D14*
X201740000Y-95011200D03*
D17*
X189575000Y-92471200D03*
X202502000Y-89931200D03*
%TD*%
D14*
%TO.C,S14*%
X112692257Y-79161600D03*
D15*
X113962257Y-76621600D03*
D16*
X117772257Y-79161600D03*
D15*
X120312257Y-74081600D03*
D14*
X122852257Y-79161600D03*
D17*
X110687257Y-76621600D03*
X123614257Y-74081600D03*
%TD*%
D13*
%TO.C,T2*%
X234680000Y-36620000D03*
X237680000Y-36620000D03*
%TD*%
D14*
%TO.C,S36*%
X159376323Y-134853675D03*
D15*
X158910800Y-132052285D03*
D16*
X163486129Y-131867726D03*
D15*
X162555083Y-126264945D03*
D14*
X167595935Y-128881777D03*
D18*
X156261269Y-133977281D03*
X165226457Y-124324078D03*
%TD*%
D14*
%TO.C,S4*%
X53412257Y-89067600D03*
D15*
X54682257Y-86527600D03*
D16*
X58492257Y-89067600D03*
D15*
X61032257Y-83987600D03*
D14*
X63572257Y-89067600D03*
D17*
X51407257Y-86527600D03*
X64334257Y-83987600D03*
%TD*%
D19*
%TO.C,BATTPAD4*%
X215420000Y-97030000D03*
X217420000Y-97030000D03*
%TD*%
D14*
%TO.C,S35*%
X179105183Y-123137524D03*
D15*
X179528122Y-120329389D03*
D16*
X183936550Y-121567718D03*
D15*
X184782427Y-115951448D03*
D14*
X188767917Y-119997912D03*
D20*
X176413411Y-121341420D03*
X187922816Y-114931074D03*
%TD*%
D14*
%TO.C,S17*%
X105904340Y-119997912D03*
D15*
X107897085Y-117974680D03*
D16*
X110735707Y-121567718D03*
D15*
X114721197Y-117521254D03*
D14*
X115567074Y-123137524D03*
D21*
X104782375Y-116962649D03*
X117861585Y-118541628D03*
%TD*%
D14*
%TO.C,S30*%
X191580000Y-55387200D03*
D15*
X192850000Y-52847200D03*
D16*
X196660000Y-55387200D03*
D15*
X199200000Y-50307200D03*
D14*
X201740000Y-55387200D03*
D17*
X189575000Y-52847200D03*
X202502000Y-50307200D03*
%TD*%
D14*
%TO.C,S32*%
X171820000Y-79161600D03*
D15*
X173090000Y-76621600D03*
D16*
X176900000Y-79161600D03*
D15*
X179440000Y-74081600D03*
D14*
X181980000Y-79161600D03*
D17*
X169815000Y-76621600D03*
X182742000Y-74081600D03*
%TD*%
D14*
%TO.C,S26*%
X211340000Y-63312000D03*
D15*
X212610000Y-60772000D03*
D16*
X216420000Y-63312000D03*
D15*
X218960000Y-58232000D03*
D14*
X221500000Y-63312000D03*
D17*
X209335000Y-60772000D03*
X222262000Y-58232000D03*
%TD*%
D14*
%TO.C,S15*%
X112692257Y-59349600D03*
D15*
X113962257Y-56809600D03*
D16*
X117772257Y-59349600D03*
D15*
X120312257Y-54269600D03*
D14*
X122852257Y-59349600D03*
D17*
X110687257Y-56809600D03*
X123614257Y-54269600D03*
%TD*%
D14*
%TO.C,S2*%
X33652257Y-89067600D03*
D15*
X34922257Y-86527600D03*
D16*
X38732257Y-89067600D03*
D15*
X41272257Y-83987600D03*
D14*
X43812257Y-89067600D03*
D17*
X31647257Y-86527600D03*
X44574257Y-83987600D03*
%TD*%
D14*
%TO.C,S27*%
X211340000Y-43500000D03*
D15*
X212610000Y-40960000D03*
D16*
X216420000Y-43500000D03*
D15*
X218960000Y-38420000D03*
D14*
X221500000Y-43500000D03*
D17*
X209335000Y-40960000D03*
X222262000Y-38420000D03*
%TD*%
D22*
%TO.C,BATTPAD1*%
X73252257Y-96030000D03*
X83252257Y-96030000D03*
%TD*%
D14*
%TO.C,S11*%
X92932257Y-75199200D03*
D15*
X94202257Y-72659200D03*
D16*
X98012257Y-75199200D03*
D15*
X100552257Y-70119200D03*
D14*
X103092257Y-75199200D03*
D17*
X90927257Y-72659200D03*
X103854257Y-70119200D03*
%TD*%
D23*
%TO.C,xiao-ble2*%
X247735000Y-37348600D03*
X247735000Y-39888600D03*
X247735000Y-42428600D03*
X247735000Y-44968600D03*
X247735000Y-47508600D03*
X247735000Y-50048600D03*
X247735000Y-52588600D03*
X263925000Y-52588600D03*
X263925000Y-50048600D03*
X263925000Y-47508600D03*
X263925000Y-44968600D03*
X263925000Y-42428600D03*
X263925000Y-39888600D03*
X263925000Y-37348600D03*
D19*
X254560000Y-36396600D03*
X257100000Y-36396600D03*
X254560000Y-38936600D03*
X257100000Y-38936600D03*
X251385000Y-44651600D03*
X251385000Y-42746600D03*
%TD*%
D14*
%TO.C,S1*%
X33652257Y-108879600D03*
D15*
X34922257Y-106339600D03*
D16*
X38732257Y-108879600D03*
D15*
X41272257Y-103799600D03*
D14*
X43812257Y-108879600D03*
D17*
X31647257Y-106339600D03*
X44574257Y-103799600D03*
%TD*%
D14*
%TO.C,S21*%
X250860000Y-69255600D03*
D15*
X252130000Y-66715600D03*
D16*
X255940000Y-69255600D03*
D15*
X258480000Y-64175600D03*
D14*
X261020000Y-69255600D03*
D17*
X248855000Y-66715600D03*
X261782000Y-64175600D03*
%TD*%
D14*
%TO.C,S24*%
X231100000Y-49443600D03*
D15*
X232370000Y-46903600D03*
D16*
X236180000Y-49443600D03*
D15*
X238720000Y-44363600D03*
D14*
X241260000Y-49443600D03*
D17*
X229095000Y-46903600D03*
X242022000Y-44363600D03*
%TD*%
D14*
%TO.C,S6*%
X53412257Y-49443600D03*
D15*
X54682257Y-46903600D03*
D16*
X58492257Y-49443600D03*
D15*
X61032257Y-44363600D03*
D14*
X63572257Y-49443600D03*
D17*
X51407257Y-46903600D03*
X64334257Y-44363600D03*
%TD*%
D14*
%TO.C,S29*%
X191580000Y-75199200D03*
D15*
X192850000Y-72659200D03*
D16*
X196660000Y-75199200D03*
D15*
X199200000Y-70119200D03*
D14*
X201740000Y-75199200D03*
D17*
X189575000Y-72659200D03*
X202502000Y-70119200D03*
%TD*%
D14*
%TO.C,S13*%
X112692257Y-98973600D03*
D15*
X113962257Y-96433600D03*
D16*
X117772257Y-98973600D03*
D15*
X120312257Y-93893600D03*
D14*
X122852257Y-98973600D03*
D17*
X110687257Y-96433600D03*
X123614257Y-93893600D03*
%TD*%
D14*
%TO.C,S20*%
X250860000Y-89067600D03*
D15*
X252130000Y-86527600D03*
D16*
X255940000Y-89067600D03*
D15*
X258480000Y-83987600D03*
D14*
X261020000Y-89067600D03*
D17*
X248855000Y-86527600D03*
X261782000Y-83987600D03*
%TD*%
D14*
%TO.C,S8*%
X73172257Y-63312000D03*
D15*
X74442257Y-60772000D03*
D16*
X78252257Y-63312000D03*
D15*
X80792257Y-58232000D03*
D14*
X83332257Y-63312000D03*
D17*
X71167257Y-60772000D03*
X84094257Y-58232000D03*
%TD*%
D14*
%TO.C,S7*%
X73172257Y-83124000D03*
D15*
X74442257Y-80584000D03*
D16*
X78252257Y-83124000D03*
D15*
X80792257Y-78044000D03*
D14*
X83332257Y-83124000D03*
D17*
X71167257Y-80584000D03*
X84094257Y-78044000D03*
%TD*%
D14*
%TO.C,S23*%
X231100000Y-69255600D03*
D15*
X232370000Y-66715600D03*
D16*
X236180000Y-69255600D03*
D15*
X238720000Y-64175600D03*
D14*
X241260000Y-69255600D03*
D17*
X229095000Y-66715600D03*
X242022000Y-64175600D03*
%TD*%
D14*
%TO.C,S33*%
X171820000Y-59349600D03*
D15*
X173090000Y-56809600D03*
D16*
X176900000Y-59349600D03*
D15*
X179440000Y-54269600D03*
D14*
X181980000Y-59349600D03*
D17*
X169815000Y-56809600D03*
X182742000Y-54269600D03*
%TD*%
D14*
%TO.C,S5*%
X53412257Y-69255600D03*
D15*
X54682257Y-66715600D03*
D16*
X58492257Y-69255600D03*
D15*
X61032257Y-64175600D03*
D14*
X63572257Y-69255600D03*
D17*
X51407257Y-66715600D03*
X64334257Y-64175600D03*
%TD*%
D14*
%TO.C,S12*%
X92932257Y-55387200D03*
D15*
X94202257Y-52847200D03*
D16*
X98012257Y-55387200D03*
D15*
X100552257Y-50307200D03*
D14*
X103092257Y-55387200D03*
D17*
X90927257Y-52847200D03*
X103854257Y-50307200D03*
%TD*%
D14*
%TO.C,S34*%
X201080000Y-117823200D03*
D15*
X202350000Y-115283200D03*
D16*
X206160000Y-117823200D03*
D15*
X208700000Y-112743200D03*
D14*
X211240000Y-117823200D03*
D17*
X199075000Y-115283200D03*
X212002000Y-112743200D03*
%TD*%
D14*
%TO.C,S18*%
X127076323Y-128881777D03*
D15*
X129596749Y-127573361D03*
D16*
X131186129Y-131867726D03*
D15*
X136226981Y-129250894D03*
D14*
X135295935Y-134853675D03*
D24*
X126947218Y-125648364D03*
X138898355Y-131191761D03*
%TD*%
D14*
%TO.C,S3*%
X33652257Y-69255600D03*
D15*
X34922257Y-66715600D03*
D16*
X38732257Y-69255600D03*
D15*
X41272257Y-64175600D03*
D14*
X43812257Y-69255600D03*
D17*
X31647257Y-66715600D03*
X44574257Y-64175600D03*
%TD*%
D14*
%TO.C,S31*%
X171820000Y-98973600D03*
D15*
X173090000Y-96433600D03*
D16*
X176900000Y-98973600D03*
D15*
X179440000Y-93893600D03*
D14*
X181980000Y-98973600D03*
D17*
X169815000Y-96433600D03*
X182742000Y-93893600D03*
%TD*%
D14*
%TO.C,S16*%
X83432257Y-117823200D03*
D15*
X84702257Y-115283200D03*
D16*
X88512257Y-117823200D03*
D15*
X91052257Y-112743200D03*
D14*
X93592257Y-117823200D03*
D17*
X81427257Y-115283200D03*
X94354257Y-112743200D03*
%TD*%
D14*
%TO.C,S22*%
X231100000Y-89067600D03*
D15*
X232370000Y-86527600D03*
D16*
X236180000Y-89067600D03*
D15*
X238720000Y-83987600D03*
D14*
X241260000Y-89067600D03*
D17*
X229095000Y-86527600D03*
X242022000Y-83987600D03*
%TD*%
D14*
%TO.C,S19*%
X250860000Y-108879600D03*
D15*
X252130000Y-106339600D03*
D16*
X255940000Y-108879600D03*
D15*
X258480000Y-103799600D03*
D14*
X261020000Y-108879600D03*
D17*
X248855000Y-106339600D03*
X261782000Y-103799600D03*
%TD*%
D23*
%TO.C,xiao-ble1*%
X30747257Y-37348600D03*
X30747257Y-39888600D03*
X30747257Y-42428600D03*
X30747257Y-44968600D03*
X30747257Y-47508600D03*
X30747257Y-50048600D03*
X30747257Y-52588600D03*
X46937257Y-52588600D03*
X46937257Y-50048600D03*
X46937257Y-47508600D03*
X46937257Y-44968600D03*
X46937257Y-42428600D03*
X46937257Y-39888600D03*
X46937257Y-37348600D03*
D19*
X37572257Y-36396600D03*
X40112257Y-36396600D03*
X37572257Y-38936600D03*
X40112257Y-38936600D03*
X34397257Y-44651600D03*
X34397257Y-42746600D03*
%TD*%
D14*
%TO.C,S9*%
X73172257Y-43500000D03*
D15*
X74442257Y-40960000D03*
D16*
X78252257Y-43500000D03*
D15*
X80792257Y-38420000D03*
D14*
X83332257Y-43500000D03*
D17*
X71167257Y-40960000D03*
X84094257Y-38420000D03*
%TD*%
D14*
%TO.C,S10*%
X92932257Y-95011200D03*
D15*
X94202257Y-92471200D03*
D16*
X98012257Y-95011200D03*
D15*
X100552257Y-89931200D03*
D14*
X103092257Y-95011200D03*
D17*
X90927257Y-92471200D03*
X103854257Y-89931200D03*
%TD*%
D19*
%TO.C,BATTPAD2*%
X77252257Y-97030000D03*
X79252257Y-97030000D03*
%TD*%
D22*
%TO.C,BATTPAD3*%
X211420000Y-96030000D03*
X221420000Y-96030000D03*
%TD*%
D25*
%TO.C,D25*%
X218070000Y-89067600D03*
X214770000Y-89067600D03*
%TD*%
D26*
%TO.C,D35*%
X187342467Y-126710539D03*
X184203981Y-127730295D03*
%TD*%
D25*
%TO.C,D12*%
X99662257Y-61330800D03*
X96362257Y-61330800D03*
%TD*%
%TO.C,D23*%
X237830000Y-75199200D03*
X234530000Y-75199200D03*
%TD*%
%TO.C,D26*%
X218070000Y-69255600D03*
X214770000Y-69255600D03*
%TD*%
%TO.C,D21*%
X257590000Y-75199200D03*
X254290000Y-75199200D03*
%TD*%
%TO.C,D13*%
X119422257Y-104917200D03*
X116122257Y-104917200D03*
%TD*%
%TO.C,D7*%
X79902257Y-89067600D03*
X76602257Y-89067600D03*
%TD*%
D27*
%TO.C,D36*%
X168314567Y-135706353D03*
X165644811Y-137646045D03*
%TD*%
D25*
%TO.C,D34*%
X207810000Y-123766800D03*
X204510000Y-123766800D03*
%TD*%
D28*
%TO.C,D17*%
X110468277Y-127730295D03*
X107329791Y-126710539D03*
%TD*%
D25*
%TO.C,D28*%
X198310000Y-100954800D03*
X195010000Y-100954800D03*
%TD*%
%TO.C,D27*%
X218070000Y-49443600D03*
X214770000Y-49443600D03*
%TD*%
%TO.C,D33*%
X178550000Y-65293200D03*
X175250000Y-65293200D03*
%TD*%
%TO.C,D20*%
X257590000Y-95011200D03*
X254290000Y-95011200D03*
%TD*%
%TO.C,D2*%
X40382257Y-95011200D03*
X37082257Y-95011200D03*
%TD*%
%TO.C,D8*%
X79902257Y-69255600D03*
X76602257Y-69255600D03*
%TD*%
%TO.C,D16*%
X90162257Y-123766800D03*
X86862257Y-123766800D03*
%TD*%
%TO.C,D5*%
X60142257Y-75199200D03*
X56842257Y-75199200D03*
%TD*%
%TO.C,D14*%
X119422257Y-85105200D03*
X116122257Y-85105200D03*
%TD*%
%TO.C,D30*%
X198310000Y-61330800D03*
X195010000Y-61330800D03*
%TD*%
D29*
%TO.C,D18*%
X129027446Y-137646045D03*
X126357690Y-135706353D03*
%TD*%
D25*
%TO.C,D9*%
X79902257Y-49443600D03*
X76602257Y-49443600D03*
%TD*%
%TO.C,D6*%
X60142257Y-55387200D03*
X56842257Y-55387200D03*
%TD*%
%TO.C,D19*%
X257590000Y-114823200D03*
X254290000Y-114823200D03*
%TD*%
%TO.C,D15*%
X119422257Y-65293200D03*
X116122257Y-65293200D03*
%TD*%
%TO.C,D11*%
X99662257Y-81142800D03*
X96362257Y-81142800D03*
%TD*%
%TO.C,D10*%
X99662257Y-100954800D03*
X96362257Y-100954800D03*
%TD*%
%TO.C,D22*%
X237830000Y-95011200D03*
X234530000Y-95011200D03*
%TD*%
%TO.C,D29*%
X198310000Y-81142800D03*
X195010000Y-81142800D03*
%TD*%
%TO.C,D4*%
X60142257Y-95011200D03*
X56842257Y-95011200D03*
%TD*%
%TO.C,D24*%
X237830000Y-55387200D03*
X234530000Y-55387200D03*
%TD*%
%TO.C,D31*%
X178550000Y-104917200D03*
X175250000Y-104917200D03*
%TD*%
%TO.C,D1*%
X40382257Y-114823200D03*
X37082257Y-114823200D03*
%TD*%
%TO.C,D32*%
X178550000Y-85105200D03*
X175250000Y-85105200D03*
%TD*%
%TO.C,D3*%
X40382257Y-75199200D03*
X37082257Y-75199200D03*
%TD*%
%LPD*%
M02*
