%TF.GenerationSoftware,KiCad,Pcbnew,8.0.1*%
%TF.CreationDate,2024-04-22T06:21:47+12:00*%
%TF.ProjectId,main routed,6d61696e-2072-46f7-9574-65642e6b6963,v1.0.0*%
%TF.SameCoordinates,Original*%
%TF.FileFunction,Soldermask,Top*%
%TF.FilePolarity,Negative*%
%FSLAX46Y46*%
G04 Gerber Fmt 4.6, Leading zero omitted, Abs format (unit mm)*
G04 Created by KiCad (PCBNEW 8.0.1) date 2024-04-22 06:21:47*
%MOMM*%
%LPD*%
G01*
G04 APERTURE LIST*
G04 Aperture macros list*
%AMRoundRect*
0 Rectangle with rounded corners*
0 $1 Rounding radius*
0 $2 $3 $4 $5 $6 $7 $8 $9 X,Y pos of 4 corners*
0 Add a 4 corners polygon primitive as box body*
4,1,4,$2,$3,$4,$5,$6,$7,$8,$9,$2,$3,0*
0 Add four circle primitives for the rounded corners*
1,1,$1+$1,$2,$3*
1,1,$1+$1,$4,$5*
1,1,$1+$1,$6,$7*
1,1,$1+$1,$8,$9*
0 Add four rect primitives between the rounded corners*
20,1,$1+$1,$2,$3,$4,$5,0*
20,1,$1+$1,$4,$5,$6,$7,0*
20,1,$1+$1,$6,$7,$8,$9,0*
20,1,$1+$1,$8,$9,$2,$3,0*%
G04 Aperture macros list end*
%ADD10RoundRect,0.050000X-0.450000X-0.450000X0.450000X-0.450000X0.450000X0.450000X-0.450000X0.450000X0*%
%ADD11C,1.100000*%
%ADD12RoundRect,0.050000X-0.450000X-0.625000X0.450000X-0.625000X0.450000X0.625000X-0.450000X0.625000X0*%
%ADD13C,1.801800*%
%ADD14C,3.100000*%
%ADD15C,4.087800*%
%ADD16C,1.497000*%
%ADD17O,2.850000X1.900000*%
G04 APERTURE END LIST*
D10*
%TO.C,T1*%
X54792257Y-35520000D03*
X54792257Y-37720000D03*
D11*
X56992257Y-36620000D03*
X59992257Y-36620000D03*
D10*
X62192257Y-35520000D03*
X62192257Y-37720000D03*
D12*
X60742257Y-38695000D03*
X57742257Y-38695000D03*
X56242257Y-38695000D03*
%TD*%
D13*
%TO.C,S25*%
X211340000Y-83124000D03*
D14*
X212610000Y-80584000D03*
D15*
X216420000Y-83124000D03*
D14*
X218960000Y-78044000D03*
D13*
X221500000Y-83124000D03*
%TD*%
%TO.C,S28*%
X191580000Y-95011200D03*
D14*
X192850000Y-92471200D03*
D15*
X196660000Y-95011200D03*
D14*
X199200000Y-89931200D03*
D13*
X201740000Y-95011200D03*
%TD*%
%TO.C,S14*%
X112692257Y-79161600D03*
D14*
X113962257Y-76621600D03*
D15*
X117772257Y-79161600D03*
D14*
X120312257Y-74081600D03*
D13*
X122852257Y-79161600D03*
%TD*%
D10*
%TO.C,T2*%
X232480000Y-35520000D03*
X232480000Y-37720000D03*
D11*
X234680000Y-36620000D03*
X237680000Y-36620000D03*
D10*
X239880000Y-35520000D03*
X239880000Y-37720000D03*
D12*
X238430000Y-38695000D03*
X235430000Y-38695000D03*
X233930000Y-38695000D03*
%TD*%
D13*
%TO.C,S36*%
X159376323Y-134853675D03*
D14*
X158910800Y-132052285D03*
D15*
X163486129Y-131867726D03*
D14*
X162555083Y-126264945D03*
D13*
X167595935Y-128881777D03*
%TD*%
%TO.C,S4*%
X53412257Y-89067600D03*
D14*
X54682257Y-86527600D03*
D15*
X58492257Y-89067600D03*
D14*
X61032257Y-83987600D03*
D13*
X63572257Y-89067600D03*
%TD*%
D16*
%TO.C,BATTPAD4*%
X215420000Y-97030000D03*
X217420000Y-97030000D03*
%TD*%
D13*
%TO.C,S35*%
X179105183Y-123137524D03*
D14*
X179528122Y-120329389D03*
D15*
X183936550Y-121567718D03*
D14*
X184782427Y-115951448D03*
D13*
X188767917Y-119997912D03*
%TD*%
%TO.C,S17*%
X105904340Y-119997912D03*
D14*
X107897085Y-117974680D03*
D15*
X110735707Y-121567718D03*
D14*
X114721197Y-117521254D03*
D13*
X115567074Y-123137524D03*
%TD*%
%TO.C,S30*%
X191580000Y-55387200D03*
D14*
X192850000Y-52847200D03*
D15*
X196660000Y-55387200D03*
D14*
X199200000Y-50307200D03*
D13*
X201740000Y-55387200D03*
%TD*%
%TO.C,S32*%
X171820000Y-79161600D03*
D14*
X173090000Y-76621600D03*
D15*
X176900000Y-79161600D03*
D14*
X179440000Y-74081600D03*
D13*
X181980000Y-79161600D03*
%TD*%
%TO.C,S26*%
X211340000Y-63312000D03*
D14*
X212610000Y-60772000D03*
D15*
X216420000Y-63312000D03*
D14*
X218960000Y-58232000D03*
D13*
X221500000Y-63312000D03*
%TD*%
%TO.C,S15*%
X112692257Y-59349600D03*
D14*
X113962257Y-56809600D03*
D15*
X117772257Y-59349600D03*
D14*
X120312257Y-54269600D03*
D13*
X122852257Y-59349600D03*
%TD*%
%TO.C,S2*%
X33652257Y-89067600D03*
D14*
X34922257Y-86527600D03*
D15*
X38732257Y-89067600D03*
D14*
X41272257Y-83987600D03*
D13*
X43812257Y-89067600D03*
%TD*%
%TO.C,S27*%
X211340000Y-43500000D03*
D14*
X212610000Y-40960000D03*
D15*
X216420000Y-43500000D03*
D14*
X218960000Y-38420000D03*
D13*
X221500000Y-43500000D03*
%TD*%
%TO.C,S11*%
X92932257Y-75199200D03*
D14*
X94202257Y-72659200D03*
D15*
X98012257Y-75199200D03*
D14*
X100552257Y-70119200D03*
D13*
X103092257Y-75199200D03*
%TD*%
D17*
%TO.C,xiao-ble2*%
X247735000Y-37348600D03*
X247735000Y-39888600D03*
X247735000Y-42428600D03*
X247735000Y-44968600D03*
X247735000Y-47508600D03*
X247735000Y-50048600D03*
X247735000Y-52588600D03*
X263925000Y-52588600D03*
X263925000Y-50048600D03*
X263925000Y-47508600D03*
X263925000Y-44968600D03*
X263925000Y-42428600D03*
X263925000Y-39888600D03*
X263925000Y-37348600D03*
D16*
X254560000Y-36396600D03*
X257100000Y-36396600D03*
X254560000Y-38936600D03*
X257100000Y-38936600D03*
X251385000Y-44651600D03*
X251385000Y-42746600D03*
%TD*%
D13*
%TO.C,S1*%
X33652257Y-108879600D03*
D14*
X34922257Y-106339600D03*
D15*
X38732257Y-108879600D03*
D14*
X41272257Y-103799600D03*
D13*
X43812257Y-108879600D03*
%TD*%
%TO.C,S21*%
X250860000Y-69255600D03*
D14*
X252130000Y-66715600D03*
D15*
X255940000Y-69255600D03*
D14*
X258480000Y-64175600D03*
D13*
X261020000Y-69255600D03*
%TD*%
%TO.C,S24*%
X231100000Y-49443600D03*
D14*
X232370000Y-46903600D03*
D15*
X236180000Y-49443600D03*
D14*
X238720000Y-44363600D03*
D13*
X241260000Y-49443600D03*
%TD*%
%TO.C,S6*%
X53412257Y-49443600D03*
D14*
X54682257Y-46903600D03*
D15*
X58492257Y-49443600D03*
D14*
X61032257Y-44363600D03*
D13*
X63572257Y-49443600D03*
%TD*%
%TO.C,S29*%
X191580000Y-75199200D03*
D14*
X192850000Y-72659200D03*
D15*
X196660000Y-75199200D03*
D14*
X199200000Y-70119200D03*
D13*
X201740000Y-75199200D03*
%TD*%
%TO.C,S13*%
X112692257Y-98973600D03*
D14*
X113962257Y-96433600D03*
D15*
X117772257Y-98973600D03*
D14*
X120312257Y-93893600D03*
D13*
X122852257Y-98973600D03*
%TD*%
%TO.C,S20*%
X250860000Y-89067600D03*
D14*
X252130000Y-86527600D03*
D15*
X255940000Y-89067600D03*
D14*
X258480000Y-83987600D03*
D13*
X261020000Y-89067600D03*
%TD*%
%TO.C,S8*%
X73172257Y-63312000D03*
D14*
X74442257Y-60772000D03*
D15*
X78252257Y-63312000D03*
D14*
X80792257Y-58232000D03*
D13*
X83332257Y-63312000D03*
%TD*%
%TO.C,S7*%
X73172257Y-83124000D03*
D14*
X74442257Y-80584000D03*
D15*
X78252257Y-83124000D03*
D14*
X80792257Y-78044000D03*
D13*
X83332257Y-83124000D03*
%TD*%
%TO.C,S23*%
X231100000Y-69255600D03*
D14*
X232370000Y-66715600D03*
D15*
X236180000Y-69255600D03*
D14*
X238720000Y-64175600D03*
D13*
X241260000Y-69255600D03*
%TD*%
%TO.C,S33*%
X171820000Y-59349600D03*
D14*
X173090000Y-56809600D03*
D15*
X176900000Y-59349600D03*
D14*
X179440000Y-54269600D03*
D13*
X181980000Y-59349600D03*
%TD*%
%TO.C,S5*%
X53412257Y-69255600D03*
D14*
X54682257Y-66715600D03*
D15*
X58492257Y-69255600D03*
D14*
X61032257Y-64175600D03*
D13*
X63572257Y-69255600D03*
%TD*%
%TO.C,S12*%
X92932257Y-55387200D03*
D14*
X94202257Y-52847200D03*
D15*
X98012257Y-55387200D03*
D14*
X100552257Y-50307200D03*
D13*
X103092257Y-55387200D03*
%TD*%
%TO.C,S34*%
X201080000Y-117823200D03*
D14*
X202350000Y-115283200D03*
D15*
X206160000Y-117823200D03*
D14*
X208700000Y-112743200D03*
D13*
X211240000Y-117823200D03*
%TD*%
%TO.C,S18*%
X127076323Y-128881777D03*
D14*
X129596749Y-127573361D03*
D15*
X131186129Y-131867726D03*
D14*
X136226981Y-129250894D03*
D13*
X135295935Y-134853675D03*
%TD*%
%TO.C,S3*%
X33652257Y-69255600D03*
D14*
X34922257Y-66715600D03*
D15*
X38732257Y-69255600D03*
D14*
X41272257Y-64175600D03*
D13*
X43812257Y-69255600D03*
%TD*%
%TO.C,S31*%
X171820000Y-98973600D03*
D14*
X173090000Y-96433600D03*
D15*
X176900000Y-98973600D03*
D14*
X179440000Y-93893600D03*
D13*
X181980000Y-98973600D03*
%TD*%
%TO.C,S16*%
X83432257Y-117823200D03*
D14*
X84702257Y-115283200D03*
D15*
X88512257Y-117823200D03*
D14*
X91052257Y-112743200D03*
D13*
X93592257Y-117823200D03*
%TD*%
%TO.C,S22*%
X231100000Y-89067600D03*
D14*
X232370000Y-86527600D03*
D15*
X236180000Y-89067600D03*
D14*
X238720000Y-83987600D03*
D13*
X241260000Y-89067600D03*
%TD*%
%TO.C,S19*%
X250860000Y-108879600D03*
D14*
X252130000Y-106339600D03*
D15*
X255940000Y-108879600D03*
D14*
X258480000Y-103799600D03*
D13*
X261020000Y-108879600D03*
%TD*%
D17*
%TO.C,xiao-ble1*%
X30747257Y-37348600D03*
X30747257Y-39888600D03*
X30747257Y-42428600D03*
X30747257Y-44968600D03*
X30747257Y-47508600D03*
X30747257Y-50048600D03*
X30747257Y-52588600D03*
X46937257Y-52588600D03*
X46937257Y-50048600D03*
X46937257Y-47508600D03*
X46937257Y-44968600D03*
X46937257Y-42428600D03*
X46937257Y-39888600D03*
X46937257Y-37348600D03*
D16*
X37572257Y-36396600D03*
X40112257Y-36396600D03*
X37572257Y-38936600D03*
X40112257Y-38936600D03*
X34397257Y-44651600D03*
X34397257Y-42746600D03*
%TD*%
D13*
%TO.C,S9*%
X73172257Y-43500000D03*
D14*
X74442257Y-40960000D03*
D15*
X78252257Y-43500000D03*
D14*
X80792257Y-38420000D03*
D13*
X83332257Y-43500000D03*
%TD*%
%TO.C,S10*%
X92932257Y-95011200D03*
D14*
X94202257Y-92471200D03*
D15*
X98012257Y-95011200D03*
D14*
X100552257Y-89931200D03*
D13*
X103092257Y-95011200D03*
%TD*%
D16*
%TO.C,BATTPAD2*%
X77252257Y-97030000D03*
X79252257Y-97030000D03*
%TD*%
M02*
